M48
; DRILL file {KiCad (5.99.0-1097-g51b994466)} date Wed Mar 11 16:05:17 2020
; FORMAT={-:-/ absolute / inch / decimal}
; #@! TF.CreationDate,2020-03-11T16:05:17+02:00
; #@! TF.GenerationSoftware,Kicad,Pcbnew,(5.99.0-1097-g51b994466)
; #@! TF.FileFunction,Plated,1,2,PTH
FMAT,2
INCH
T1C0.0315
T2C0.0354
T3C0.0433
T4C0.0591
%
G90
G05
T1
X5.35Y-2.77
X5.52Y-3.2116
X5.52Y-3.31
X5.06Y-3.93
X5.36Y-3.93
X5.06Y-3.42
X5.36Y-3.42
X5.14Y-3.17
X5.3369Y-3.17
X5.8Y-3.2116
X5.8Y-3.31
X5.69Y-2.77
X5.99Y-2.77
X5.06Y-3.8
X5.36Y-3.8
X5.05Y-2.77
X5.12Y-3.3
X5.3169Y-3.3
X5.06Y-3.67
X5.36Y-3.67
X5.86Y-3.46
X5.86Y-3.76
X5.1631Y-3.54
X5.36Y-3.54
X5.1431Y-3.04
X5.34Y-3.04
T2
X5.475Y-2.99
X5.575Y-2.99
T3
X5.46Y-3.93
X5.56Y-3.93
X5.66Y-3.93
X5.76Y-3.93
X5.7Y-3.05
X6.0Y-3.05
X5.74Y-2.91
X5.84Y-2.91
X5.94Y-2.91
X4.99Y-3.01
X4.99Y-3.11
X5.47Y-2.475
X5.57Y-2.475
X5.1Y-2.91
X5.2Y-2.91
X5.3Y-2.91
T4
X5.6431Y-2.6344
X6.0369Y-2.6344
X5.0031Y-2.6344
X5.3969Y-2.6344
T0
M30
