G04 #@! TF.GenerationSoftware,KiCad,Pcbnew,(5.99.0-1097-g51b994466)*
G04 #@! TF.CreationDate,2020-03-11T16:34:53+02:00*
G04 #@! TF.ProjectId,guanaco-rojo,6775616e-6163-46f2-9d72-6f6a6f2e6b69,rev?*
G04 #@! TF.SameCoordinates,Original*
G04 #@! TF.FileFunction,Legend,Bot*
G04 #@! TF.FilePolarity,Positive*
%FSLAX46Y46*%
G04 Gerber Fmt 4.6, Leading zero omitted, Abs format (unit mm)*
G04 Created by KiCad (PCBNEW (5.99.0-1097-g51b994466)) date 2020-03-11 16:34:53*
%MOMM*%
%LPD*%
G01*
G04 APERTURE LIST*
%ADD10C,0.150000*%
%ADD11C,0.127000*%
%ADD12C,0.120000*%
%ADD13C,0.048768*%
G04 APERTURE END LIST*
D10*
X154006571Y-71597809D02*
X154654190Y-71597809D01*
X154730380Y-71550190D01*
X154768476Y-71502571D01*
X154806571Y-71407333D01*
X154806571Y-71264476D01*
X154768476Y-71169238D01*
X154501809Y-71597809D02*
X154539904Y-71502571D01*
X154539904Y-71312095D01*
X154501809Y-71216857D01*
X154463714Y-71169238D01*
X154387523Y-71121619D01*
X154158952Y-71121619D01*
X154082761Y-71169238D01*
X154044666Y-71216857D01*
X154006571Y-71312095D01*
X154006571Y-71502571D01*
X154044666Y-71597809D01*
X154539904Y-72074000D02*
X154006571Y-72074000D01*
X153739904Y-72074000D02*
X153778000Y-72026380D01*
X153816095Y-72074000D01*
X153778000Y-72121619D01*
X153739904Y-72074000D01*
X153816095Y-72074000D01*
X154006571Y-72407333D02*
X154006571Y-72788285D01*
X153739904Y-72550190D02*
X154425619Y-72550190D01*
X154501809Y-72597809D01*
X154539904Y-72693047D01*
X154539904Y-72788285D01*
X154539904Y-73121619D02*
X153739904Y-73121619D01*
X154539904Y-73550190D02*
X154120857Y-73550190D01*
X154044666Y-73502571D01*
X154006571Y-73407333D01*
X154006571Y-73264476D01*
X154044666Y-73169238D01*
X154082761Y-73121619D01*
X154006571Y-74454952D02*
X154539904Y-74454952D01*
X154006571Y-74026380D02*
X154425619Y-74026380D01*
X154501809Y-74074000D01*
X154539904Y-74169238D01*
X154539904Y-74312095D01*
X154501809Y-74407333D01*
X154463714Y-74454952D01*
X154539904Y-74931142D02*
X153739904Y-74931142D01*
X154044666Y-74931142D02*
X154006571Y-75026380D01*
X154006571Y-75216857D01*
X154044666Y-75312095D01*
X154082761Y-75359714D01*
X154158952Y-75407333D01*
X154387523Y-75407333D01*
X154463714Y-75359714D01*
X154501809Y-75312095D01*
X154539904Y-75216857D01*
X154539904Y-75026380D01*
X154501809Y-74931142D01*
X154463714Y-75835904D02*
X154501809Y-75883523D01*
X154539904Y-75835904D01*
X154501809Y-75788285D01*
X154463714Y-75835904D01*
X154539904Y-75835904D01*
X154501809Y-76740666D02*
X154539904Y-76645428D01*
X154539904Y-76454952D01*
X154501809Y-76359714D01*
X154463714Y-76312095D01*
X154387523Y-76264476D01*
X154158952Y-76264476D01*
X154082761Y-76312095D01*
X154044666Y-76359714D01*
X154006571Y-76454952D01*
X154006571Y-76645428D01*
X154044666Y-76740666D01*
X154539904Y-77312095D02*
X154501809Y-77216857D01*
X154463714Y-77169238D01*
X154387523Y-77121619D01*
X154158952Y-77121619D01*
X154082761Y-77169238D01*
X154044666Y-77216857D01*
X154006571Y-77312095D01*
X154006571Y-77454952D01*
X154044666Y-77550190D01*
X154082761Y-77597809D01*
X154158952Y-77645428D01*
X154387523Y-77645428D01*
X154463714Y-77597809D01*
X154501809Y-77550190D01*
X154539904Y-77454952D01*
X154539904Y-77312095D01*
X154539904Y-78074000D02*
X154006571Y-78074000D01*
X154082761Y-78074000D02*
X154044666Y-78121619D01*
X154006571Y-78216857D01*
X154006571Y-78359714D01*
X154044666Y-78454952D01*
X154120857Y-78502571D01*
X154539904Y-78502571D01*
X154120857Y-78502571D02*
X154044666Y-78550190D01*
X154006571Y-78645428D01*
X154006571Y-78788285D01*
X154044666Y-78883523D01*
X154120857Y-78931142D01*
X154539904Y-78931142D01*
X153701809Y-80121619D02*
X154730380Y-79264476D01*
X154539904Y-80454952D02*
X154006571Y-80454952D01*
X154158952Y-80454952D02*
X154082761Y-80502571D01*
X154044666Y-80550190D01*
X154006571Y-80645428D01*
X154006571Y-80740666D01*
X154539904Y-81216857D02*
X154501809Y-81121619D01*
X154463714Y-81074000D01*
X154387523Y-81026380D01*
X154158952Y-81026380D01*
X154082761Y-81074000D01*
X154044666Y-81121619D01*
X154006571Y-81216857D01*
X154006571Y-81359714D01*
X154044666Y-81454952D01*
X154082761Y-81502571D01*
X154158952Y-81550190D01*
X154387523Y-81550190D01*
X154463714Y-81502571D01*
X154501809Y-81454952D01*
X154539904Y-81359714D01*
X154539904Y-81216857D01*
X154501809Y-82407333D02*
X154539904Y-82312095D01*
X154539904Y-82121619D01*
X154501809Y-82026380D01*
X154463714Y-81978761D01*
X154387523Y-81931142D01*
X154158952Y-81931142D01*
X154082761Y-81978761D01*
X154044666Y-82026380D01*
X154006571Y-82121619D01*
X154006571Y-82312095D01*
X154044666Y-82407333D01*
X154539904Y-82835904D02*
X153739904Y-82835904D01*
X154235142Y-82931142D02*
X154539904Y-83216857D01*
X154006571Y-83216857D02*
X154311333Y-82835904D01*
X154539904Y-83788285D02*
X154501809Y-83693047D01*
X154463714Y-83645428D01*
X154387523Y-83597809D01*
X154158952Y-83597809D01*
X154082761Y-83645428D01*
X154044666Y-83693047D01*
X154006571Y-83788285D01*
X154006571Y-83931142D01*
X154044666Y-84026380D01*
X154082761Y-84073999D01*
X154158952Y-84121619D01*
X154387523Y-84121619D01*
X154463714Y-84073999D01*
X154501809Y-84026380D01*
X154539904Y-83931142D01*
X154539904Y-83788285D01*
X154539904Y-84693047D02*
X154501809Y-84597809D01*
X154425619Y-84550190D01*
X153739904Y-84550190D01*
X154539904Y-85502571D02*
X154120857Y-85502571D01*
X154044666Y-85454952D01*
X154006571Y-85359714D01*
X154006571Y-85169238D01*
X154044666Y-85074000D01*
X154501809Y-85502571D02*
X154539904Y-85407333D01*
X154539904Y-85169238D01*
X154501809Y-85074000D01*
X154425619Y-85026380D01*
X154349428Y-85026380D01*
X154273238Y-85074000D01*
X154235142Y-85169238D01*
X154235142Y-85407333D01*
X154197047Y-85502571D01*
X153701809Y-86693047D02*
X154730380Y-85835904D01*
X154006571Y-87454952D02*
X154654190Y-87454952D01*
X154730380Y-87407333D01*
X154768476Y-87359714D01*
X154806571Y-87264476D01*
X154806571Y-87121619D01*
X154768476Y-87026380D01*
X154501809Y-87454952D02*
X154539904Y-87359714D01*
X154539904Y-87169238D01*
X154501809Y-87073999D01*
X154463714Y-87026380D01*
X154387523Y-86978761D01*
X154158952Y-86978761D01*
X154082761Y-87026380D01*
X154044666Y-87073999D01*
X154006571Y-87169238D01*
X154006571Y-87359714D01*
X154044666Y-87454952D01*
X154006571Y-88359714D02*
X154539904Y-88359714D01*
X154006571Y-87931142D02*
X154425619Y-87931142D01*
X154501809Y-87978761D01*
X154539904Y-88073999D01*
X154539904Y-88216857D01*
X154501809Y-88312095D01*
X154463714Y-88359714D01*
X154539904Y-89264476D02*
X154120857Y-89264476D01*
X154044666Y-89216857D01*
X154006571Y-89121619D01*
X154006571Y-88931142D01*
X154044666Y-88835904D01*
X154501809Y-89264476D02*
X154539904Y-89169238D01*
X154539904Y-88931142D01*
X154501809Y-88835904D01*
X154425619Y-88788285D01*
X154349428Y-88788285D01*
X154273238Y-88835904D01*
X154235142Y-88931142D01*
X154235142Y-89169238D01*
X154197047Y-89264476D01*
X154006571Y-89740666D02*
X154539904Y-89740666D01*
X154082761Y-89740666D02*
X154044666Y-89788285D01*
X154006571Y-89883523D01*
X154006571Y-90026380D01*
X154044666Y-90121619D01*
X154120857Y-90169238D01*
X154539904Y-90169238D01*
X154539904Y-91073999D02*
X154120857Y-91073999D01*
X154044666Y-91026380D01*
X154006571Y-90931142D01*
X154006571Y-90740666D01*
X154044666Y-90645428D01*
X154501809Y-91073999D02*
X154539904Y-90978761D01*
X154539904Y-90740666D01*
X154501809Y-90645428D01*
X154425619Y-90597809D01*
X154349428Y-90597809D01*
X154273238Y-90645428D01*
X154235142Y-90740666D01*
X154235142Y-90978761D01*
X154197047Y-91073999D01*
X154501809Y-91978761D02*
X154539904Y-91883523D01*
X154539904Y-91693047D01*
X154501809Y-91597809D01*
X154463714Y-91550190D01*
X154387523Y-91502571D01*
X154158952Y-91502571D01*
X154082761Y-91550190D01*
X154044666Y-91597809D01*
X154006571Y-91693047D01*
X154006571Y-91883523D01*
X154044666Y-91978761D01*
X154539904Y-92550190D02*
X154501809Y-92454952D01*
X154463714Y-92407333D01*
X154387523Y-92359714D01*
X154158952Y-92359714D01*
X154082761Y-92407333D01*
X154044666Y-92454952D01*
X154006571Y-92550190D01*
X154006571Y-92693047D01*
X154044666Y-92788285D01*
X154082761Y-92835904D01*
X154158952Y-92883523D01*
X154387523Y-92883523D01*
X154463714Y-92835904D01*
X154501809Y-92788285D01*
X154539904Y-92693047D01*
X154539904Y-92550190D01*
X154235142Y-93312095D02*
X154235142Y-94073999D01*
X154539904Y-94550190D02*
X154006571Y-94550190D01*
X154158952Y-94550190D02*
X154082761Y-94597809D01*
X154044666Y-94645428D01*
X154006571Y-94740666D01*
X154006571Y-94835904D01*
X154539904Y-95312095D02*
X154501809Y-95216857D01*
X154463714Y-95169238D01*
X154387523Y-95121619D01*
X154158952Y-95121619D01*
X154082761Y-95169238D01*
X154044666Y-95216857D01*
X154006571Y-95312095D01*
X154006571Y-95454952D01*
X154044666Y-95550190D01*
X154082761Y-95597809D01*
X154158952Y-95645428D01*
X154387523Y-95645428D01*
X154463714Y-95597809D01*
X154501809Y-95550190D01*
X154539904Y-95454952D01*
X154539904Y-95312095D01*
X154006571Y-96073999D02*
X154692285Y-96073999D01*
X154768476Y-96026380D01*
X154806571Y-95931142D01*
X154806571Y-95883523D01*
X153739904Y-96073999D02*
X153778000Y-96026380D01*
X153816095Y-96073999D01*
X153778000Y-96121619D01*
X153739904Y-96073999D01*
X153816095Y-96073999D01*
X154539904Y-96693047D02*
X154501809Y-96597809D01*
X154463714Y-96550190D01*
X154387523Y-96502571D01*
X154158952Y-96502571D01*
X154082761Y-96550190D01*
X154044666Y-96597809D01*
X154006571Y-96693047D01*
X154006571Y-96835904D01*
X154044666Y-96931142D01*
X154082761Y-96978761D01*
X154158952Y-97026380D01*
X154387523Y-97026380D01*
X154463714Y-96978761D01*
X154501809Y-96931142D01*
X154539904Y-96835904D01*
X154539904Y-96693047D01*
X143890857Y-91894571D02*
X143700380Y-92427904D01*
X143509904Y-91894571D01*
X143052761Y-91627904D02*
X142976571Y-91627904D01*
X142900380Y-91666000D01*
X142862285Y-91704095D01*
X142824190Y-91780285D01*
X142786095Y-91932666D01*
X142786095Y-92123142D01*
X142824190Y-92275523D01*
X142862285Y-92351714D01*
X142900380Y-92389809D01*
X142976571Y-92427904D01*
X143052761Y-92427904D01*
X143128952Y-92389809D01*
X143167047Y-92351714D01*
X143205142Y-92275523D01*
X143243238Y-92123142D01*
X143243238Y-91932666D01*
X143205142Y-91780285D01*
X143167047Y-91704095D01*
X143128952Y-91666000D01*
X143052761Y-91627904D01*
X142443238Y-92351714D02*
X142405142Y-92389809D01*
X142443238Y-92427904D01*
X142481333Y-92389809D01*
X142443238Y-92351714D01*
X142443238Y-92427904D01*
X142138476Y-91627904D02*
X141643238Y-91627904D01*
X141909904Y-91932666D01*
X141795619Y-91932666D01*
X141719428Y-91970761D01*
X141681333Y-92008857D01*
X141643238Y-92085047D01*
X141643238Y-92275523D01*
X141681333Y-92351714D01*
X141719428Y-92389809D01*
X141795619Y-92427904D01*
X142024190Y-92427904D01*
X142100380Y-92389809D01*
X142138476Y-92351714D01*
X146633714Y-92992095D02*
X146595619Y-92954000D01*
X146519428Y-92915904D01*
X146328952Y-92915904D01*
X146252761Y-92954000D01*
X146214666Y-92992095D01*
X146176571Y-93068285D01*
X146176571Y-93144476D01*
X146214666Y-93258761D01*
X146671809Y-93715904D01*
X146176571Y-93715904D01*
X145681333Y-92915904D02*
X145605142Y-92915904D01*
X145528952Y-92954000D01*
X145490857Y-92992095D01*
X145452761Y-93068285D01*
X145414666Y-93220666D01*
X145414666Y-93411142D01*
X145452761Y-93563523D01*
X145490857Y-93639714D01*
X145528952Y-93677809D01*
X145605142Y-93715904D01*
X145681333Y-93715904D01*
X145757523Y-93677809D01*
X145795619Y-93639714D01*
X145833714Y-93563523D01*
X145871809Y-93411142D01*
X145871809Y-93220666D01*
X145833714Y-93068285D01*
X145795619Y-92992095D01*
X145757523Y-92954000D01*
X145681333Y-92915904D01*
X145109904Y-92992095D02*
X145071809Y-92954000D01*
X144995619Y-92915904D01*
X144805142Y-92915904D01*
X144728952Y-92954000D01*
X144690857Y-92992095D01*
X144652761Y-93068285D01*
X144652761Y-93144476D01*
X144690857Y-93258761D01*
X145148000Y-93715904D01*
X144652761Y-93715904D01*
X144157523Y-92915904D02*
X144081333Y-92915904D01*
X144005142Y-92954000D01*
X143967047Y-92992095D01*
X143928952Y-93068285D01*
X143890857Y-93220666D01*
X143890857Y-93411142D01*
X143928952Y-93563523D01*
X143967047Y-93639714D01*
X144005142Y-93677809D01*
X144081333Y-93715904D01*
X144157523Y-93715904D01*
X144233714Y-93677809D01*
X144271809Y-93639714D01*
X144309904Y-93563523D01*
X144348000Y-93411142D01*
X144348000Y-93220666D01*
X144309904Y-93068285D01*
X144271809Y-92992095D01*
X144233714Y-92954000D01*
X144157523Y-92915904D01*
X143548000Y-93411142D02*
X142938476Y-93411142D01*
X142405142Y-92915904D02*
X142328952Y-92915904D01*
X142252761Y-92954000D01*
X142214666Y-92992095D01*
X142176571Y-93068285D01*
X142138476Y-93220666D01*
X142138476Y-93411142D01*
X142176571Y-93563523D01*
X142214666Y-93639714D01*
X142252761Y-93677809D01*
X142328952Y-93715904D01*
X142405142Y-93715904D01*
X142481333Y-93677809D01*
X142519428Y-93639714D01*
X142557523Y-93563523D01*
X142595619Y-93411142D01*
X142595619Y-93220666D01*
X142557523Y-93068285D01*
X142519428Y-92992095D01*
X142481333Y-92954000D01*
X142405142Y-92915904D01*
X141871809Y-92915904D02*
X141376571Y-92915904D01*
X141643238Y-93220666D01*
X141528952Y-93220666D01*
X141452761Y-93258761D01*
X141414666Y-93296857D01*
X141376571Y-93373047D01*
X141376571Y-93563523D01*
X141414666Y-93639714D01*
X141452761Y-93677809D01*
X141528952Y-93715904D01*
X141757523Y-93715904D01*
X141833714Y-93677809D01*
X141871809Y-93639714D01*
X141033714Y-93411142D02*
X140424190Y-93411142D01*
X139624190Y-93715904D02*
X140081333Y-93715904D01*
X139852761Y-93715904D02*
X139852761Y-92915904D01*
X139928952Y-93030190D01*
X140005142Y-93106380D01*
X140081333Y-93144476D01*
X138862285Y-93715904D02*
X139319428Y-93715904D01*
X139090857Y-93715904D02*
X139090857Y-92915904D01*
X139167047Y-93030190D01*
X139243238Y-93106380D01*
X139319428Y-93144476D01*
X148153619Y-89824000D02*
X148258380Y-89766857D01*
X148415523Y-89766857D01*
X148572666Y-89824000D01*
X148677428Y-89938285D01*
X148729809Y-90052571D01*
X148782190Y-90281142D01*
X148782190Y-90452571D01*
X148729809Y-90681142D01*
X148677428Y-90795428D01*
X148572666Y-90909714D01*
X148415523Y-90966857D01*
X148310761Y-90966857D01*
X148153619Y-90909714D01*
X148101238Y-90852571D01*
X148101238Y-90452571D01*
X148310761Y-90452571D01*
X147158380Y-90166857D02*
X147158380Y-90966857D01*
X147629809Y-90166857D02*
X147629809Y-90795428D01*
X147577428Y-90909714D01*
X147472666Y-90966857D01*
X147315523Y-90966857D01*
X147210761Y-90909714D01*
X147158380Y-90852571D01*
X146163142Y-90966857D02*
X146163142Y-90338285D01*
X146215523Y-90224000D01*
X146320285Y-90166857D01*
X146529809Y-90166857D01*
X146634571Y-90224000D01*
X146163142Y-90909714D02*
X146267904Y-90966857D01*
X146529809Y-90966857D01*
X146634571Y-90909714D01*
X146686952Y-90795428D01*
X146686952Y-90681142D01*
X146634571Y-90566857D01*
X146529809Y-90509714D01*
X146267904Y-90509714D01*
X146163142Y-90452571D01*
X145639333Y-90166857D02*
X145639333Y-90966857D01*
X145639333Y-90281142D02*
X145586952Y-90224000D01*
X145482190Y-90166857D01*
X145325047Y-90166857D01*
X145220285Y-90224000D01*
X145167904Y-90338285D01*
X145167904Y-90966857D01*
X144172666Y-90966857D02*
X144172666Y-90338285D01*
X144225047Y-90224000D01*
X144329809Y-90166857D01*
X144539333Y-90166857D01*
X144644095Y-90224000D01*
X144172666Y-90909714D02*
X144277428Y-90966857D01*
X144539333Y-90966857D01*
X144644095Y-90909714D01*
X144696476Y-90795428D01*
X144696476Y-90681142D01*
X144644095Y-90566857D01*
X144539333Y-90509714D01*
X144277428Y-90509714D01*
X144172666Y-90452571D01*
X143177428Y-90909714D02*
X143282190Y-90966857D01*
X143491714Y-90966857D01*
X143596476Y-90909714D01*
X143648857Y-90852571D01*
X143701238Y-90738285D01*
X143701238Y-90395428D01*
X143648857Y-90281142D01*
X143596476Y-90224000D01*
X143491714Y-90166857D01*
X143282190Y-90166857D01*
X143177428Y-90224000D01*
X142548857Y-90966857D02*
X142653619Y-90909714D01*
X142706000Y-90852571D01*
X142758380Y-90738285D01*
X142758380Y-90395428D01*
X142706000Y-90281142D01*
X142653619Y-90224000D01*
X142548857Y-90166857D01*
X142391714Y-90166857D01*
X142286952Y-90224000D01*
X142234571Y-90281142D01*
X142182190Y-90395428D01*
X142182190Y-90738285D01*
X142234571Y-90852571D01*
X142286952Y-90909714D01*
X142391714Y-90966857D01*
X142548857Y-90966857D01*
X140244095Y-90966857D02*
X140610761Y-90395428D01*
X140872666Y-90966857D02*
X140872666Y-89766857D01*
X140453619Y-89766857D01*
X140348857Y-89824000D01*
X140296476Y-89881142D01*
X140244095Y-89995428D01*
X140244095Y-90166857D01*
X140296476Y-90281142D01*
X140348857Y-90338285D01*
X140453619Y-90395428D01*
X140872666Y-90395428D01*
X139615523Y-90966857D02*
X139720285Y-90909714D01*
X139772666Y-90852571D01*
X139825047Y-90738285D01*
X139825047Y-90395428D01*
X139772666Y-90281142D01*
X139720285Y-90224000D01*
X139615523Y-90166857D01*
X139458380Y-90166857D01*
X139353619Y-90224000D01*
X139301238Y-90281142D01*
X139248857Y-90395428D01*
X139248857Y-90738285D01*
X139301238Y-90852571D01*
X139353619Y-90909714D01*
X139458380Y-90966857D01*
X139615523Y-90966857D01*
X138777428Y-90166857D02*
X138777428Y-91195428D01*
X138829809Y-91309714D01*
X138934571Y-91366857D01*
X138986952Y-91366857D01*
X138777428Y-89766857D02*
X138829809Y-89824000D01*
X138777428Y-89881142D01*
X138725047Y-89824000D01*
X138777428Y-89766857D01*
X138777428Y-89881142D01*
X138096476Y-90966857D02*
X138201238Y-90909714D01*
X138253619Y-90852571D01*
X138306000Y-90738285D01*
X138306000Y-90395428D01*
X138253619Y-90281142D01*
X138201238Y-90224000D01*
X138096476Y-90166857D01*
X137939333Y-90166857D01*
X137834571Y-90224000D01*
X137782190Y-90281142D01*
X137729809Y-90395428D01*
X137729809Y-90738285D01*
X137782190Y-90852571D01*
X137834571Y-90909714D01*
X137939333Y-90966857D01*
X138096476Y-90966857D01*
X151550285Y-62807904D02*
X151216952Y-63607904D01*
X150883619Y-62807904D01*
X150407428Y-63607904D02*
X150502666Y-63569809D01*
X150550285Y-63531714D01*
X150597904Y-63455523D01*
X150597904Y-63226952D01*
X150550285Y-63150761D01*
X150502666Y-63112666D01*
X150407428Y-63074571D01*
X150264571Y-63074571D01*
X150169333Y-63112666D01*
X150121714Y-63150761D01*
X150074095Y-63226952D01*
X150074095Y-63455523D01*
X150121714Y-63531714D01*
X150169333Y-63569809D01*
X150264571Y-63607904D01*
X150407428Y-63607904D01*
X149502666Y-63607904D02*
X149597904Y-63569809D01*
X149645523Y-63493619D01*
X149645523Y-62807904D01*
X148407428Y-63379333D02*
X147931238Y-63379333D01*
X148502666Y-63607904D02*
X148169333Y-62807904D01*
X147836000Y-63607904D01*
X146978857Y-63607904D02*
X147550285Y-63607904D01*
X147264571Y-63607904D02*
X147264571Y-62807904D01*
X147359809Y-62922190D01*
X147455047Y-62998380D01*
X147550285Y-63036476D01*
X146359809Y-62807904D02*
X146264571Y-62807904D01*
X146169333Y-62846000D01*
X146121714Y-62884095D01*
X146074095Y-62960285D01*
X146026476Y-63112666D01*
X146026476Y-63303142D01*
X146074095Y-63455523D01*
X146121714Y-63531714D01*
X146169333Y-63569809D01*
X146264571Y-63607904D01*
X146359809Y-63607904D01*
X146455047Y-63569809D01*
X146502666Y-63531714D01*
X146550285Y-63455523D01*
X146597904Y-63303142D01*
X146597904Y-63112666D01*
X146550285Y-62960285D01*
X146502666Y-62884095D01*
X146455047Y-62846000D01*
X146359809Y-62807904D01*
X145597904Y-63607904D02*
X145597904Y-62807904D01*
X145502666Y-63303142D02*
X145216952Y-63607904D01*
X145216952Y-63074571D02*
X145597904Y-63379333D01*
X134889523Y-62846000D02*
X134984761Y-62807904D01*
X135127619Y-62807904D01*
X135270476Y-62846000D01*
X135365714Y-62922190D01*
X135413333Y-62998380D01*
X135460952Y-63150761D01*
X135460952Y-63265047D01*
X135413333Y-63417428D01*
X135365714Y-63493619D01*
X135270476Y-63569809D01*
X135127619Y-63607904D01*
X135032380Y-63607904D01*
X134889523Y-63569809D01*
X134841904Y-63531714D01*
X134841904Y-63265047D01*
X135032380Y-63265047D01*
X133984761Y-63607904D02*
X133984761Y-63188857D01*
X134032380Y-63112666D01*
X134127619Y-63074571D01*
X134318095Y-63074571D01*
X134413333Y-63112666D01*
X133984761Y-63569809D02*
X134080000Y-63607904D01*
X134318095Y-63607904D01*
X134413333Y-63569809D01*
X134460952Y-63493619D01*
X134460952Y-63417428D01*
X134413333Y-63341238D01*
X134318095Y-63303142D01*
X134080000Y-63303142D01*
X133984761Y-63265047D01*
X133508571Y-63607904D02*
X133508571Y-63074571D01*
X133508571Y-62807904D02*
X133556190Y-62846000D01*
X133508571Y-62884095D01*
X133460952Y-62846000D01*
X133508571Y-62807904D01*
X133508571Y-62884095D01*
X133032380Y-63074571D02*
X133032380Y-63607904D01*
X133032380Y-63150761D02*
X132984761Y-63112666D01*
X132889523Y-63074571D01*
X132746666Y-63074571D01*
X132651428Y-63112666D01*
X132603809Y-63188857D01*
X132603809Y-63607904D01*
X131032380Y-63188857D02*
X130889523Y-63226952D01*
X130841904Y-63265047D01*
X130794285Y-63341238D01*
X130794285Y-63455523D01*
X130841904Y-63531714D01*
X130889523Y-63569809D01*
X130984761Y-63607904D01*
X131365714Y-63607904D01*
X131365714Y-62807904D01*
X131032380Y-62807904D01*
X130937142Y-62846000D01*
X130889523Y-62884095D01*
X130841904Y-62960285D01*
X130841904Y-63036476D01*
X130889523Y-63112666D01*
X130937142Y-63150761D01*
X131032380Y-63188857D01*
X131365714Y-63188857D01*
X129841904Y-63607904D02*
X130413333Y-63607904D01*
X130127619Y-63607904D02*
X130127619Y-62807904D01*
X130222857Y-62922190D01*
X130318095Y-62998380D01*
X130413333Y-63036476D01*
X129413333Y-63607904D02*
X129413333Y-62807904D01*
X129080000Y-63379333D01*
X128746666Y-62807904D01*
X128746666Y-63607904D01*
D11*
X128016000Y-80264000D02*
X128016000Y-75184000D01*
X125476000Y-75184000D02*
X125476000Y-80264000D01*
X125476000Y-80264000D02*
X128016000Y-80264000D01*
X125476000Y-75184000D02*
X128016000Y-75184000D01*
X129286000Y-75184000D02*
X129286000Y-80264000D01*
X128016000Y-80264000D02*
X129286000Y-80264000D01*
X128016000Y-75184000D02*
X129286000Y-75184000D01*
X137668000Y-65405000D02*
X137668000Y-64135000D01*
X142748000Y-65405000D02*
X142748000Y-64135000D01*
X137668000Y-65405000D02*
X142748000Y-65405000D01*
X137668000Y-64135000D02*
X137668000Y-61595000D01*
X142748000Y-64135000D02*
X142748000Y-61595000D01*
X137668000Y-64135000D02*
X142748000Y-64135000D01*
X142748000Y-61595000D02*
X137668000Y-61595000D01*
X151511000Y-66914000D02*
G75*
G03*
X151511000Y-66914000I-3175000J0D01*
G01*
X143891000Y-61849000D02*
X152781000Y-61849000D01*
X152781000Y-61849000D02*
X153416000Y-62484000D01*
X143256000Y-62484000D02*
X143891000Y-61849000D01*
X143256000Y-71628000D02*
X144272000Y-72644000D01*
X147971000Y-66914000D02*
X148701000Y-66914000D01*
X148336000Y-66549000D02*
X148336000Y-67279000D01*
X144272000Y-72644000D02*
X152400000Y-72644000D01*
X152400000Y-72644000D02*
X152400000Y-75184000D01*
X152400000Y-75184000D02*
X144272000Y-75184000D01*
X144272000Y-75184000D02*
X144272000Y-72644000D01*
X148971000Y-66929000D02*
G75*
G03*
X148971000Y-66929000I-635000J0D01*
G01*
X143256000Y-62484000D02*
X143256000Y-65659000D01*
X143256000Y-71628000D02*
X143256000Y-68199000D01*
X153416000Y-62484000D02*
X153416000Y-65659000D01*
X153416000Y-71628000D02*
X153416000Y-68199000D01*
X152400000Y-72644000D02*
X153416000Y-71628000D01*
G36*
X150114000Y-62611000D02*
G01*
X146558000Y-62611000D01*
X146558000Y-62230000D01*
X150114000Y-62230000D01*
X150114000Y-62611000D01*
G37*
G36*
X150114000Y-71628000D02*
G01*
X146558000Y-71628000D01*
X146558000Y-71247000D01*
X150114000Y-71247000D01*
X150114000Y-71628000D01*
G37*
X135255000Y-66914000D02*
G75*
G03*
X135255000Y-66914000I-3175000J0D01*
G01*
X127635000Y-61849000D02*
X136525000Y-61849000D01*
X136525000Y-61849000D02*
X137160000Y-62484000D01*
X127000000Y-62484000D02*
X127635000Y-61849000D01*
X127000000Y-71628000D02*
X128016000Y-72644000D01*
X131715000Y-66914000D02*
X132445000Y-66914000D01*
X132080000Y-66549000D02*
X132080000Y-67279000D01*
X128016000Y-72644000D02*
X136144000Y-72644000D01*
X136144000Y-72644000D02*
X136144000Y-75184000D01*
X136144000Y-75184000D02*
X128016000Y-75184000D01*
X128016000Y-75184000D02*
X128016000Y-72644000D01*
X132715000Y-66929000D02*
G75*
G03*
X132715000Y-66929000I-635000J0D01*
G01*
X127000000Y-62484000D02*
X127000000Y-65659000D01*
X127000000Y-71628000D02*
X127000000Y-68199000D01*
X137160000Y-62484000D02*
X137160000Y-65659000D01*
X137160000Y-71628000D02*
X137160000Y-68199000D01*
X136144000Y-72644000D02*
X137160000Y-71628000D01*
G36*
X133858000Y-62611000D02*
G01*
X130302000Y-62611000D01*
X130302000Y-62230000D01*
X133858000Y-62230000D01*
X133858000Y-62611000D01*
G37*
G36*
X133858000Y-71628000D02*
G01*
X130302000Y-71628000D01*
X130302000Y-71247000D01*
X133858000Y-71247000D01*
X133858000Y-71628000D01*
G37*
X147574000Y-98552000D02*
X137414000Y-98552000D01*
X137414000Y-101092000D02*
X147574000Y-101092000D01*
X147574000Y-101092000D02*
X147574000Y-98552000D01*
X137414000Y-101092000D02*
X137414000Y-98552000D01*
X137414000Y-97282000D02*
X147574000Y-97282000D01*
X147574000Y-98552000D02*
X147574000Y-97282000D01*
X137414000Y-98552000D02*
X137414000Y-97282000D01*
D12*
X137345000Y-75946462D02*
G75*
G02*
X142895000Y-74401170I2990000J462D01*
G01*
X137345000Y-75945538D02*
G75*
G03*
X142895000Y-77490830I2990000J-462D01*
G01*
X142835000Y-75946000D02*
G75*
G03*
X142835000Y-75946000I-2500000J0D01*
G01*
X142895000Y-74401000D02*
X142895000Y-77491000D01*
D10*
X129089095Y-77088904D02*
X128289095Y-76822238D01*
X129089095Y-76555571D01*
X128593857Y-76288904D02*
X128593857Y-75679380D01*
X128289095Y-75984142D02*
X128898619Y-75984142D01*
X129051000Y-79476523D02*
X129089095Y-79552714D01*
X129089095Y-79667000D01*
X129051000Y-79781285D01*
X128974809Y-79857476D01*
X128898619Y-79895571D01*
X128746238Y-79933666D01*
X128631952Y-79933666D01*
X128479571Y-79895571D01*
X128403380Y-79857476D01*
X128327190Y-79781285D01*
X128289095Y-79667000D01*
X128289095Y-79590809D01*
X128327190Y-79476523D01*
X128365285Y-79438428D01*
X128631952Y-79438428D01*
X128631952Y-79590809D01*
X128289095Y-79095571D02*
X129089095Y-79095571D01*
X128289095Y-78638428D01*
X129089095Y-78638428D01*
X128289095Y-78257476D02*
X129089095Y-78257476D01*
X129089095Y-78067000D01*
X129051000Y-77952714D01*
X128974809Y-77876523D01*
X128898619Y-77838428D01*
X128746238Y-77800333D01*
X128631952Y-77800333D01*
X128479571Y-77838428D01*
X128403380Y-77876523D01*
X128327190Y-77952714D01*
X128289095Y-78067000D01*
X128289095Y-78257476D01*
X141960523Y-64370000D02*
X142036714Y-64331904D01*
X142151000Y-64331904D01*
X142265285Y-64370000D01*
X142341476Y-64446190D01*
X142379571Y-64522380D01*
X142417666Y-64674761D01*
X142417666Y-64789047D01*
X142379571Y-64941428D01*
X142341476Y-65017619D01*
X142265285Y-65093809D01*
X142151000Y-65131904D01*
X142074809Y-65131904D01*
X141960523Y-65093809D01*
X141922428Y-65055714D01*
X141922428Y-64789047D01*
X142074809Y-64789047D01*
X141579571Y-65131904D02*
X141579571Y-64331904D01*
X141122428Y-65131904D01*
X141122428Y-64331904D01*
X140741476Y-65131904D02*
X140741476Y-64331904D01*
X140551000Y-64331904D01*
X140436714Y-64370000D01*
X140360523Y-64446190D01*
X140322428Y-64522380D01*
X140284333Y-64674761D01*
X140284333Y-64789047D01*
X140322428Y-64941428D01*
X140360523Y-65017619D01*
X140436714Y-65093809D01*
X140551000Y-65131904D01*
X140741476Y-65131904D01*
X139572904Y-64331904D02*
X139306238Y-65131904D01*
X139039571Y-64331904D01*
X138772904Y-64827142D02*
X138163380Y-64827142D01*
X138468142Y-65131904D02*
X138468142Y-64522380D01*
D13*
X144665569Y-71910302D02*
X144307066Y-71910302D01*
X144500106Y-72130920D01*
X144417375Y-72130920D01*
X144362220Y-72158497D01*
X144334643Y-72186074D01*
X144307066Y-72241228D01*
X144307066Y-72379114D01*
X144334643Y-72434268D01*
X144362220Y-72461845D01*
X144417375Y-72489422D01*
X144582837Y-72489422D01*
X144637992Y-72461845D01*
X144665569Y-72434268D01*
X128409569Y-71910302D02*
X128051066Y-71910302D01*
X128244106Y-72130920D01*
X128161375Y-72130920D01*
X128106220Y-72158497D01*
X128078643Y-72186074D01*
X128051066Y-72241228D01*
X128051066Y-72379114D01*
X128078643Y-72434268D01*
X128106220Y-72461845D01*
X128161375Y-72489422D01*
X128326837Y-72489422D01*
X128381992Y-72461845D01*
X128409569Y-72434268D01*
D10*
X139103047Y-98278904D02*
X139103047Y-97478904D01*
X138722095Y-98278904D02*
X138722095Y-97478904D01*
X138264952Y-98278904D01*
X138264952Y-97478904D01*
X141833523Y-97517000D02*
X141909714Y-97478904D01*
X142024000Y-97478904D01*
X142138285Y-97517000D01*
X142214476Y-97593190D01*
X142252571Y-97669380D01*
X142290666Y-97821761D01*
X142290666Y-97936047D01*
X142252571Y-98088428D01*
X142214476Y-98164619D01*
X142138285Y-98240809D01*
X142024000Y-98278904D01*
X141947809Y-98278904D01*
X141833523Y-98240809D01*
X141795428Y-98202714D01*
X141795428Y-97936047D01*
X141947809Y-97936047D01*
X141452571Y-98278904D02*
X141452571Y-97478904D01*
X140995428Y-98278904D01*
X140995428Y-97478904D01*
X140614476Y-98278904D02*
X140614476Y-97478904D01*
X140424000Y-97478904D01*
X140309714Y-97517000D01*
X140233523Y-97593190D01*
X140195428Y-97669380D01*
X140157333Y-97821761D01*
X140157333Y-97936047D01*
X140195428Y-98088428D01*
X140233523Y-98164619D01*
X140309714Y-98240809D01*
X140424000Y-98278904D01*
X140614476Y-98278904D01*
X144449714Y-98240809D02*
X144335428Y-98278904D01*
X144144952Y-98278904D01*
X144068761Y-98240809D01*
X144030666Y-98202714D01*
X143992571Y-98126523D01*
X143992571Y-98050333D01*
X144030666Y-97974142D01*
X144068761Y-97936047D01*
X144144952Y-97897952D01*
X144297333Y-97859857D01*
X144373523Y-97821761D01*
X144411619Y-97783666D01*
X144449714Y-97707476D01*
X144449714Y-97631285D01*
X144411619Y-97555095D01*
X144373523Y-97517000D01*
X144297333Y-97478904D01*
X144106857Y-97478904D01*
X143992571Y-97517000D01*
X143725904Y-97478904D02*
X143535428Y-98278904D01*
X143383047Y-97707476D01*
X143230666Y-98278904D01*
X143040190Y-97478904D01*
X147104000Y-97478904D02*
X146951619Y-97478904D01*
X146875428Y-97517000D01*
X146799238Y-97593190D01*
X146761142Y-97745571D01*
X146761142Y-98012238D01*
X146799238Y-98164619D01*
X146875428Y-98240809D01*
X146951619Y-98278904D01*
X147104000Y-98278904D01*
X147180190Y-98240809D01*
X147256380Y-98164619D01*
X147294476Y-98012238D01*
X147294476Y-97745571D01*
X147256380Y-97593190D01*
X147180190Y-97517000D01*
X147104000Y-97478904D01*
X146418285Y-97478904D02*
X146418285Y-98126523D01*
X146380190Y-98202714D01*
X146342095Y-98240809D01*
X146265904Y-98278904D01*
X146113523Y-98278904D01*
X146037333Y-98240809D01*
X145999238Y-98202714D01*
X145961142Y-98126523D01*
X145961142Y-97478904D01*
X145694476Y-97478904D02*
X145237333Y-97478904D01*
X145465904Y-98278904D02*
X145465904Y-97478904D01*
X140977857Y-72207380D02*
X141454047Y-72207380D01*
X141454047Y-71207380D01*
X140644523Y-71683571D02*
X140311190Y-71683571D01*
X140168333Y-72207380D02*
X140644523Y-72207380D01*
X140644523Y-71207380D01*
X140168333Y-71207380D01*
X139739761Y-72207380D02*
X139739761Y-71207380D01*
X139501666Y-71207380D01*
X139358809Y-71255000D01*
X139263571Y-71350238D01*
X139215952Y-71445476D01*
X139168333Y-71635952D01*
X139168333Y-71778809D01*
X139215952Y-71969285D01*
X139263571Y-72064523D01*
X139358809Y-72159761D01*
X139501666Y-72207380D01*
X139739761Y-72207380D01*
M02*
