G04 #@! TF.GenerationSoftware,KiCad,Pcbnew,(5.99.0-1097-g51b994466)*
G04 #@! TF.CreationDate,2020-03-11T16:34:53+02:00*
G04 #@! TF.ProjectId,guanaco-rojo,6775616e-6163-46f2-9d72-6f6a6f2e6b69,rev?*
G04 #@! TF.SameCoordinates,Original*
G04 #@! TF.FileFunction,Soldermask,Bot*
G04 #@! TF.FilePolarity,Negative*
%FSLAX46Y46*%
G04 Gerber Fmt 4.6, Leading zero omitted, Abs format (unit mm)*
G04 Created by KiCad (PCBNEW (5.99.0-1097-g51b994466)) date 2020-03-11 16:34:53*
%MOMM*%
%LPD*%
G01*
G04 APERTURE LIST*
%ADD10O,1.930400X1.930400*%
%ADD11R,1.930400X1.930400*%
%ADD12O,2.250000X2.250000*%
%ADD13C,1.800000*%
%ADD14R,1.800000X1.800000*%
%ADD15C,1.600000*%
%ADD16O,1.600000X1.600000*%
%ADD17O,2.200000X2.200000*%
%ADD18R,2.200000X2.200000*%
%ADD19R,1.600000X1.600000*%
G04 APERTURE END LIST*
D10*
X126746000Y-78994000D03*
D11*
X126746000Y-76454000D03*
D10*
X141478000Y-62865000D03*
D11*
X138938000Y-62865000D03*
D12*
X153336000Y-66914000D03*
X143336000Y-66914000D03*
D10*
X145796000Y-73914000D03*
X148336000Y-73914000D03*
D11*
X150876000Y-73914000D03*
D12*
X137080000Y-66914000D03*
X127080000Y-66914000D03*
D10*
X129540000Y-73914000D03*
X132080000Y-73914000D03*
D11*
X134620000Y-73914000D03*
D10*
X146304000Y-99822000D03*
X143764000Y-99822000D03*
X141224000Y-99822000D03*
D11*
X138684000Y-99822000D03*
D13*
X139065000Y-75946000D03*
D14*
X141605000Y-75946000D03*
D15*
X135048000Y-83820000D03*
X130048000Y-83820000D03*
D16*
X148844000Y-87884000D03*
D15*
X148844000Y-95504000D03*
D16*
X128270000Y-70358000D03*
D15*
X135890000Y-70358000D03*
D16*
X128524000Y-93218000D03*
D15*
X136144000Y-93218000D03*
D16*
X128524000Y-86868000D03*
D15*
X136144000Y-86868000D03*
D16*
X128524000Y-99822000D03*
D15*
X136144000Y-99822000D03*
D16*
X128524000Y-96520000D03*
D15*
X136144000Y-96520000D03*
D16*
X144526000Y-70358000D03*
D15*
X152146000Y-70358000D03*
D17*
X144780000Y-77470000D03*
D18*
X152400000Y-77470000D03*
D15*
X140208000Y-81574000D03*
D19*
X140208000Y-84074000D03*
D15*
X131144000Y-89916000D03*
X136144000Y-89916000D03*
X130636000Y-77216000D03*
X135636000Y-77216000D03*
X135556000Y-80518000D03*
X130556000Y-80518000D03*
X147320000Y-81574000D03*
D19*
X147320000Y-84074000D03*
M02*
