G04 #@! TF.GenerationSoftware,KiCad,Pcbnew,(5.99.0-1097-g51b994466)*
G04 #@! TF.CreationDate,2020-03-11T16:34:52+02:00*
G04 #@! TF.ProjectId,guanaco-rojo,6775616e-6163-46f2-9d72-6f6a6f2e6b69,rev?*
G04 #@! TF.SameCoordinates,Original*
G04 #@! TF.FileFunction,Copper,L2,Bot*
G04 #@! TF.FilePolarity,Positive*
%FSLAX46Y46*%
G04 Gerber Fmt 4.6, Leading zero omitted, Abs format (unit mm)*
G04 Created by KiCad (PCBNEW (5.99.0-1097-g51b994466)) date 2020-03-11 16:34:52*
%MOMM*%
%LPD*%
G01*
G04 APERTURE LIST*
%ADD10O,1.930400X1.930400*%
%ADD11R,1.930400X1.930400*%
%ADD12O,2.250000X2.250000*%
%ADD13C,1.800000*%
%ADD14R,1.800000X1.800000*%
%ADD15C,1.600000*%
%ADD16O,1.600000X1.600000*%
%ADD17O,2.200000X2.200000*%
%ADD18R,2.200000X2.200000*%
%ADD19R,1.600000X1.600000*%
%ADD20C,0.381000*%
%ADD21C,0.254000*%
G04 APERTURE END LIST*
D10*
X126746000Y-78994000D03*
D11*
X126746000Y-76454000D03*
D10*
X141478000Y-62865000D03*
D11*
X138938000Y-62865000D03*
D12*
X153336000Y-66914000D03*
X143336000Y-66914000D03*
D10*
X145796000Y-73914000D03*
X148336000Y-73914000D03*
D11*
X150876000Y-73914000D03*
D12*
X137080000Y-66914000D03*
X127080000Y-66914000D03*
D10*
X129540000Y-73914000D03*
X132080000Y-73914000D03*
D11*
X134620000Y-73914000D03*
D10*
X146304000Y-99822000D03*
X143764000Y-99822000D03*
X141224000Y-99822000D03*
D11*
X138684000Y-99822000D03*
D13*
X139065000Y-75946000D03*
D14*
X141605000Y-75946000D03*
D15*
X135048000Y-83820000D03*
X130048000Y-83820000D03*
D16*
X148844000Y-87884000D03*
D15*
X148844000Y-95504000D03*
D16*
X128270000Y-70358000D03*
D15*
X135890000Y-70358000D03*
D16*
X128524000Y-93218000D03*
D15*
X136144000Y-93218000D03*
D16*
X128524000Y-86868000D03*
D15*
X136144000Y-86868000D03*
D16*
X128524000Y-99822000D03*
D15*
X136144000Y-99822000D03*
D16*
X128524000Y-96520000D03*
D15*
X136144000Y-96520000D03*
D16*
X144526000Y-70358000D03*
D15*
X152146000Y-70358000D03*
D17*
X144780000Y-77470000D03*
D18*
X152400000Y-77470000D03*
D15*
X140208000Y-81574000D03*
D19*
X140208000Y-84074000D03*
D15*
X131144000Y-89916000D03*
X136144000Y-89916000D03*
X130636000Y-77216000D03*
X135636000Y-77216000D03*
X135556000Y-80518000D03*
X130556000Y-80518000D03*
X147320000Y-81574000D03*
D19*
X147320000Y-84074000D03*
D20*
X143764000Y-99822000D02*
X142621000Y-98679000D01*
X142621000Y-98679000D02*
X142621000Y-78867000D01*
X142621000Y-78867000D02*
X141605000Y-77851000D01*
X141605000Y-77851000D02*
X141605000Y-75946000D01*
X130556000Y-80518000D02*
X126746000Y-84328000D01*
X126746000Y-84328000D02*
X126746000Y-98044000D01*
X126746000Y-98044000D02*
X128524000Y-99822000D01*
X136144000Y-89916000D02*
X136144000Y-93218000D01*
X148844000Y-95504000D02*
X151892000Y-92456000D01*
X151892000Y-92456000D02*
X151892000Y-81026000D01*
X151892000Y-81026000D02*
X148336000Y-77470000D01*
X148336000Y-77470000D02*
X148336000Y-73914000D01*
G36*
X137330963Y-63838458D02*
G01*
X137333119Y-63854834D01*
X137407937Y-64134059D01*
X137420680Y-64158539D01*
X137551790Y-64314790D01*
X137568679Y-64328961D01*
X137742920Y-64429559D01*
X137763637Y-64437100D01*
X137956338Y-64471078D01*
X137967299Y-64472037D01*
X139911458Y-64472037D01*
X139927834Y-64469881D01*
X140207059Y-64395063D01*
X140231539Y-64382320D01*
X140387790Y-64251210D01*
X140401961Y-64234321D01*
X140472025Y-64112966D01*
X140664148Y-64247492D01*
X140673077Y-64252710D01*
X140900874Y-64361851D01*
X140910535Y-64365540D01*
X141153306Y-64436072D01*
X141254000Y-64360469D01*
X141254000Y-63162809D01*
X141702000Y-63162809D01*
X141702000Y-64356895D01*
X141795411Y-64432538D01*
X141934045Y-64403071D01*
X141943950Y-64400099D01*
X142179128Y-64307933D01*
X142188415Y-64303384D01*
X142405382Y-64174046D01*
X142413801Y-64168041D01*
X142606730Y-64005003D01*
X142614055Y-63997703D01*
X142777766Y-63805344D01*
X142783801Y-63796946D01*
X142913895Y-63580431D01*
X142918477Y-63571161D01*
X143011463Y-63336306D01*
X143014470Y-63326411D01*
X143045529Y-63182753D01*
X142969880Y-63089000D01*
X141775809Y-63089000D01*
X141702000Y-63162809D01*
X141254000Y-63162809D01*
X141254000Y-62641000D01*
X142971741Y-62641000D01*
X143047226Y-62551990D01*
X143035174Y-62479195D01*
X143032655Y-62469166D01*
X142951253Y-62230050D01*
X142947130Y-62220566D01*
X142883555Y-62102000D01*
X154560000Y-62102000D01*
X154560000Y-65650399D01*
X154485423Y-65575822D01*
X154477894Y-65569392D01*
X154261934Y-65412488D01*
X154253492Y-65407315D01*
X154015646Y-65286126D01*
X154006499Y-65282337D01*
X153752623Y-65199847D01*
X153742995Y-65197536D01*
X153479341Y-65155778D01*
X153469470Y-65155001D01*
X153202530Y-65155001D01*
X153192659Y-65155778D01*
X152929005Y-65197536D01*
X152919377Y-65199847D01*
X152665501Y-65282337D01*
X152656354Y-65286126D01*
X152418508Y-65407315D01*
X152410066Y-65412488D01*
X152194106Y-65569392D01*
X152186577Y-65575822D01*
X151997822Y-65764577D01*
X151991392Y-65772106D01*
X151834488Y-65988066D01*
X151829315Y-65996508D01*
X151708126Y-66234354D01*
X151704337Y-66243501D01*
X151621847Y-66497377D01*
X151619536Y-66507005D01*
X151577778Y-66770659D01*
X151577001Y-66780530D01*
X151577001Y-67047470D01*
X151577778Y-67057341D01*
X151619536Y-67320995D01*
X151621847Y-67330623D01*
X151704337Y-67584499D01*
X151708126Y-67593646D01*
X151829315Y-67831492D01*
X151834488Y-67839934D01*
X151991392Y-68055894D01*
X151997822Y-68063423D01*
X152186577Y-68252178D01*
X152194106Y-68258608D01*
X152410066Y-68415512D01*
X152418508Y-68420685D01*
X152656354Y-68541874D01*
X152665501Y-68545663D01*
X152919377Y-68628153D01*
X152929005Y-68630464D01*
X153192659Y-68672222D01*
X153202530Y-68672999D01*
X153469470Y-68672999D01*
X153479341Y-68672222D01*
X153742995Y-68630464D01*
X153752623Y-68628153D01*
X154006499Y-68545663D01*
X154015646Y-68541874D01*
X154253492Y-68420685D01*
X154261934Y-68415512D01*
X154477894Y-68258608D01*
X154485423Y-68252178D01*
X154560000Y-68177601D01*
X154560001Y-100966000D01*
X147428000Y-100966000D01*
X147432730Y-100962003D01*
X147440055Y-100954703D01*
X147603766Y-100762344D01*
X147609801Y-100753946D01*
X147739895Y-100537431D01*
X147744477Y-100528161D01*
X147837463Y-100293306D01*
X147840470Y-100283411D01*
X147894011Y-100035769D01*
X147895418Y-100023969D01*
X147903385Y-99698013D01*
X147902556Y-99686158D01*
X147861175Y-99436197D01*
X147858655Y-99426167D01*
X147777253Y-99187050D01*
X147773130Y-99177566D01*
X147653767Y-98954955D01*
X147648149Y-98946271D01*
X147494031Y-98746146D01*
X147487072Y-98738497D01*
X147302337Y-98566229D01*
X147294221Y-98559819D01*
X147083832Y-98420036D01*
X147074778Y-98415038D01*
X146844383Y-98311495D01*
X146834634Y-98308043D01*
X146590423Y-98243519D01*
X146580242Y-98241706D01*
X146328770Y-98217935D01*
X146318429Y-98217808D01*
X146066451Y-98235429D01*
X146056229Y-98236993D01*
X145810513Y-98295531D01*
X145800683Y-98298743D01*
X145567827Y-98396627D01*
X145558654Y-98401402D01*
X145344912Y-98536003D01*
X145336642Y-98542212D01*
X145147754Y-98709914D01*
X145140609Y-98717391D01*
X145033627Y-98849503D01*
X144954031Y-98746146D01*
X144947072Y-98738497D01*
X144762337Y-98566229D01*
X144754221Y-98559819D01*
X144543832Y-98420036D01*
X144534778Y-98415038D01*
X144304383Y-98311495D01*
X144294634Y-98308043D01*
X144050423Y-98243519D01*
X144040242Y-98241706D01*
X143788770Y-98217935D01*
X143778429Y-98217808D01*
X143526451Y-98235429D01*
X143516229Y-98236993D01*
X143447500Y-98253366D01*
X143447500Y-88215458D01*
X147438610Y-88215458D01*
X147537502Y-88487160D01*
X147542152Y-88497132D01*
X147662088Y-88704868D01*
X147668399Y-88713881D01*
X147822587Y-88897634D01*
X147830366Y-88905413D01*
X148014119Y-89059601D01*
X148023132Y-89065912D01*
X148230868Y-89185848D01*
X148240840Y-89190498D01*
X148512541Y-89289390D01*
X148620000Y-89214147D01*
X148620000Y-89214146D01*
X149067999Y-89214146D01*
X149175458Y-89289390D01*
X149447160Y-89190498D01*
X149457132Y-89185848D01*
X149664868Y-89065912D01*
X149673881Y-89059601D01*
X149857634Y-88905413D01*
X149865413Y-88897634D01*
X150019601Y-88713881D01*
X150025912Y-88704868D01*
X150145848Y-88497132D01*
X150150498Y-88487160D01*
X150249390Y-88215459D01*
X150174147Y-88108000D01*
X149141809Y-88108000D01*
X149068000Y-88181809D01*
X149067999Y-89214146D01*
X148620000Y-89214146D01*
X148620000Y-88181809D01*
X148546191Y-88108000D01*
X147513854Y-88107999D01*
X147438610Y-88215458D01*
X143447500Y-88215458D01*
X143447500Y-87552541D01*
X147438610Y-87552541D01*
X147513853Y-87660000D01*
X148546191Y-87660000D01*
X148620000Y-87586191D01*
X148620001Y-86553854D01*
X148620000Y-86553853D01*
X149068000Y-86553853D01*
X149068000Y-87586191D01*
X149141809Y-87660000D01*
X150174146Y-87660001D01*
X150249390Y-87552542D01*
X150150498Y-87280840D01*
X150145848Y-87270868D01*
X150025912Y-87063132D01*
X150019601Y-87054119D01*
X149865413Y-86870366D01*
X149857634Y-86862587D01*
X149673881Y-86708399D01*
X149664868Y-86702088D01*
X149457132Y-86582152D01*
X149447160Y-86577502D01*
X149175459Y-86478610D01*
X149068000Y-86553853D01*
X148620000Y-86553853D01*
X148512542Y-86478610D01*
X148240840Y-86577502D01*
X148230868Y-86582152D01*
X148023132Y-86702088D01*
X148014119Y-86708399D01*
X147830366Y-86862587D01*
X147822587Y-86870366D01*
X147668399Y-87054119D01*
X147662088Y-87063132D01*
X147542152Y-87270868D01*
X147537502Y-87280840D01*
X147438610Y-87552541D01*
X143447500Y-87552541D01*
X143447500Y-83268499D01*
X145878163Y-83268499D01*
X145878163Y-84882258D01*
X145880319Y-84898634D01*
X145955137Y-85177859D01*
X145967880Y-85202339D01*
X146098990Y-85358590D01*
X146115879Y-85372761D01*
X146290120Y-85473359D01*
X146310837Y-85480900D01*
X146503538Y-85514878D01*
X146514499Y-85515837D01*
X148128258Y-85515837D01*
X148144634Y-85513681D01*
X148423859Y-85438863D01*
X148448339Y-85426120D01*
X148604590Y-85295010D01*
X148618761Y-85278121D01*
X148719359Y-85103880D01*
X148726900Y-85083163D01*
X148760878Y-84890462D01*
X148761837Y-84879501D01*
X148761837Y-83265742D01*
X148759681Y-83249366D01*
X148684863Y-82970142D01*
X148672120Y-82945662D01*
X148541010Y-82789410D01*
X148524121Y-82775239D01*
X148349880Y-82674641D01*
X148329163Y-82667100D01*
X148136462Y-82633122D01*
X148125501Y-82632163D01*
X148061378Y-82632163D01*
X147372191Y-81942974D01*
X147267809Y-81942974D01*
X146578622Y-82632163D01*
X146511742Y-82632163D01*
X146495366Y-82634319D01*
X146216142Y-82709137D01*
X146191662Y-82721880D01*
X146035410Y-82852990D01*
X146021239Y-82869879D01*
X145920641Y-83044120D01*
X145913100Y-83064837D01*
X145879122Y-83257538D01*
X145878163Y-83268499D01*
X143447500Y-83268499D01*
X143447500Y-81454064D01*
X145886000Y-81454064D01*
X145886000Y-81693936D01*
X145886959Y-81704897D01*
X145928613Y-81941126D01*
X145931460Y-81951753D01*
X146013502Y-82177160D01*
X146018152Y-82187132D01*
X146103254Y-82334532D01*
X146226463Y-82350752D01*
X146951026Y-81626191D01*
X146951026Y-81521809D01*
X147688974Y-81521809D01*
X147688974Y-81626191D01*
X148413537Y-82350752D01*
X148536746Y-82334532D01*
X148621848Y-82187132D01*
X148626498Y-82177160D01*
X148708540Y-81951753D01*
X148711387Y-81941126D01*
X148753041Y-81704897D01*
X148754000Y-81693936D01*
X148754000Y-81454064D01*
X148753041Y-81443103D01*
X148711387Y-81206874D01*
X148708540Y-81196247D01*
X148626498Y-80970840D01*
X148621848Y-80960868D01*
X148536746Y-80813468D01*
X148413537Y-80797248D01*
X147688974Y-81521809D01*
X146951026Y-81521809D01*
X146226463Y-80797248D01*
X146103254Y-80813468D01*
X146018152Y-80960868D01*
X146013502Y-80970840D01*
X145931460Y-81196247D01*
X145928613Y-81206874D01*
X145886959Y-81443103D01*
X145886000Y-81454064D01*
X143447500Y-81454064D01*
X143447500Y-80480463D01*
X146543248Y-80480463D01*
X147267809Y-81205026D01*
X147372191Y-81205026D01*
X148096752Y-80480463D01*
X148080532Y-80357254D01*
X147933132Y-80272152D01*
X147923160Y-80267502D01*
X147697753Y-80185460D01*
X147687126Y-80182613D01*
X147450897Y-80140959D01*
X147439936Y-80140000D01*
X147200064Y-80140000D01*
X147189103Y-80140959D01*
X146952874Y-80182613D01*
X146942247Y-80185460D01*
X146716840Y-80267502D01*
X146706868Y-80272152D01*
X146559468Y-80357254D01*
X146543248Y-80480463D01*
X143447500Y-80480463D01*
X143447500Y-78959590D01*
X143451297Y-78942809D01*
X143452737Y-78924914D01*
X143447500Y-78840505D01*
X143447500Y-78812222D01*
X143446863Y-78803280D01*
X143443912Y-78782674D01*
X143439200Y-78706725D01*
X143435560Y-78689146D01*
X143427202Y-78665993D01*
X143423712Y-78641623D01*
X143418673Y-78624391D01*
X143387169Y-78555102D01*
X143361264Y-78483343D01*
X143352604Y-78467176D01*
X143338565Y-78448204D01*
X143328192Y-78425388D01*
X143318519Y-78410263D01*
X143261674Y-78344291D01*
X143248913Y-78327046D01*
X143242809Y-78319962D01*
X143227644Y-78304798D01*
X143175820Y-78244653D01*
X143162291Y-78232851D01*
X143143552Y-78220705D01*
X142705186Y-77782339D01*
X143073855Y-77782339D01*
X143087921Y-77871142D01*
X143090232Y-77880769D01*
X143171505Y-78130902D01*
X143175294Y-78140050D01*
X143294696Y-78374390D01*
X143299869Y-78382832D01*
X143454460Y-78595608D01*
X143460890Y-78603137D01*
X143646863Y-78789110D01*
X143654392Y-78795540D01*
X143867168Y-78950131D01*
X143875610Y-78955304D01*
X144109950Y-79074706D01*
X144119098Y-79078495D01*
X144369231Y-79159768D01*
X144378858Y-79162079D01*
X144467660Y-79176145D01*
X144556000Y-79100696D01*
X145003999Y-79100696D01*
X145092339Y-79176145D01*
X145181142Y-79162079D01*
X145190769Y-79159768D01*
X145440902Y-79078495D01*
X145450050Y-79074706D01*
X145684390Y-78955304D01*
X145692832Y-78950131D01*
X145905608Y-78795540D01*
X145913137Y-78789110D01*
X146099110Y-78603137D01*
X146105540Y-78595608D01*
X146260131Y-78382832D01*
X146265304Y-78374390D01*
X146384706Y-78140050D01*
X146388495Y-78130902D01*
X146469768Y-77880769D01*
X146472079Y-77871142D01*
X146486145Y-77782340D01*
X146410696Y-77694000D01*
X145077809Y-77693999D01*
X145004000Y-77767808D01*
X145003999Y-79100696D01*
X144556000Y-79100696D01*
X144556001Y-77767809D01*
X144482192Y-77694000D01*
X143149304Y-77693999D01*
X143073855Y-77782339D01*
X142705186Y-77782339D01*
X142431500Y-77508654D01*
X142431500Y-77487837D01*
X142513258Y-77487837D01*
X142529634Y-77485681D01*
X142808859Y-77410863D01*
X142833339Y-77398120D01*
X142989590Y-77267010D01*
X143003761Y-77250121D01*
X143080173Y-77117771D01*
X143073855Y-77157660D01*
X143149304Y-77246000D01*
X144482191Y-77246001D01*
X144556000Y-77172192D01*
X144556000Y-77172191D01*
X145003999Y-77172191D01*
X145077808Y-77246000D01*
X146410696Y-77246001D01*
X146486145Y-77157661D01*
X146472079Y-77068858D01*
X146469768Y-77059231D01*
X146388495Y-76809098D01*
X146384706Y-76799950D01*
X146265304Y-76565610D01*
X146260131Y-76557168D01*
X146105540Y-76344392D01*
X146099110Y-76336863D01*
X145913137Y-76150890D01*
X145905608Y-76144460D01*
X145692832Y-75989869D01*
X145684390Y-75984696D01*
X145450050Y-75865294D01*
X145440902Y-75861505D01*
X145190769Y-75780232D01*
X145181142Y-75777921D01*
X145092340Y-75763855D01*
X145004000Y-75839304D01*
X145003999Y-77172191D01*
X144556000Y-77172191D01*
X144556001Y-75839304D01*
X144467661Y-75763855D01*
X144378858Y-75777921D01*
X144369231Y-75780232D01*
X144119098Y-75861505D01*
X144109950Y-75865294D01*
X143875610Y-75984696D01*
X143867168Y-75989869D01*
X143654392Y-76144460D01*
X143646863Y-76150890D01*
X143460890Y-76336863D01*
X143454460Y-76344392D01*
X143299869Y-76557168D01*
X143294696Y-76565610D01*
X143175294Y-76799950D01*
X143171505Y-76809098D01*
X143136043Y-76918238D01*
X143145878Y-76862462D01*
X143146837Y-76851501D01*
X143146837Y-75037742D01*
X143144681Y-75021366D01*
X143069863Y-74742142D01*
X143057120Y-74717662D01*
X142926010Y-74561410D01*
X142909121Y-74547239D01*
X142734880Y-74446641D01*
X142714163Y-74439100D01*
X142521462Y-74405122D01*
X142510501Y-74404163D01*
X140696742Y-74404163D01*
X140680366Y-74406319D01*
X140401142Y-74481137D01*
X140376662Y-74493880D01*
X140220410Y-74624990D01*
X140206239Y-74641879D01*
X140105641Y-74816120D01*
X140104998Y-74817886D01*
X139988003Y-74714378D01*
X139979440Y-74708007D01*
X139767291Y-74576470D01*
X139757778Y-74571633D01*
X139526500Y-74477721D01*
X139516308Y-74474556D01*
X139272513Y-74420954D01*
X139261934Y-74419552D01*
X139012592Y-74407794D01*
X139001928Y-74408194D01*
X138754170Y-74438614D01*
X138743725Y-74440806D01*
X138504635Y-74512537D01*
X138494709Y-74516457D01*
X138271123Y-74627446D01*
X138262000Y-74632982D01*
X138060311Y-74780056D01*
X138052250Y-74787051D01*
X137878225Y-74966005D01*
X137871459Y-74974257D01*
X137730073Y-75179974D01*
X137724793Y-75189249D01*
X137620090Y-75415847D01*
X137616448Y-75425879D01*
X137551422Y-75666878D01*
X137549523Y-75677380D01*
X137526032Y-75925891D01*
X137525930Y-75936562D01*
X137544646Y-76185477D01*
X137546343Y-76196013D01*
X137606731Y-76438218D01*
X137610179Y-76448317D01*
X137710512Y-76676884D01*
X137715613Y-76686258D01*
X137853023Y-76894650D01*
X137859630Y-76903031D01*
X138030187Y-77085294D01*
X138038112Y-77092442D01*
X138236941Y-77243361D01*
X138245957Y-77249071D01*
X138467371Y-77364332D01*
X138477220Y-77368442D01*
X138714889Y-77444749D01*
X138725290Y-77447140D01*
X138972417Y-77482312D01*
X138983072Y-77482917D01*
X139232593Y-77475948D01*
X139243198Y-77474749D01*
X139487977Y-77425837D01*
X139498228Y-77422868D01*
X139731267Y-77333413D01*
X139740871Y-77328760D01*
X139955506Y-77201319D01*
X139964188Y-77195114D01*
X140117338Y-77064773D01*
X140140137Y-77149859D01*
X140152880Y-77174339D01*
X140283990Y-77330590D01*
X140300879Y-77344761D01*
X140475120Y-77445359D01*
X140495837Y-77452900D01*
X140688538Y-77486878D01*
X140699499Y-77487837D01*
X140778500Y-77487837D01*
X140778500Y-77758410D01*
X140774703Y-77775191D01*
X140773263Y-77793086D01*
X140778500Y-77877495D01*
X140778500Y-77905777D01*
X140779137Y-77914719D01*
X140782088Y-77935325D01*
X140786800Y-78011274D01*
X140790440Y-78028853D01*
X140798798Y-78052006D01*
X140802288Y-78076376D01*
X140807327Y-78093608D01*
X140838831Y-78162897D01*
X140864736Y-78234656D01*
X140873396Y-78250823D01*
X140887435Y-78269795D01*
X140897808Y-78292611D01*
X140907481Y-78307736D01*
X140964330Y-78373714D01*
X140977088Y-78390954D01*
X140983191Y-78398037D01*
X140998352Y-78413197D01*
X141050180Y-78473346D01*
X141063707Y-78485147D01*
X141082452Y-78497298D01*
X141794501Y-79209347D01*
X141794500Y-98325030D01*
X141764383Y-98311495D01*
X141754635Y-98308043D01*
X141546244Y-98252984D01*
X141448000Y-98328641D01*
X141448000Y-100046000D01*
X141000000Y-100046000D01*
X141000000Y-98329826D01*
X140904184Y-98254156D01*
X140730512Y-98295531D01*
X140720683Y-98298744D01*
X140487827Y-98396627D01*
X140478654Y-98401402D01*
X140264912Y-98536003D01*
X140256642Y-98542212D01*
X140219923Y-98574812D01*
X140214063Y-98552942D01*
X140201320Y-98528462D01*
X140070210Y-98372210D01*
X140053321Y-98358039D01*
X139879080Y-98257441D01*
X139858363Y-98249900D01*
X139665662Y-98215922D01*
X139654701Y-98214963D01*
X137710542Y-98214963D01*
X137694166Y-98217119D01*
X137414942Y-98291937D01*
X137390462Y-98304680D01*
X137234210Y-98435790D01*
X137220039Y-98452679D01*
X137119441Y-98626920D01*
X137111900Y-98647637D01*
X137094301Y-98747444D01*
X136973881Y-98646399D01*
X136964868Y-98640088D01*
X136757132Y-98520152D01*
X136747160Y-98515502D01*
X136521753Y-98433460D01*
X136511126Y-98430613D01*
X136274897Y-98388959D01*
X136263936Y-98388000D01*
X136024064Y-98388000D01*
X136013103Y-98388959D01*
X135776874Y-98430613D01*
X135766247Y-98433460D01*
X135540840Y-98515502D01*
X135530868Y-98520152D01*
X135323132Y-98640088D01*
X135314119Y-98646399D01*
X135130366Y-98800587D01*
X135122587Y-98808366D01*
X134968399Y-98992119D01*
X134962088Y-99001132D01*
X134842152Y-99208868D01*
X134837502Y-99218840D01*
X134755460Y-99444247D01*
X134752613Y-99454874D01*
X134710959Y-99691103D01*
X134710000Y-99702064D01*
X134710000Y-99941936D01*
X134710959Y-99952897D01*
X134752613Y-100189126D01*
X134755460Y-100199753D01*
X134837502Y-100425160D01*
X134842152Y-100435132D01*
X134962088Y-100642868D01*
X134968399Y-100651881D01*
X135122587Y-100835634D01*
X135130366Y-100843413D01*
X135276459Y-100966000D01*
X129391541Y-100966000D01*
X129537634Y-100843413D01*
X129545413Y-100835634D01*
X129699601Y-100651881D01*
X129705912Y-100642868D01*
X129825848Y-100435132D01*
X129830498Y-100425160D01*
X129912540Y-100199753D01*
X129915387Y-100189126D01*
X129957041Y-99952897D01*
X129958000Y-99941936D01*
X129958000Y-99702064D01*
X129957041Y-99691103D01*
X129915387Y-99454874D01*
X129912540Y-99444247D01*
X129830498Y-99218840D01*
X129825848Y-99208868D01*
X129705912Y-99001132D01*
X129699601Y-98992119D01*
X129545413Y-98808366D01*
X129537634Y-98800587D01*
X129353881Y-98646399D01*
X129344868Y-98640088D01*
X129137132Y-98520152D01*
X129127160Y-98515502D01*
X128901753Y-98433460D01*
X128891126Y-98430613D01*
X128654897Y-98388959D01*
X128643936Y-98388000D01*
X128404064Y-98388000D01*
X128393103Y-98388959D01*
X128279786Y-98408939D01*
X127572500Y-97701654D01*
X127572500Y-97593550D01*
X127694119Y-97695601D01*
X127703132Y-97701912D01*
X127910868Y-97821848D01*
X127920840Y-97826498D01*
X128192541Y-97925390D01*
X128300000Y-97850147D01*
X128300000Y-97850146D01*
X128747999Y-97850146D01*
X128855458Y-97925390D01*
X129127160Y-97826498D01*
X129137132Y-97821848D01*
X129344868Y-97701912D01*
X129353881Y-97695601D01*
X129537634Y-97541413D01*
X129545413Y-97533634D01*
X129699601Y-97349881D01*
X129705912Y-97340868D01*
X129825848Y-97133132D01*
X129830498Y-97123160D01*
X129929390Y-96851459D01*
X129854147Y-96744000D01*
X128821809Y-96743999D01*
X128748000Y-96817808D01*
X128747999Y-97850146D01*
X128300000Y-97850146D01*
X128300001Y-96817808D01*
X128300000Y-96817807D01*
X128300000Y-96400064D01*
X134710000Y-96400064D01*
X134710000Y-96639936D01*
X134710959Y-96650897D01*
X134752613Y-96887126D01*
X134755460Y-96897753D01*
X134837502Y-97123160D01*
X134842152Y-97133132D01*
X134962088Y-97340868D01*
X134968399Y-97349881D01*
X135122587Y-97533634D01*
X135130366Y-97541413D01*
X135314119Y-97695601D01*
X135323132Y-97701912D01*
X135530868Y-97821848D01*
X135540840Y-97826498D01*
X135766247Y-97908540D01*
X135776874Y-97911387D01*
X136013103Y-97953041D01*
X136024064Y-97954000D01*
X136263936Y-97954000D01*
X136274897Y-97953041D01*
X136511126Y-97911387D01*
X136521753Y-97908540D01*
X136747160Y-97826498D01*
X136757132Y-97821848D01*
X136964868Y-97701912D01*
X136973881Y-97695601D01*
X137157634Y-97541413D01*
X137165413Y-97533634D01*
X137319601Y-97349881D01*
X137325912Y-97340868D01*
X137445848Y-97133132D01*
X137450498Y-97123160D01*
X137532540Y-96897753D01*
X137535387Y-96887126D01*
X137577041Y-96650897D01*
X137578000Y-96639936D01*
X137578000Y-96400064D01*
X137577041Y-96389103D01*
X137535387Y-96152874D01*
X137532540Y-96142247D01*
X137450498Y-95916840D01*
X137445848Y-95906868D01*
X137325912Y-95699132D01*
X137319601Y-95690119D01*
X137165413Y-95506366D01*
X137157634Y-95498587D01*
X136973881Y-95344399D01*
X136964868Y-95338088D01*
X136757132Y-95218152D01*
X136747160Y-95213502D01*
X136521753Y-95131460D01*
X136511126Y-95128613D01*
X136274897Y-95086959D01*
X136263936Y-95086000D01*
X136024064Y-95086000D01*
X136013103Y-95086959D01*
X135776874Y-95128613D01*
X135766247Y-95131460D01*
X135540840Y-95213502D01*
X135530868Y-95218152D01*
X135323132Y-95338088D01*
X135314119Y-95344399D01*
X135130366Y-95498587D01*
X135122587Y-95506366D01*
X134968399Y-95690119D01*
X134962088Y-95699132D01*
X134842152Y-95906868D01*
X134837502Y-95916840D01*
X134755460Y-96142247D01*
X134752613Y-96152874D01*
X134710959Y-96389103D01*
X134710000Y-96400064D01*
X128300000Y-96400064D01*
X128300000Y-96222191D01*
X128747999Y-96222191D01*
X128821808Y-96296000D01*
X129854146Y-96296001D01*
X129929390Y-96188542D01*
X129830498Y-95916840D01*
X129825848Y-95906868D01*
X129705912Y-95699132D01*
X129699601Y-95690119D01*
X129545413Y-95506366D01*
X129537634Y-95498587D01*
X129353881Y-95344399D01*
X129344868Y-95338088D01*
X129137132Y-95218152D01*
X129127160Y-95213502D01*
X128855459Y-95114610D01*
X128748000Y-95189853D01*
X128747999Y-96222191D01*
X128300000Y-96222191D01*
X128300001Y-95189854D01*
X128192542Y-95114610D01*
X127920840Y-95213502D01*
X127910868Y-95218152D01*
X127703132Y-95338088D01*
X127694119Y-95344399D01*
X127572500Y-95446450D01*
X127572500Y-94291550D01*
X127694119Y-94393601D01*
X127703132Y-94399912D01*
X127910868Y-94519848D01*
X127920840Y-94524498D01*
X128146247Y-94606540D01*
X128156874Y-94609387D01*
X128393103Y-94651041D01*
X128404064Y-94652000D01*
X128643936Y-94652000D01*
X128654897Y-94651041D01*
X128891126Y-94609387D01*
X128901753Y-94606540D01*
X129127160Y-94524498D01*
X129137132Y-94519848D01*
X129344868Y-94399912D01*
X129353881Y-94393601D01*
X129537634Y-94239413D01*
X129545413Y-94231634D01*
X129699601Y-94047881D01*
X129705912Y-94038868D01*
X129825848Y-93831132D01*
X129830498Y-93821160D01*
X129912540Y-93595753D01*
X129915387Y-93585126D01*
X129957041Y-93348897D01*
X129958000Y-93337936D01*
X129958000Y-93098064D01*
X129957041Y-93087103D01*
X129915387Y-92850874D01*
X129912540Y-92840247D01*
X129830498Y-92614840D01*
X129825848Y-92604868D01*
X129705912Y-92397132D01*
X129699601Y-92388119D01*
X129545413Y-92204366D01*
X129537634Y-92196587D01*
X129353881Y-92042399D01*
X129344868Y-92036088D01*
X129137132Y-91916152D01*
X129127160Y-91911502D01*
X128901753Y-91829460D01*
X128891126Y-91826613D01*
X128654897Y-91784959D01*
X128643936Y-91784000D01*
X128404064Y-91784000D01*
X128393103Y-91784959D01*
X128156874Y-91826613D01*
X128146247Y-91829460D01*
X127920840Y-91911502D01*
X127910868Y-91916152D01*
X127703132Y-92036088D01*
X127694119Y-92042399D01*
X127572500Y-92144450D01*
X127572500Y-89796064D01*
X129710000Y-89796064D01*
X129710000Y-90035936D01*
X129710959Y-90046897D01*
X129752613Y-90283126D01*
X129755460Y-90293753D01*
X129837502Y-90519160D01*
X129842152Y-90529132D01*
X129962088Y-90736868D01*
X129968399Y-90745881D01*
X130122587Y-90929634D01*
X130130366Y-90937413D01*
X130314119Y-91091601D01*
X130323132Y-91097912D01*
X130530868Y-91217848D01*
X130540840Y-91222498D01*
X130766247Y-91304540D01*
X130776874Y-91307387D01*
X131013103Y-91349041D01*
X131024064Y-91350000D01*
X131263936Y-91350000D01*
X131274897Y-91349041D01*
X131511126Y-91307387D01*
X131521753Y-91304540D01*
X131747160Y-91222498D01*
X131757132Y-91217848D01*
X131964868Y-91097912D01*
X131973881Y-91091601D01*
X132157634Y-90937413D01*
X132165413Y-90929634D01*
X132319601Y-90745881D01*
X132325912Y-90736868D01*
X132445848Y-90529132D01*
X132450498Y-90519160D01*
X132532540Y-90293753D01*
X132535387Y-90283126D01*
X132577041Y-90046897D01*
X132578000Y-90035936D01*
X132578000Y-89796064D01*
X134710000Y-89796064D01*
X134710000Y-90035936D01*
X134710959Y-90046897D01*
X134752613Y-90283126D01*
X134755460Y-90293753D01*
X134837502Y-90519160D01*
X134842152Y-90529132D01*
X134962088Y-90736868D01*
X134968399Y-90745881D01*
X135122587Y-90929634D01*
X135130366Y-90937413D01*
X135314119Y-91091601D01*
X135317500Y-91093968D01*
X135317501Y-92040031D01*
X135314119Y-92042399D01*
X135130366Y-92196587D01*
X135122587Y-92204366D01*
X134968399Y-92388119D01*
X134962088Y-92397132D01*
X134842152Y-92604868D01*
X134837502Y-92614840D01*
X134755460Y-92840247D01*
X134752613Y-92850874D01*
X134710959Y-93087103D01*
X134710000Y-93098064D01*
X134710000Y-93337936D01*
X134710959Y-93348897D01*
X134752613Y-93585126D01*
X134755460Y-93595753D01*
X134837502Y-93821160D01*
X134842152Y-93831132D01*
X134962088Y-94038868D01*
X134968399Y-94047881D01*
X135122587Y-94231634D01*
X135130366Y-94239413D01*
X135314119Y-94393601D01*
X135323132Y-94399912D01*
X135530868Y-94519848D01*
X135540840Y-94524498D01*
X135766247Y-94606540D01*
X135776874Y-94609387D01*
X136013103Y-94651041D01*
X136024064Y-94652000D01*
X136263936Y-94652000D01*
X136274897Y-94651041D01*
X136511126Y-94609387D01*
X136521753Y-94606540D01*
X136747160Y-94524498D01*
X136757132Y-94519848D01*
X136964868Y-94399912D01*
X136973881Y-94393601D01*
X137157634Y-94239413D01*
X137165413Y-94231634D01*
X137319601Y-94047881D01*
X137325912Y-94038868D01*
X137445848Y-93831132D01*
X137450498Y-93821160D01*
X137532540Y-93595753D01*
X137535387Y-93585126D01*
X137577041Y-93348897D01*
X137578000Y-93337936D01*
X137578000Y-93098064D01*
X137577041Y-93087103D01*
X137535387Y-92850874D01*
X137532540Y-92840247D01*
X137450498Y-92614840D01*
X137445848Y-92604868D01*
X137325912Y-92397132D01*
X137319601Y-92388119D01*
X137165413Y-92204366D01*
X137157634Y-92196587D01*
X136973881Y-92042399D01*
X136970500Y-92040032D01*
X136970500Y-91093968D01*
X136973881Y-91091601D01*
X137157634Y-90937413D01*
X137165413Y-90929634D01*
X137319601Y-90745881D01*
X137325912Y-90736868D01*
X137445848Y-90529132D01*
X137450498Y-90519160D01*
X137532540Y-90293753D01*
X137535387Y-90283126D01*
X137577041Y-90046897D01*
X137578000Y-90035936D01*
X137578000Y-89796064D01*
X137577041Y-89785103D01*
X137535387Y-89548874D01*
X137532540Y-89538247D01*
X137450498Y-89312840D01*
X137445848Y-89302868D01*
X137325912Y-89095132D01*
X137319601Y-89086119D01*
X137165413Y-88902366D01*
X137157634Y-88894587D01*
X136973881Y-88740399D01*
X136964868Y-88734088D01*
X136757132Y-88614152D01*
X136747160Y-88609502D01*
X136521753Y-88527460D01*
X136511126Y-88524613D01*
X136274897Y-88482959D01*
X136263936Y-88482000D01*
X136024064Y-88482000D01*
X136013103Y-88482959D01*
X135776874Y-88524613D01*
X135766247Y-88527460D01*
X135540840Y-88609502D01*
X135530868Y-88614152D01*
X135323132Y-88734088D01*
X135314119Y-88740399D01*
X135130366Y-88894587D01*
X135122587Y-88902366D01*
X134968399Y-89086119D01*
X134962088Y-89095132D01*
X134842152Y-89302868D01*
X134837502Y-89312840D01*
X134755460Y-89538247D01*
X134752613Y-89548874D01*
X134710959Y-89785103D01*
X134710000Y-89796064D01*
X132578000Y-89796064D01*
X132577041Y-89785103D01*
X132535387Y-89548874D01*
X132532540Y-89538247D01*
X132450498Y-89312840D01*
X132445848Y-89302868D01*
X132325912Y-89095132D01*
X132319601Y-89086119D01*
X132165413Y-88902366D01*
X132157634Y-88894587D01*
X131973881Y-88740399D01*
X131964868Y-88734088D01*
X131757132Y-88614152D01*
X131747160Y-88609502D01*
X131521753Y-88527460D01*
X131511126Y-88524613D01*
X131274897Y-88482959D01*
X131263936Y-88482000D01*
X131024064Y-88482000D01*
X131013103Y-88482959D01*
X130776874Y-88524613D01*
X130766247Y-88527460D01*
X130540840Y-88609502D01*
X130530868Y-88614152D01*
X130323132Y-88734088D01*
X130314119Y-88740399D01*
X130130366Y-88894587D01*
X130122587Y-88902366D01*
X129968399Y-89086119D01*
X129962088Y-89095132D01*
X129842152Y-89302868D01*
X129837502Y-89312840D01*
X129755460Y-89538247D01*
X129752613Y-89548874D01*
X129710959Y-89785103D01*
X129710000Y-89796064D01*
X127572500Y-89796064D01*
X127572500Y-87941550D01*
X127694119Y-88043601D01*
X127703132Y-88049912D01*
X127910868Y-88169848D01*
X127920840Y-88174498D01*
X128146247Y-88256540D01*
X128156874Y-88259387D01*
X128393103Y-88301041D01*
X128404064Y-88302000D01*
X128643936Y-88302000D01*
X128654897Y-88301041D01*
X128891126Y-88259387D01*
X128901753Y-88256540D01*
X129127160Y-88174498D01*
X129137132Y-88169848D01*
X129344868Y-88049912D01*
X129353881Y-88043601D01*
X129537634Y-87889413D01*
X129545413Y-87881634D01*
X129699601Y-87697881D01*
X129705912Y-87688868D01*
X129825848Y-87481132D01*
X129830498Y-87471160D01*
X129912540Y-87245753D01*
X129915387Y-87235126D01*
X129957041Y-86998897D01*
X129958000Y-86987936D01*
X129958000Y-86748064D01*
X134710000Y-86748064D01*
X134710000Y-86987936D01*
X134710959Y-86998897D01*
X134752613Y-87235126D01*
X134755460Y-87245753D01*
X134837502Y-87471160D01*
X134842152Y-87481132D01*
X134962088Y-87688868D01*
X134968399Y-87697881D01*
X135122587Y-87881634D01*
X135130366Y-87889413D01*
X135314119Y-88043601D01*
X135323132Y-88049912D01*
X135530868Y-88169848D01*
X135540840Y-88174498D01*
X135766247Y-88256540D01*
X135776874Y-88259387D01*
X136013103Y-88301041D01*
X136024064Y-88302000D01*
X136263936Y-88302000D01*
X136274897Y-88301041D01*
X136511126Y-88259387D01*
X136521753Y-88256540D01*
X136747160Y-88174498D01*
X136757132Y-88169848D01*
X136964868Y-88049912D01*
X136973881Y-88043601D01*
X137157634Y-87889413D01*
X137165413Y-87881634D01*
X137319601Y-87697881D01*
X137325912Y-87688868D01*
X137445848Y-87481132D01*
X137450498Y-87471160D01*
X137532540Y-87245753D01*
X137535387Y-87235126D01*
X137577041Y-86998897D01*
X137578000Y-86987936D01*
X137578000Y-86748064D01*
X137577041Y-86737103D01*
X137535387Y-86500874D01*
X137532540Y-86490247D01*
X137450498Y-86264840D01*
X137445848Y-86254868D01*
X137325912Y-86047132D01*
X137319601Y-86038119D01*
X137165413Y-85854366D01*
X137157634Y-85846587D01*
X136973881Y-85692399D01*
X136964868Y-85686088D01*
X136757132Y-85566152D01*
X136747160Y-85561502D01*
X136521753Y-85479460D01*
X136511126Y-85476613D01*
X136274897Y-85434959D01*
X136263936Y-85434000D01*
X136024064Y-85434000D01*
X136013103Y-85434959D01*
X135776874Y-85476613D01*
X135766247Y-85479460D01*
X135540840Y-85561502D01*
X135530868Y-85566152D01*
X135323132Y-85686088D01*
X135314119Y-85692399D01*
X135130366Y-85846587D01*
X135122587Y-85854366D01*
X134968399Y-86038119D01*
X134962088Y-86047132D01*
X134842152Y-86254868D01*
X134837502Y-86264840D01*
X134755460Y-86490247D01*
X134752613Y-86500874D01*
X134710959Y-86737103D01*
X134710000Y-86748064D01*
X129958000Y-86748064D01*
X129957041Y-86737103D01*
X129915387Y-86500874D01*
X129912540Y-86490247D01*
X129830498Y-86264840D01*
X129825848Y-86254868D01*
X129705912Y-86047132D01*
X129699601Y-86038119D01*
X129545413Y-85854366D01*
X129537634Y-85846587D01*
X129353881Y-85692399D01*
X129344868Y-85686088D01*
X129137132Y-85566152D01*
X129127160Y-85561502D01*
X128901753Y-85479460D01*
X128891126Y-85476613D01*
X128654897Y-85434959D01*
X128643936Y-85434000D01*
X128404064Y-85434000D01*
X128393103Y-85434959D01*
X128156874Y-85476613D01*
X128146247Y-85479460D01*
X127920840Y-85561502D01*
X127910868Y-85566152D01*
X127703132Y-85686088D01*
X127694119Y-85692399D01*
X127572500Y-85794450D01*
X127572500Y-84670345D01*
X128628064Y-83614782D01*
X128614959Y-83689103D01*
X128614000Y-83700064D01*
X128614000Y-83939936D01*
X128614959Y-83950897D01*
X128656613Y-84187126D01*
X128659460Y-84197753D01*
X128741502Y-84423160D01*
X128746152Y-84433132D01*
X128866088Y-84640868D01*
X128872399Y-84649881D01*
X129026587Y-84833634D01*
X129034366Y-84841413D01*
X129218119Y-84995601D01*
X129227132Y-85001912D01*
X129434868Y-85121848D01*
X129444840Y-85126498D01*
X129670247Y-85208540D01*
X129680874Y-85211387D01*
X129917103Y-85253041D01*
X129928064Y-85254000D01*
X130167936Y-85254000D01*
X130178897Y-85253041D01*
X130415126Y-85211387D01*
X130425753Y-85208540D01*
X130651160Y-85126498D01*
X130661132Y-85121848D01*
X130868868Y-85001912D01*
X130877881Y-84995601D01*
X131061634Y-84841413D01*
X131069413Y-84833634D01*
X131223601Y-84649881D01*
X131229912Y-84640868D01*
X131349848Y-84433132D01*
X131354498Y-84423160D01*
X131436540Y-84197753D01*
X131439387Y-84187126D01*
X131481041Y-83950897D01*
X131482000Y-83939936D01*
X131482000Y-83700064D01*
X133614000Y-83700064D01*
X133614000Y-83939936D01*
X133614959Y-83950897D01*
X133656613Y-84187126D01*
X133659460Y-84197753D01*
X133741502Y-84423160D01*
X133746152Y-84433132D01*
X133866088Y-84640868D01*
X133872399Y-84649881D01*
X134026587Y-84833634D01*
X134034366Y-84841413D01*
X134218119Y-84995601D01*
X134227132Y-85001912D01*
X134434868Y-85121848D01*
X134444840Y-85126498D01*
X134670247Y-85208540D01*
X134680874Y-85211387D01*
X134917103Y-85253041D01*
X134928064Y-85254000D01*
X135167936Y-85254000D01*
X135178897Y-85253041D01*
X135415126Y-85211387D01*
X135425753Y-85208540D01*
X135651160Y-85126498D01*
X135661132Y-85121848D01*
X135868868Y-85001912D01*
X135877881Y-84995601D01*
X136061634Y-84841413D01*
X136069413Y-84833634D01*
X136223601Y-84649881D01*
X136229912Y-84640868D01*
X136349848Y-84433132D01*
X136354498Y-84423160D01*
X136436540Y-84197753D01*
X136439387Y-84187126D01*
X136481041Y-83950897D01*
X136482000Y-83939936D01*
X136482000Y-83700064D01*
X136481041Y-83689103D01*
X136439387Y-83452874D01*
X136436540Y-83442247D01*
X136373301Y-83268499D01*
X138766163Y-83268499D01*
X138766163Y-84882258D01*
X138768319Y-84898634D01*
X138843137Y-85177859D01*
X138855880Y-85202339D01*
X138986990Y-85358590D01*
X139003879Y-85372761D01*
X139178120Y-85473359D01*
X139198837Y-85480900D01*
X139391538Y-85514878D01*
X139402499Y-85515837D01*
X141016258Y-85515837D01*
X141032634Y-85513681D01*
X141311859Y-85438863D01*
X141336339Y-85426120D01*
X141492590Y-85295010D01*
X141506761Y-85278121D01*
X141607359Y-85103880D01*
X141614900Y-85083163D01*
X141648878Y-84890462D01*
X141649837Y-84879501D01*
X141649837Y-83265742D01*
X141647681Y-83249366D01*
X141572863Y-82970142D01*
X141560120Y-82945662D01*
X141429010Y-82789410D01*
X141412121Y-82775239D01*
X141237880Y-82674641D01*
X141217163Y-82667100D01*
X141150260Y-82655303D01*
X141221634Y-82595413D01*
X141229413Y-82587634D01*
X141383601Y-82403881D01*
X141389912Y-82394868D01*
X141509848Y-82187132D01*
X141514498Y-82177160D01*
X141596540Y-81951753D01*
X141599387Y-81941126D01*
X141641041Y-81704897D01*
X141642000Y-81693936D01*
X141642000Y-81454064D01*
X141641041Y-81443103D01*
X141599387Y-81206874D01*
X141596540Y-81196247D01*
X141514498Y-80970840D01*
X141509848Y-80960868D01*
X141389912Y-80753132D01*
X141383601Y-80744119D01*
X141229413Y-80560366D01*
X141221634Y-80552587D01*
X141037881Y-80398399D01*
X141028868Y-80392088D01*
X140821132Y-80272152D01*
X140811160Y-80267502D01*
X140585753Y-80185460D01*
X140575126Y-80182613D01*
X140338897Y-80140959D01*
X140327936Y-80140000D01*
X140088064Y-80140000D01*
X140077103Y-80140959D01*
X139840874Y-80182613D01*
X139830247Y-80185460D01*
X139604840Y-80267502D01*
X139594868Y-80272152D01*
X139387132Y-80392088D01*
X139378119Y-80398399D01*
X139194366Y-80552587D01*
X139186587Y-80560366D01*
X139032399Y-80744119D01*
X139026088Y-80753132D01*
X138906152Y-80960868D01*
X138901502Y-80970840D01*
X138819460Y-81196247D01*
X138816613Y-81206874D01*
X138774959Y-81443103D01*
X138774000Y-81454064D01*
X138774000Y-81693936D01*
X138774959Y-81704897D01*
X138816613Y-81941126D01*
X138819460Y-81951753D01*
X138901502Y-82177160D01*
X138906152Y-82187132D01*
X139026088Y-82394868D01*
X139032399Y-82403881D01*
X139186587Y-82587634D01*
X139194366Y-82595413D01*
X139275255Y-82663287D01*
X139104142Y-82709137D01*
X139079662Y-82721880D01*
X138923410Y-82852990D01*
X138909239Y-82869879D01*
X138808641Y-83044120D01*
X138801100Y-83064837D01*
X138767122Y-83257538D01*
X138766163Y-83268499D01*
X136373301Y-83268499D01*
X136354498Y-83216840D01*
X136349848Y-83206868D01*
X136229912Y-82999132D01*
X136223601Y-82990119D01*
X136069413Y-82806366D01*
X136061634Y-82798587D01*
X135877881Y-82644399D01*
X135868868Y-82638088D01*
X135661132Y-82518152D01*
X135651160Y-82513502D01*
X135425753Y-82431460D01*
X135415126Y-82428613D01*
X135178897Y-82386959D01*
X135167936Y-82386000D01*
X134928064Y-82386000D01*
X134917103Y-82386959D01*
X134680874Y-82428613D01*
X134670247Y-82431460D01*
X134444840Y-82513502D01*
X134434868Y-82518152D01*
X134227132Y-82638088D01*
X134218119Y-82644399D01*
X134034366Y-82798587D01*
X134026587Y-82806366D01*
X133872399Y-82990119D01*
X133866088Y-82999132D01*
X133746152Y-83206868D01*
X133741502Y-83216840D01*
X133659460Y-83442247D01*
X133656613Y-83452874D01*
X133614959Y-83689103D01*
X133614000Y-83700064D01*
X131482000Y-83700064D01*
X131481041Y-83689103D01*
X131439387Y-83452874D01*
X131436540Y-83442247D01*
X131354498Y-83216840D01*
X131349848Y-83206868D01*
X131229912Y-82999132D01*
X131223601Y-82990119D01*
X131069413Y-82806366D01*
X131061634Y-82798587D01*
X130877881Y-82644399D01*
X130868868Y-82638088D01*
X130661132Y-82518152D01*
X130651160Y-82513502D01*
X130425753Y-82431460D01*
X130415126Y-82428613D01*
X130178897Y-82386959D01*
X130167936Y-82386000D01*
X129928064Y-82386000D01*
X129917103Y-82386959D01*
X129842784Y-82400064D01*
X130311787Y-81931061D01*
X130425103Y-81951041D01*
X130436064Y-81952000D01*
X130675936Y-81952000D01*
X130686897Y-81951041D01*
X130923126Y-81909387D01*
X130933753Y-81906540D01*
X131159160Y-81824498D01*
X131169132Y-81819848D01*
X131376868Y-81699912D01*
X131385881Y-81693601D01*
X131569634Y-81539413D01*
X131577413Y-81531634D01*
X131731601Y-81347881D01*
X131737912Y-81338868D01*
X131857848Y-81131132D01*
X131862498Y-81121160D01*
X131944540Y-80895753D01*
X131947387Y-80885126D01*
X131989041Y-80648897D01*
X131990000Y-80637936D01*
X131990000Y-80398064D01*
X134122000Y-80398064D01*
X134122000Y-80637936D01*
X134122959Y-80648897D01*
X134164613Y-80885126D01*
X134167460Y-80895753D01*
X134249502Y-81121160D01*
X134254152Y-81131132D01*
X134374088Y-81338868D01*
X134380399Y-81347881D01*
X134534587Y-81531634D01*
X134542366Y-81539413D01*
X134726119Y-81693601D01*
X134735132Y-81699912D01*
X134942868Y-81819848D01*
X134952840Y-81824498D01*
X135178247Y-81906540D01*
X135188874Y-81909387D01*
X135425103Y-81951041D01*
X135436064Y-81952000D01*
X135675936Y-81952000D01*
X135686897Y-81951041D01*
X135923126Y-81909387D01*
X135933753Y-81906540D01*
X136159160Y-81824498D01*
X136169132Y-81819848D01*
X136376868Y-81699912D01*
X136385881Y-81693601D01*
X136569634Y-81539413D01*
X136577413Y-81531634D01*
X136731601Y-81347881D01*
X136737912Y-81338868D01*
X136857848Y-81131132D01*
X136862498Y-81121160D01*
X136944540Y-80895753D01*
X136947387Y-80885126D01*
X136989041Y-80648897D01*
X136990000Y-80637936D01*
X136990000Y-80398064D01*
X136989041Y-80387103D01*
X136947387Y-80150874D01*
X136944540Y-80140247D01*
X136862498Y-79914840D01*
X136857848Y-79904868D01*
X136737912Y-79697132D01*
X136731601Y-79688119D01*
X136577413Y-79504366D01*
X136569634Y-79496587D01*
X136385881Y-79342399D01*
X136376868Y-79336088D01*
X136169132Y-79216152D01*
X136159160Y-79211502D01*
X135933753Y-79129460D01*
X135923126Y-79126613D01*
X135686897Y-79084959D01*
X135675936Y-79084000D01*
X135436064Y-79084000D01*
X135425103Y-79084959D01*
X135188874Y-79126613D01*
X135178247Y-79129460D01*
X134952840Y-79211502D01*
X134942868Y-79216152D01*
X134735132Y-79336088D01*
X134726119Y-79342399D01*
X134542366Y-79496587D01*
X134534587Y-79504366D01*
X134380399Y-79688119D01*
X134374088Y-79697132D01*
X134254152Y-79904868D01*
X134249502Y-79914840D01*
X134167460Y-80140247D01*
X134164613Y-80150874D01*
X134122959Y-80387103D01*
X134122000Y-80398064D01*
X131990000Y-80398064D01*
X131989041Y-80387103D01*
X131947387Y-80150874D01*
X131944540Y-80140247D01*
X131862498Y-79914840D01*
X131857848Y-79904868D01*
X131737912Y-79697132D01*
X131731601Y-79688119D01*
X131577413Y-79504366D01*
X131569634Y-79496587D01*
X131385881Y-79342399D01*
X131376868Y-79336088D01*
X131169132Y-79216152D01*
X131159160Y-79211502D01*
X130933753Y-79129460D01*
X130923126Y-79126613D01*
X130686897Y-79084959D01*
X130675936Y-79084000D01*
X130436064Y-79084000D01*
X130425103Y-79084959D01*
X130188874Y-79126613D01*
X130178247Y-79129460D01*
X129952840Y-79211502D01*
X129942868Y-79216152D01*
X129735132Y-79336088D01*
X129726119Y-79342399D01*
X129542366Y-79496587D01*
X129534587Y-79504366D01*
X129380399Y-79688119D01*
X129374088Y-79697132D01*
X129254152Y-79904868D01*
X129249502Y-79914840D01*
X129167460Y-80140247D01*
X129164613Y-80150874D01*
X129122959Y-80387103D01*
X129122000Y-80398064D01*
X129122000Y-80637936D01*
X129122959Y-80648897D01*
X129142940Y-80762214D01*
X126227056Y-83678099D01*
X126212497Y-83687285D01*
X126198825Y-83698921D01*
X126142819Y-83762336D01*
X126122844Y-83782311D01*
X126116972Y-83789083D01*
X126104498Y-83805726D01*
X126054113Y-83862777D01*
X126044257Y-83877782D01*
X126033795Y-83900065D01*
X126019032Y-83919763D01*
X126010410Y-83935510D01*
X125983695Y-84006774D01*
X125951268Y-84075841D01*
X125945959Y-84093396D01*
X125942471Y-84116740D01*
X125933673Y-84140208D01*
X125929818Y-84157743D01*
X125923364Y-84244586D01*
X125920193Y-84265805D01*
X125919500Y-84275129D01*
X125919500Y-84296588D01*
X125913618Y-84375748D01*
X125914839Y-84393659D01*
X125919500Y-84415494D01*
X125919501Y-97951405D01*
X125915703Y-97968190D01*
X125914263Y-97986086D01*
X125919501Y-98070511D01*
X125919501Y-98098779D01*
X125920138Y-98107723D01*
X125923088Y-98128313D01*
X125927800Y-98204272D01*
X125931440Y-98221852D01*
X125939799Y-98245006D01*
X125943289Y-98269379D01*
X125948328Y-98286609D01*
X125979827Y-98355885D01*
X126005736Y-98427655D01*
X126014395Y-98443822D01*
X126028436Y-98462797D01*
X126038810Y-98485613D01*
X126048482Y-98500737D01*
X126105327Y-98566709D01*
X126118088Y-98583954D01*
X126124191Y-98591037D01*
X126139357Y-98606202D01*
X126191181Y-98666347D01*
X126204710Y-98678149D01*
X126223449Y-98690295D01*
X127110939Y-99577786D01*
X127090959Y-99691103D01*
X127090000Y-99702064D01*
X127090000Y-99941936D01*
X127090959Y-99952897D01*
X127132613Y-100189126D01*
X127135460Y-100199753D01*
X127217502Y-100425160D01*
X127222152Y-100435132D01*
X127342088Y-100642868D01*
X127348399Y-100651881D01*
X127502587Y-100835634D01*
X127510366Y-100843413D01*
X127656459Y-100966000D01*
X125856000Y-100966000D01*
X125856000Y-80323172D01*
X125932148Y-80376492D01*
X125941077Y-80381710D01*
X126168874Y-80490851D01*
X126178535Y-80494540D01*
X126421306Y-80565072D01*
X126522000Y-80489469D01*
X126522000Y-80485895D01*
X126969999Y-80485895D01*
X127063410Y-80561538D01*
X127202044Y-80532071D01*
X127211950Y-80529099D01*
X127447128Y-80436933D01*
X127456415Y-80432384D01*
X127673382Y-80303046D01*
X127681801Y-80297041D01*
X127874730Y-80134003D01*
X127882055Y-80126703D01*
X128045766Y-79934344D01*
X128051801Y-79925946D01*
X128181895Y-79709431D01*
X128186477Y-79700161D01*
X128279463Y-79465306D01*
X128282470Y-79455411D01*
X128313529Y-79311753D01*
X128237880Y-79218000D01*
X127043809Y-79217999D01*
X126970000Y-79291808D01*
X126969999Y-80485895D01*
X126522000Y-80485895D01*
X126522001Y-79291808D01*
X126522000Y-79291807D01*
X126522001Y-78770000D01*
X128239741Y-78770001D01*
X128315226Y-78680992D01*
X128303175Y-78608197D01*
X128300655Y-78598167D01*
X128219253Y-78359050D01*
X128215130Y-78349566D01*
X128095767Y-78126955D01*
X128090149Y-78118271D01*
X127991629Y-77990341D01*
X128015059Y-77984063D01*
X128039539Y-77971320D01*
X128195790Y-77840210D01*
X128209961Y-77823321D01*
X128310559Y-77649080D01*
X128318100Y-77628363D01*
X128352078Y-77435662D01*
X128353037Y-77424701D01*
X128353037Y-77096064D01*
X129202000Y-77096064D01*
X129202000Y-77335936D01*
X129202959Y-77346897D01*
X129244613Y-77583126D01*
X129247460Y-77593753D01*
X129329502Y-77819160D01*
X129334152Y-77829132D01*
X129454088Y-78036868D01*
X129460399Y-78045881D01*
X129614587Y-78229634D01*
X129622366Y-78237413D01*
X129806119Y-78391601D01*
X129815132Y-78397912D01*
X130022868Y-78517848D01*
X130032840Y-78522498D01*
X130258247Y-78604540D01*
X130268874Y-78607387D01*
X130505103Y-78649041D01*
X130516064Y-78650000D01*
X130755936Y-78650000D01*
X130766897Y-78649041D01*
X131003126Y-78607387D01*
X131013753Y-78604540D01*
X131239160Y-78522498D01*
X131249132Y-78517848D01*
X131456868Y-78397912D01*
X131465881Y-78391601D01*
X131649634Y-78237413D01*
X131657413Y-78229634D01*
X131811601Y-78045881D01*
X131817912Y-78036868D01*
X131937848Y-77829132D01*
X131942498Y-77819160D01*
X132024540Y-77593753D01*
X132027387Y-77583126D01*
X132069041Y-77346897D01*
X132070000Y-77335936D01*
X132070000Y-77096064D01*
X134202000Y-77096064D01*
X134202000Y-77335936D01*
X134202959Y-77346897D01*
X134244613Y-77583126D01*
X134247460Y-77593753D01*
X134329502Y-77819160D01*
X134334152Y-77829132D01*
X134454088Y-78036868D01*
X134460399Y-78045881D01*
X134614587Y-78229634D01*
X134622366Y-78237413D01*
X134806119Y-78391601D01*
X134815132Y-78397912D01*
X135022868Y-78517848D01*
X135032840Y-78522498D01*
X135258247Y-78604540D01*
X135268874Y-78607387D01*
X135505103Y-78649041D01*
X135516064Y-78650000D01*
X135755936Y-78650000D01*
X135766897Y-78649041D01*
X136003126Y-78607387D01*
X136013753Y-78604540D01*
X136239160Y-78522498D01*
X136249132Y-78517848D01*
X136456868Y-78397912D01*
X136465881Y-78391601D01*
X136649634Y-78237413D01*
X136657413Y-78229634D01*
X136811601Y-78045881D01*
X136817912Y-78036868D01*
X136937848Y-77829132D01*
X136942498Y-77819160D01*
X137024540Y-77593753D01*
X137027387Y-77583126D01*
X137069041Y-77346897D01*
X137070000Y-77335936D01*
X137070000Y-77096064D01*
X137069041Y-77085103D01*
X137027387Y-76848874D01*
X137024540Y-76838247D01*
X136942498Y-76612840D01*
X136937848Y-76602868D01*
X136817912Y-76395132D01*
X136811601Y-76386119D01*
X136657413Y-76202366D01*
X136649634Y-76194587D01*
X136465881Y-76040399D01*
X136456868Y-76034088D01*
X136249132Y-75914152D01*
X136239160Y-75909502D01*
X136013753Y-75827460D01*
X136003126Y-75824613D01*
X135766897Y-75782959D01*
X135755936Y-75782000D01*
X135516064Y-75782000D01*
X135505103Y-75782959D01*
X135268874Y-75824613D01*
X135258247Y-75827460D01*
X135032840Y-75909502D01*
X135022868Y-75914152D01*
X134815132Y-76034088D01*
X134806119Y-76040399D01*
X134622366Y-76194587D01*
X134614587Y-76202366D01*
X134460399Y-76386119D01*
X134454088Y-76395132D01*
X134334152Y-76602868D01*
X134329502Y-76612840D01*
X134247460Y-76838247D01*
X134244613Y-76848874D01*
X134202959Y-77085103D01*
X134202000Y-77096064D01*
X132070000Y-77096064D01*
X132069041Y-77085103D01*
X132027387Y-76848874D01*
X132024540Y-76838247D01*
X131942498Y-76612840D01*
X131937848Y-76602868D01*
X131817912Y-76395132D01*
X131811601Y-76386119D01*
X131657413Y-76202366D01*
X131649634Y-76194587D01*
X131465881Y-76040399D01*
X131456868Y-76034088D01*
X131249132Y-75914152D01*
X131239160Y-75909502D01*
X131013753Y-75827460D01*
X131003126Y-75824613D01*
X130766897Y-75782959D01*
X130755936Y-75782000D01*
X130516064Y-75782000D01*
X130505103Y-75782959D01*
X130268874Y-75824613D01*
X130258247Y-75827460D01*
X130032840Y-75909502D01*
X130022868Y-75914152D01*
X129815132Y-76034088D01*
X129806119Y-76040399D01*
X129622366Y-76194587D01*
X129614587Y-76202366D01*
X129460399Y-76386119D01*
X129454088Y-76395132D01*
X129334152Y-76602868D01*
X129329502Y-76612840D01*
X129247460Y-76838247D01*
X129244613Y-76848874D01*
X129202959Y-77085103D01*
X129202000Y-77096064D01*
X128353037Y-77096064D01*
X128353037Y-75480542D01*
X128350881Y-75464166D01*
X128276063Y-75184942D01*
X128263320Y-75160462D01*
X128132210Y-75004210D01*
X128115321Y-74990039D01*
X127941080Y-74889441D01*
X127920363Y-74881900D01*
X127727662Y-74847922D01*
X127716701Y-74846963D01*
X125856000Y-74846963D01*
X125856000Y-74001185D01*
X127938114Y-74001185D01*
X127938710Y-74011509D01*
X127973864Y-74261643D01*
X127976137Y-74271732D01*
X128051673Y-74512766D01*
X128055564Y-74522348D01*
X128169452Y-74747808D01*
X128174855Y-74756626D01*
X128324038Y-74960458D01*
X128330809Y-74968275D01*
X128511280Y-75145004D01*
X128519237Y-75151610D01*
X128726148Y-75296492D01*
X128735077Y-75301710D01*
X128962873Y-75410851D01*
X128972535Y-75414540D01*
X129215098Y-75485012D01*
X129225232Y-75487073D01*
X129476048Y-75516981D01*
X129486382Y-75517360D01*
X129738714Y-75505902D01*
X129748972Y-75504588D01*
X129996045Y-75452070D01*
X130005950Y-75449099D01*
X130241128Y-75356933D01*
X130250415Y-75352384D01*
X130467382Y-75223046D01*
X130475801Y-75217041D01*
X130668730Y-75054003D01*
X130676055Y-75046703D01*
X130811060Y-74888073D01*
X130864038Y-74960458D01*
X130870809Y-74968275D01*
X131051280Y-75145004D01*
X131059237Y-75151610D01*
X131266148Y-75296492D01*
X131275077Y-75301710D01*
X131502873Y-75410851D01*
X131512535Y-75414540D01*
X131755098Y-75485012D01*
X131765232Y-75487073D01*
X132016048Y-75516981D01*
X132026382Y-75517360D01*
X132278714Y-75505902D01*
X132288972Y-75504588D01*
X132536045Y-75452070D01*
X132545950Y-75449099D01*
X132781128Y-75356933D01*
X132790415Y-75352384D01*
X133007382Y-75223046D01*
X133015801Y-75217041D01*
X133083674Y-75159684D01*
X133089937Y-75183059D01*
X133102680Y-75207539D01*
X133233790Y-75363790D01*
X133250679Y-75377961D01*
X133424920Y-75478559D01*
X133445637Y-75486100D01*
X133638338Y-75520078D01*
X133649299Y-75521037D01*
X135593458Y-75521037D01*
X135609834Y-75518881D01*
X135889059Y-75444063D01*
X135913539Y-75431320D01*
X136069790Y-75300210D01*
X136083961Y-75283321D01*
X136184559Y-75109080D01*
X136192100Y-75088363D01*
X136226078Y-74895662D01*
X136227037Y-74884701D01*
X136227037Y-74001185D01*
X144194114Y-74001185D01*
X144194710Y-74011509D01*
X144229864Y-74261643D01*
X144232137Y-74271732D01*
X144307673Y-74512766D01*
X144311564Y-74522348D01*
X144425452Y-74747808D01*
X144430855Y-74756626D01*
X144580038Y-74960458D01*
X144586809Y-74968275D01*
X144767280Y-75145004D01*
X144775237Y-75151610D01*
X144982148Y-75296492D01*
X144991077Y-75301710D01*
X145218873Y-75410851D01*
X145228535Y-75414540D01*
X145471098Y-75485012D01*
X145481232Y-75487073D01*
X145732048Y-75516981D01*
X145742382Y-75517360D01*
X145994714Y-75505902D01*
X146004972Y-75504588D01*
X146252045Y-75452070D01*
X146261950Y-75449099D01*
X146497128Y-75356933D01*
X146506415Y-75352384D01*
X146723382Y-75223046D01*
X146731801Y-75217041D01*
X146924730Y-75054003D01*
X146932055Y-75046703D01*
X147067060Y-74888073D01*
X147120038Y-74960458D01*
X147126809Y-74968275D01*
X147307280Y-75145004D01*
X147315237Y-75151610D01*
X147509501Y-75287636D01*
X147509500Y-77377410D01*
X147505703Y-77394191D01*
X147504263Y-77412086D01*
X147509500Y-77496495D01*
X147509500Y-77524777D01*
X147510137Y-77533719D01*
X147513088Y-77554325D01*
X147517800Y-77630274D01*
X147521440Y-77647853D01*
X147529798Y-77671006D01*
X147533288Y-77695376D01*
X147538327Y-77712608D01*
X147569831Y-77781897D01*
X147595736Y-77853656D01*
X147604396Y-77869823D01*
X147618435Y-77888795D01*
X147628808Y-77911611D01*
X147638481Y-77926736D01*
X147695330Y-77992714D01*
X147708088Y-78009954D01*
X147714191Y-78017037D01*
X147729352Y-78032197D01*
X147781180Y-78092347D01*
X147794709Y-78104149D01*
X147813454Y-78116299D01*
X151065501Y-81368347D01*
X151065500Y-92113654D01*
X149088214Y-94090940D01*
X148974897Y-94070959D01*
X148963936Y-94070000D01*
X148724064Y-94070000D01*
X148713103Y-94070959D01*
X148476874Y-94112613D01*
X148466247Y-94115460D01*
X148240840Y-94197502D01*
X148230868Y-94202152D01*
X148023132Y-94322088D01*
X148014119Y-94328399D01*
X147830366Y-94482587D01*
X147822587Y-94490366D01*
X147668399Y-94674119D01*
X147662088Y-94683132D01*
X147542152Y-94890868D01*
X147537502Y-94900840D01*
X147455460Y-95126247D01*
X147452613Y-95136874D01*
X147410959Y-95373103D01*
X147410000Y-95384064D01*
X147410000Y-95623936D01*
X147410959Y-95634897D01*
X147452613Y-95871126D01*
X147455460Y-95881753D01*
X147537502Y-96107160D01*
X147542152Y-96117132D01*
X147662088Y-96324868D01*
X147668399Y-96333881D01*
X147822587Y-96517634D01*
X147830366Y-96525413D01*
X148014119Y-96679601D01*
X148023132Y-96685912D01*
X148230868Y-96805848D01*
X148240840Y-96810498D01*
X148466247Y-96892540D01*
X148476874Y-96895387D01*
X148713103Y-96937041D01*
X148724064Y-96938000D01*
X148963936Y-96938000D01*
X148974897Y-96937041D01*
X149211126Y-96895387D01*
X149221753Y-96892540D01*
X149447160Y-96810498D01*
X149457132Y-96805848D01*
X149664868Y-96685912D01*
X149673881Y-96679601D01*
X149857634Y-96525413D01*
X149865413Y-96517634D01*
X150019601Y-96333881D01*
X150025912Y-96324868D01*
X150145848Y-96117132D01*
X150150498Y-96107160D01*
X150232540Y-95881753D01*
X150235387Y-95871126D01*
X150277041Y-95634897D01*
X150278000Y-95623936D01*
X150278000Y-95384064D01*
X150277041Y-95373103D01*
X150257060Y-95259786D01*
X152410948Y-93105898D01*
X152425502Y-93096715D01*
X152439174Y-93085079D01*
X152495169Y-93021677D01*
X152515157Y-93001690D01*
X152521030Y-92994916D01*
X152533506Y-92978269D01*
X152583886Y-92921225D01*
X152593743Y-92906220D01*
X152604205Y-92883936D01*
X152618968Y-92864238D01*
X152627590Y-92848491D01*
X152654305Y-92777227D01*
X152686732Y-92708160D01*
X152692041Y-92690605D01*
X152695529Y-92667261D01*
X152704327Y-92643793D01*
X152708182Y-92626259D01*
X152714636Y-92539414D01*
X152717807Y-92518195D01*
X152718500Y-92508872D01*
X152718500Y-92487412D01*
X152724382Y-92408252D01*
X152723161Y-92390341D01*
X152718500Y-92368506D01*
X152718500Y-81118586D01*
X152722296Y-81101810D01*
X152723736Y-81083915D01*
X152718500Y-80999515D01*
X152718500Y-80971221D01*
X152717863Y-80962279D01*
X152714912Y-80941673D01*
X152710200Y-80865726D01*
X152706560Y-80848146D01*
X152698202Y-80824994D01*
X152694712Y-80800622D01*
X152689673Y-80783391D01*
X152658171Y-80714106D01*
X152632264Y-80642343D01*
X152623604Y-80626176D01*
X152609565Y-80607202D01*
X152599191Y-80584387D01*
X152589519Y-80569262D01*
X152532675Y-80503292D01*
X152519913Y-80486045D01*
X152513809Y-80478962D01*
X152498639Y-80463792D01*
X152446820Y-80403653D01*
X152433291Y-80391851D01*
X152414553Y-80379706D01*
X151237629Y-79202783D01*
X151283538Y-79210878D01*
X151294499Y-79211837D01*
X153508258Y-79211837D01*
X153524634Y-79209681D01*
X153803859Y-79134863D01*
X153828339Y-79122120D01*
X153984590Y-78991010D01*
X153998761Y-78974121D01*
X154099359Y-78799880D01*
X154106900Y-78779163D01*
X154140878Y-78586462D01*
X154141837Y-78575501D01*
X154141837Y-76361742D01*
X154139681Y-76345366D01*
X154064863Y-76066142D01*
X154052120Y-76041662D01*
X153921010Y-75885410D01*
X153904121Y-75871239D01*
X153729880Y-75770641D01*
X153709163Y-75763100D01*
X153516462Y-75729122D01*
X153505501Y-75728163D01*
X151291742Y-75728163D01*
X151275366Y-75730319D01*
X150996142Y-75805137D01*
X150971662Y-75817880D01*
X150815410Y-75948990D01*
X150801239Y-75965879D01*
X150700641Y-76140120D01*
X150693100Y-76160837D01*
X150659122Y-76353538D01*
X150658163Y-76364499D01*
X150658163Y-78578258D01*
X150660319Y-78594634D01*
X150671607Y-78636761D01*
X149162500Y-77127655D01*
X149162500Y-75283183D01*
X149263382Y-75223046D01*
X149271801Y-75217041D01*
X149339674Y-75159684D01*
X149345937Y-75183059D01*
X149358680Y-75207539D01*
X149489790Y-75363790D01*
X149506679Y-75377961D01*
X149680920Y-75478559D01*
X149701637Y-75486100D01*
X149894338Y-75520078D01*
X149905299Y-75521037D01*
X150578191Y-75521037D01*
X150652000Y-75447228D01*
X150652000Y-74211809D01*
X151100000Y-74211809D01*
X151100000Y-75447228D01*
X151173809Y-75521037D01*
X151849458Y-75521037D01*
X151865834Y-75518881D01*
X152145059Y-75444063D01*
X152169539Y-75431320D01*
X152325790Y-75300210D01*
X152339961Y-75283321D01*
X152440559Y-75109080D01*
X152448100Y-75088363D01*
X152482078Y-74895662D01*
X152483037Y-74884701D01*
X152483037Y-74211809D01*
X152409228Y-74138000D01*
X151173809Y-74138000D01*
X151100000Y-74211809D01*
X150652000Y-74211809D01*
X150652000Y-72380772D01*
X151100000Y-72380772D01*
X151100000Y-73616191D01*
X151173809Y-73690000D01*
X152409228Y-73690000D01*
X152483037Y-73616191D01*
X152483037Y-72940542D01*
X152480881Y-72924166D01*
X152406063Y-72644942D01*
X152393320Y-72620462D01*
X152262210Y-72464210D01*
X152245321Y-72450039D01*
X152071080Y-72349441D01*
X152050363Y-72341900D01*
X151857662Y-72307922D01*
X151846701Y-72306963D01*
X151173809Y-72306963D01*
X151100000Y-72380772D01*
X150652000Y-72380772D01*
X150578191Y-72306963D01*
X149902542Y-72306963D01*
X149886166Y-72309119D01*
X149606942Y-72383937D01*
X149582462Y-72396680D01*
X149426210Y-72527790D01*
X149412039Y-72544679D01*
X149342231Y-72665590D01*
X149334337Y-72658229D01*
X149326221Y-72651819D01*
X149115832Y-72512036D01*
X149106778Y-72507038D01*
X148876383Y-72403495D01*
X148866634Y-72400043D01*
X148622423Y-72335519D01*
X148612242Y-72333706D01*
X148360770Y-72309935D01*
X148350429Y-72309808D01*
X148098451Y-72327429D01*
X148088229Y-72328993D01*
X147842513Y-72387531D01*
X147832683Y-72390743D01*
X147599827Y-72488627D01*
X147590654Y-72493402D01*
X147376912Y-72628003D01*
X147368642Y-72634212D01*
X147179754Y-72801914D01*
X147172609Y-72809391D01*
X147065627Y-72941503D01*
X146986031Y-72838146D01*
X146979072Y-72830497D01*
X146794337Y-72658229D01*
X146786221Y-72651819D01*
X146575832Y-72512036D01*
X146566778Y-72507038D01*
X146336383Y-72403495D01*
X146326634Y-72400043D01*
X146082423Y-72335519D01*
X146072242Y-72333706D01*
X145820770Y-72309935D01*
X145810429Y-72309808D01*
X145558451Y-72327429D01*
X145548229Y-72328993D01*
X145302513Y-72387531D01*
X145292683Y-72390743D01*
X145059827Y-72488627D01*
X145050654Y-72493402D01*
X144836912Y-72628003D01*
X144828642Y-72634212D01*
X144639754Y-72801914D01*
X144632609Y-72809391D01*
X144473647Y-73005693D01*
X144467820Y-73014236D01*
X144343054Y-73233864D01*
X144338699Y-73243244D01*
X144251479Y-73480300D01*
X144248716Y-73490266D01*
X144201385Y-73738384D01*
X144200286Y-73748667D01*
X144194114Y-74001185D01*
X136227037Y-74001185D01*
X136227037Y-72940542D01*
X136224881Y-72924166D01*
X136150063Y-72644942D01*
X136137320Y-72620462D01*
X136006210Y-72464210D01*
X135989321Y-72450039D01*
X135815080Y-72349441D01*
X135794363Y-72341900D01*
X135601662Y-72307922D01*
X135590701Y-72306963D01*
X133646542Y-72306963D01*
X133630166Y-72309119D01*
X133350942Y-72383937D01*
X133326462Y-72396680D01*
X133170210Y-72527790D01*
X133156039Y-72544679D01*
X133086231Y-72665590D01*
X133078337Y-72658229D01*
X133070221Y-72651819D01*
X132859832Y-72512036D01*
X132850778Y-72507038D01*
X132620383Y-72403495D01*
X132610634Y-72400043D01*
X132366423Y-72335519D01*
X132356242Y-72333706D01*
X132104770Y-72309935D01*
X132094429Y-72309808D01*
X131842451Y-72327429D01*
X131832229Y-72328993D01*
X131586513Y-72387531D01*
X131576683Y-72390743D01*
X131343827Y-72488627D01*
X131334654Y-72493402D01*
X131120912Y-72628003D01*
X131112642Y-72634212D01*
X130923754Y-72801914D01*
X130916609Y-72809391D01*
X130809627Y-72941503D01*
X130730031Y-72838146D01*
X130723072Y-72830497D01*
X130538337Y-72658229D01*
X130530221Y-72651819D01*
X130319832Y-72512036D01*
X130310778Y-72507038D01*
X130080383Y-72403495D01*
X130070634Y-72400043D01*
X129826423Y-72335519D01*
X129816242Y-72333706D01*
X129564770Y-72309935D01*
X129554429Y-72309808D01*
X129302451Y-72327429D01*
X129292229Y-72328993D01*
X129046513Y-72387531D01*
X129036683Y-72390743D01*
X128803827Y-72488627D01*
X128794654Y-72493402D01*
X128580912Y-72628003D01*
X128572642Y-72634212D01*
X128383754Y-72801914D01*
X128376609Y-72809391D01*
X128217647Y-73005693D01*
X128211820Y-73014236D01*
X128087054Y-73233864D01*
X128082699Y-73243244D01*
X127995479Y-73480300D01*
X127992716Y-73490266D01*
X127945385Y-73738384D01*
X127944286Y-73748667D01*
X127938114Y-74001185D01*
X125856000Y-74001185D01*
X125856000Y-70238064D01*
X126836000Y-70238064D01*
X126836000Y-70477936D01*
X126836959Y-70488897D01*
X126878613Y-70725126D01*
X126881460Y-70735753D01*
X126963502Y-70961160D01*
X126968152Y-70971132D01*
X127088088Y-71178868D01*
X127094399Y-71187881D01*
X127248587Y-71371634D01*
X127256366Y-71379413D01*
X127440119Y-71533601D01*
X127449132Y-71539912D01*
X127656868Y-71659848D01*
X127666840Y-71664498D01*
X127892247Y-71746540D01*
X127902874Y-71749387D01*
X128139103Y-71791041D01*
X128150064Y-71792000D01*
X128389936Y-71792000D01*
X128400897Y-71791041D01*
X128637126Y-71749387D01*
X128647753Y-71746540D01*
X128873160Y-71664498D01*
X128883132Y-71659848D01*
X129090868Y-71539912D01*
X129099881Y-71533601D01*
X129283634Y-71379413D01*
X129291413Y-71371634D01*
X129445601Y-71187881D01*
X129451912Y-71178868D01*
X129571848Y-70971132D01*
X129576498Y-70961160D01*
X129658540Y-70735753D01*
X129661387Y-70725126D01*
X129703041Y-70488897D01*
X129704000Y-70477936D01*
X129704000Y-70238064D01*
X134456000Y-70238064D01*
X134456000Y-70477936D01*
X134456959Y-70488897D01*
X134498613Y-70725126D01*
X134501460Y-70735753D01*
X134583502Y-70961160D01*
X134588152Y-70971132D01*
X134708088Y-71178868D01*
X134714399Y-71187881D01*
X134868587Y-71371634D01*
X134876366Y-71379413D01*
X135060119Y-71533601D01*
X135069132Y-71539912D01*
X135276868Y-71659848D01*
X135286840Y-71664498D01*
X135512247Y-71746540D01*
X135522874Y-71749387D01*
X135759103Y-71791041D01*
X135770064Y-71792000D01*
X136009936Y-71792000D01*
X136020897Y-71791041D01*
X136257126Y-71749387D01*
X136267753Y-71746540D01*
X136493160Y-71664498D01*
X136503132Y-71659848D01*
X136710868Y-71539912D01*
X136719881Y-71533601D01*
X136903634Y-71379413D01*
X136911413Y-71371634D01*
X137065601Y-71187881D01*
X137071912Y-71178868D01*
X137191848Y-70971132D01*
X137196498Y-70961160D01*
X137278540Y-70735753D01*
X137281387Y-70725126D01*
X137323041Y-70488897D01*
X137324000Y-70477936D01*
X137324000Y-70238064D01*
X143092000Y-70238064D01*
X143092000Y-70477936D01*
X143092959Y-70488897D01*
X143134613Y-70725126D01*
X143137460Y-70735753D01*
X143219502Y-70961160D01*
X143224152Y-70971132D01*
X143344088Y-71178868D01*
X143350399Y-71187881D01*
X143504587Y-71371634D01*
X143512366Y-71379413D01*
X143696119Y-71533601D01*
X143705132Y-71539912D01*
X143912868Y-71659848D01*
X143922840Y-71664498D01*
X144148247Y-71746540D01*
X144158874Y-71749387D01*
X144395103Y-71791041D01*
X144406064Y-71792000D01*
X144645936Y-71792000D01*
X144656897Y-71791041D01*
X144893126Y-71749387D01*
X144903753Y-71746540D01*
X145129160Y-71664498D01*
X145139132Y-71659848D01*
X145346868Y-71539912D01*
X145355881Y-71533601D01*
X145539634Y-71379413D01*
X145547413Y-71371634D01*
X145701601Y-71187881D01*
X145707912Y-71178868D01*
X145827848Y-70971132D01*
X145832498Y-70961160D01*
X145914540Y-70735753D01*
X145917387Y-70725126D01*
X145959041Y-70488897D01*
X145960000Y-70477936D01*
X145960000Y-70238064D01*
X150712000Y-70238064D01*
X150712000Y-70477936D01*
X150712959Y-70488897D01*
X150754613Y-70725126D01*
X150757460Y-70735753D01*
X150839502Y-70961160D01*
X150844152Y-70971132D01*
X150964088Y-71178868D01*
X150970399Y-71187881D01*
X151124587Y-71371634D01*
X151132366Y-71379413D01*
X151316119Y-71533601D01*
X151325132Y-71539912D01*
X151532868Y-71659848D01*
X151542840Y-71664498D01*
X151768247Y-71746540D01*
X151778874Y-71749387D01*
X152015103Y-71791041D01*
X152026064Y-71792000D01*
X152265936Y-71792000D01*
X152276897Y-71791041D01*
X152513126Y-71749387D01*
X152523753Y-71746540D01*
X152749160Y-71664498D01*
X152759132Y-71659848D01*
X152966868Y-71539912D01*
X152975881Y-71533601D01*
X153159634Y-71379413D01*
X153167413Y-71371634D01*
X153321601Y-71187881D01*
X153327912Y-71178868D01*
X153447848Y-70971132D01*
X153452498Y-70961160D01*
X153534540Y-70735753D01*
X153537387Y-70725126D01*
X153579041Y-70488897D01*
X153580000Y-70477936D01*
X153580000Y-70238064D01*
X153579041Y-70227103D01*
X153537387Y-69990874D01*
X153534540Y-69980247D01*
X153452498Y-69754840D01*
X153447848Y-69744868D01*
X153327912Y-69537132D01*
X153321601Y-69528119D01*
X153167413Y-69344366D01*
X153159634Y-69336587D01*
X152975881Y-69182399D01*
X152966868Y-69176088D01*
X152759132Y-69056152D01*
X152749160Y-69051502D01*
X152523753Y-68969460D01*
X152513126Y-68966613D01*
X152276897Y-68924959D01*
X152265936Y-68924000D01*
X152026064Y-68924000D01*
X152015103Y-68924959D01*
X151778874Y-68966613D01*
X151768247Y-68969460D01*
X151542840Y-69051502D01*
X151532868Y-69056152D01*
X151325132Y-69176088D01*
X151316119Y-69182399D01*
X151132366Y-69336587D01*
X151124587Y-69344366D01*
X150970399Y-69528119D01*
X150964088Y-69537132D01*
X150844152Y-69744868D01*
X150839502Y-69754840D01*
X150757460Y-69980247D01*
X150754613Y-69990874D01*
X150712959Y-70227103D01*
X150712000Y-70238064D01*
X145960000Y-70238064D01*
X145959041Y-70227103D01*
X145917387Y-69990874D01*
X145914540Y-69980247D01*
X145832498Y-69754840D01*
X145827848Y-69744868D01*
X145707912Y-69537132D01*
X145701601Y-69528119D01*
X145547413Y-69344366D01*
X145539634Y-69336587D01*
X145355881Y-69182399D01*
X145346868Y-69176088D01*
X145139132Y-69056152D01*
X145129160Y-69051502D01*
X144903753Y-68969460D01*
X144893126Y-68966613D01*
X144656897Y-68924959D01*
X144645936Y-68924000D01*
X144406064Y-68924000D01*
X144395103Y-68924959D01*
X144158874Y-68966613D01*
X144148247Y-68969460D01*
X143922840Y-69051502D01*
X143912868Y-69056152D01*
X143705132Y-69176088D01*
X143696119Y-69182399D01*
X143512366Y-69336587D01*
X143504587Y-69344366D01*
X143350399Y-69528119D01*
X143344088Y-69537132D01*
X143224152Y-69744868D01*
X143219502Y-69754840D01*
X143137460Y-69980247D01*
X143134613Y-69990874D01*
X143092959Y-70227103D01*
X143092000Y-70238064D01*
X137324000Y-70238064D01*
X137323041Y-70227103D01*
X137281387Y-69990874D01*
X137278540Y-69980247D01*
X137196498Y-69754840D01*
X137191848Y-69744868D01*
X137071912Y-69537132D01*
X137065601Y-69528119D01*
X136911413Y-69344366D01*
X136903634Y-69336587D01*
X136719881Y-69182399D01*
X136710868Y-69176088D01*
X136503132Y-69056152D01*
X136493160Y-69051502D01*
X136267753Y-68969460D01*
X136257126Y-68966613D01*
X136020897Y-68924959D01*
X136009936Y-68924000D01*
X135770064Y-68924000D01*
X135759103Y-68924959D01*
X135522874Y-68966613D01*
X135512247Y-68969460D01*
X135286840Y-69051502D01*
X135276868Y-69056152D01*
X135069132Y-69176088D01*
X135060119Y-69182399D01*
X134876366Y-69336587D01*
X134868587Y-69344366D01*
X134714399Y-69528119D01*
X134708088Y-69537132D01*
X134588152Y-69744868D01*
X134583502Y-69754840D01*
X134501460Y-69980247D01*
X134498613Y-69990874D01*
X134456959Y-70227103D01*
X134456000Y-70238064D01*
X129704000Y-70238064D01*
X129703041Y-70227103D01*
X129661387Y-69990874D01*
X129658540Y-69980247D01*
X129576498Y-69754840D01*
X129571848Y-69744868D01*
X129451912Y-69537132D01*
X129445601Y-69528119D01*
X129291413Y-69344366D01*
X129283634Y-69336587D01*
X129099881Y-69182399D01*
X129090868Y-69176088D01*
X128883132Y-69056152D01*
X128873160Y-69051502D01*
X128647753Y-68969460D01*
X128637126Y-68966613D01*
X128400897Y-68924959D01*
X128389936Y-68924000D01*
X128150064Y-68924000D01*
X128139103Y-68924959D01*
X127902874Y-68966613D01*
X127892247Y-68969460D01*
X127666840Y-69051502D01*
X127656868Y-69056152D01*
X127449132Y-69176088D01*
X127440119Y-69182399D01*
X127256366Y-69336587D01*
X127248587Y-69344366D01*
X127094399Y-69528119D01*
X127088088Y-69537132D01*
X126968152Y-69744868D01*
X126963502Y-69754840D01*
X126881460Y-69980247D01*
X126878613Y-69990874D01*
X126836959Y-70227103D01*
X126836000Y-70238064D01*
X125856000Y-70238064D01*
X125856000Y-68177601D01*
X125930577Y-68252178D01*
X125938106Y-68258608D01*
X126154066Y-68415512D01*
X126162508Y-68420685D01*
X126400354Y-68541874D01*
X126409501Y-68545663D01*
X126663377Y-68628153D01*
X126673005Y-68630464D01*
X126936659Y-68672222D01*
X126946530Y-68672999D01*
X127213470Y-68672999D01*
X127223341Y-68672222D01*
X127486995Y-68630464D01*
X127496623Y-68628153D01*
X127750499Y-68545663D01*
X127759646Y-68541874D01*
X127997492Y-68420685D01*
X128005934Y-68415512D01*
X128221894Y-68258608D01*
X128229423Y-68252178D01*
X128418178Y-68063423D01*
X128424608Y-68055894D01*
X128581512Y-67839934D01*
X128586685Y-67831492D01*
X128707874Y-67593646D01*
X128711663Y-67584499D01*
X128794153Y-67330623D01*
X128796464Y-67320995D01*
X128838222Y-67057341D01*
X128838999Y-67047470D01*
X128838999Y-66780530D01*
X135321001Y-66780530D01*
X135321001Y-67047470D01*
X135321778Y-67057341D01*
X135363536Y-67320995D01*
X135365847Y-67330623D01*
X135448337Y-67584499D01*
X135452126Y-67593646D01*
X135573315Y-67831492D01*
X135578488Y-67839934D01*
X135735392Y-68055894D01*
X135741822Y-68063423D01*
X135930577Y-68252178D01*
X135938106Y-68258608D01*
X136154066Y-68415512D01*
X136162508Y-68420685D01*
X136400354Y-68541874D01*
X136409501Y-68545663D01*
X136663377Y-68628153D01*
X136673005Y-68630464D01*
X136936659Y-68672222D01*
X136946530Y-68672999D01*
X137213470Y-68672999D01*
X137223341Y-68672222D01*
X137486995Y-68630464D01*
X137496623Y-68628153D01*
X137750499Y-68545663D01*
X137759646Y-68541874D01*
X137997492Y-68420685D01*
X138005934Y-68415512D01*
X138221894Y-68258608D01*
X138229423Y-68252178D01*
X138418178Y-68063423D01*
X138424608Y-68055894D01*
X138581512Y-67839934D01*
X138586685Y-67831492D01*
X138707874Y-67593646D01*
X138711663Y-67584499D01*
X138794153Y-67330623D01*
X138796464Y-67320995D01*
X138838222Y-67057341D01*
X138838999Y-67047470D01*
X138838999Y-66780530D01*
X141577001Y-66780530D01*
X141577001Y-67047470D01*
X141577778Y-67057341D01*
X141619536Y-67320995D01*
X141621847Y-67330623D01*
X141704337Y-67584499D01*
X141708126Y-67593646D01*
X141829315Y-67831492D01*
X141834488Y-67839934D01*
X141991392Y-68055894D01*
X141997822Y-68063423D01*
X142186577Y-68252178D01*
X142194106Y-68258608D01*
X142410066Y-68415512D01*
X142418508Y-68420685D01*
X142656354Y-68541874D01*
X142665501Y-68545663D01*
X142919377Y-68628153D01*
X142929005Y-68630464D01*
X143192659Y-68672222D01*
X143202530Y-68672999D01*
X143469470Y-68672999D01*
X143479341Y-68672222D01*
X143742995Y-68630464D01*
X143752623Y-68628153D01*
X144006499Y-68545663D01*
X144015646Y-68541874D01*
X144253492Y-68420685D01*
X144261934Y-68415512D01*
X144477894Y-68258608D01*
X144485423Y-68252178D01*
X144674178Y-68063423D01*
X144680608Y-68055894D01*
X144837512Y-67839934D01*
X144842685Y-67831492D01*
X144963874Y-67593646D01*
X144967663Y-67584499D01*
X145050153Y-67330623D01*
X145052464Y-67320995D01*
X145094222Y-67057341D01*
X145094999Y-67047470D01*
X145094999Y-66780530D01*
X145094222Y-66770659D01*
X145052464Y-66507005D01*
X145050153Y-66497377D01*
X144967663Y-66243501D01*
X144963874Y-66234354D01*
X144842685Y-65996508D01*
X144837512Y-65988066D01*
X144680608Y-65772106D01*
X144674178Y-65764577D01*
X144485423Y-65575822D01*
X144477894Y-65569392D01*
X144261934Y-65412488D01*
X144253492Y-65407315D01*
X144015646Y-65286126D01*
X144006499Y-65282337D01*
X143752623Y-65199847D01*
X143742995Y-65197536D01*
X143479341Y-65155778D01*
X143469470Y-65155001D01*
X143202530Y-65155001D01*
X143192659Y-65155778D01*
X142929005Y-65197536D01*
X142919377Y-65199847D01*
X142665501Y-65282337D01*
X142656354Y-65286126D01*
X142418508Y-65407315D01*
X142410066Y-65412488D01*
X142194106Y-65569392D01*
X142186577Y-65575822D01*
X141997822Y-65764577D01*
X141991392Y-65772106D01*
X141834488Y-65988066D01*
X141829315Y-65996508D01*
X141708126Y-66234354D01*
X141704337Y-66243501D01*
X141621847Y-66497377D01*
X141619536Y-66507005D01*
X141577778Y-66770659D01*
X141577001Y-66780530D01*
X138838999Y-66780530D01*
X138838222Y-66770659D01*
X138796464Y-66507005D01*
X138794153Y-66497377D01*
X138711663Y-66243501D01*
X138707874Y-66234354D01*
X138586685Y-65996508D01*
X138581512Y-65988066D01*
X138424608Y-65772106D01*
X138418178Y-65764577D01*
X138229423Y-65575822D01*
X138221894Y-65569392D01*
X138005934Y-65412488D01*
X137997492Y-65407315D01*
X137759646Y-65286126D01*
X137750499Y-65282337D01*
X137496623Y-65199847D01*
X137486995Y-65197536D01*
X137223341Y-65155778D01*
X137213470Y-65155001D01*
X136946530Y-65155001D01*
X136936659Y-65155778D01*
X136673005Y-65197536D01*
X136663377Y-65199847D01*
X136409501Y-65282337D01*
X136400354Y-65286126D01*
X136162508Y-65407315D01*
X136154066Y-65412488D01*
X135938106Y-65569392D01*
X135930577Y-65575822D01*
X135741822Y-65764577D01*
X135735392Y-65772106D01*
X135578488Y-65988066D01*
X135573315Y-65996508D01*
X135452126Y-66234354D01*
X135448337Y-66243501D01*
X135365847Y-66497377D01*
X135363536Y-66507005D01*
X135321778Y-66770659D01*
X135321001Y-66780530D01*
X128838999Y-66780530D01*
X128838222Y-66770659D01*
X128796464Y-66507005D01*
X128794153Y-66497377D01*
X128711663Y-66243501D01*
X128707874Y-66234354D01*
X128586685Y-65996508D01*
X128581512Y-65988066D01*
X128424608Y-65772106D01*
X128418178Y-65764577D01*
X128229423Y-65575822D01*
X128221894Y-65569392D01*
X128005934Y-65412488D01*
X127997492Y-65407315D01*
X127759646Y-65286126D01*
X127750499Y-65282337D01*
X127496623Y-65199847D01*
X127486995Y-65197536D01*
X127223341Y-65155778D01*
X127213470Y-65155001D01*
X126946530Y-65155001D01*
X126936659Y-65155778D01*
X126673005Y-65197536D01*
X126663377Y-65199847D01*
X126409501Y-65282337D01*
X126400354Y-65286126D01*
X126162508Y-65407315D01*
X126154066Y-65412488D01*
X125938106Y-65569392D01*
X125930577Y-65575822D01*
X125856000Y-65650399D01*
X125856000Y-62102000D01*
X137330963Y-62102000D01*
X137330963Y-63838458D01*
G37*
D21*
X137330963Y-63838458D02*
X137333119Y-63854834D01*
X137407937Y-64134059D01*
X137420680Y-64158539D01*
X137551790Y-64314790D01*
X137568679Y-64328961D01*
X137742920Y-64429559D01*
X137763637Y-64437100D01*
X137956338Y-64471078D01*
X137967299Y-64472037D01*
X139911458Y-64472037D01*
X139927834Y-64469881D01*
X140207059Y-64395063D01*
X140231539Y-64382320D01*
X140387790Y-64251210D01*
X140401961Y-64234321D01*
X140472025Y-64112966D01*
X140664148Y-64247492D01*
X140673077Y-64252710D01*
X140900874Y-64361851D01*
X140910535Y-64365540D01*
X141153306Y-64436072D01*
X141254000Y-64360469D01*
X141254000Y-63162809D01*
X141702000Y-63162809D01*
X141702000Y-64356895D01*
X141795411Y-64432538D01*
X141934045Y-64403071D01*
X141943950Y-64400099D01*
X142179128Y-64307933D01*
X142188415Y-64303384D01*
X142405382Y-64174046D01*
X142413801Y-64168041D01*
X142606730Y-64005003D01*
X142614055Y-63997703D01*
X142777766Y-63805344D01*
X142783801Y-63796946D01*
X142913895Y-63580431D01*
X142918477Y-63571161D01*
X143011463Y-63336306D01*
X143014470Y-63326411D01*
X143045529Y-63182753D01*
X142969880Y-63089000D01*
X141775809Y-63089000D01*
X141702000Y-63162809D01*
X141254000Y-63162809D01*
X141254000Y-62641000D01*
X142971741Y-62641000D01*
X143047226Y-62551990D01*
X143035174Y-62479195D01*
X143032655Y-62469166D01*
X142951253Y-62230050D01*
X142947130Y-62220566D01*
X142883555Y-62102000D01*
X154560000Y-62102000D01*
X154560000Y-65650399D01*
X154485423Y-65575822D01*
X154477894Y-65569392D01*
X154261934Y-65412488D01*
X154253492Y-65407315D01*
X154015646Y-65286126D01*
X154006499Y-65282337D01*
X153752623Y-65199847D01*
X153742995Y-65197536D01*
X153479341Y-65155778D01*
X153469470Y-65155001D01*
X153202530Y-65155001D01*
X153192659Y-65155778D01*
X152929005Y-65197536D01*
X152919377Y-65199847D01*
X152665501Y-65282337D01*
X152656354Y-65286126D01*
X152418508Y-65407315D01*
X152410066Y-65412488D01*
X152194106Y-65569392D01*
X152186577Y-65575822D01*
X151997822Y-65764577D01*
X151991392Y-65772106D01*
X151834488Y-65988066D01*
X151829315Y-65996508D01*
X151708126Y-66234354D01*
X151704337Y-66243501D01*
X151621847Y-66497377D01*
X151619536Y-66507005D01*
X151577778Y-66770659D01*
X151577001Y-66780530D01*
X151577001Y-67047470D01*
X151577778Y-67057341D01*
X151619536Y-67320995D01*
X151621847Y-67330623D01*
X151704337Y-67584499D01*
X151708126Y-67593646D01*
X151829315Y-67831492D01*
X151834488Y-67839934D01*
X151991392Y-68055894D01*
X151997822Y-68063423D01*
X152186577Y-68252178D01*
X152194106Y-68258608D01*
X152410066Y-68415512D01*
X152418508Y-68420685D01*
X152656354Y-68541874D01*
X152665501Y-68545663D01*
X152919377Y-68628153D01*
X152929005Y-68630464D01*
X153192659Y-68672222D01*
X153202530Y-68672999D01*
X153469470Y-68672999D01*
X153479341Y-68672222D01*
X153742995Y-68630464D01*
X153752623Y-68628153D01*
X154006499Y-68545663D01*
X154015646Y-68541874D01*
X154253492Y-68420685D01*
X154261934Y-68415512D01*
X154477894Y-68258608D01*
X154485423Y-68252178D01*
X154560000Y-68177601D01*
X154560001Y-100966000D01*
X147428000Y-100966000D01*
X147432730Y-100962003D01*
X147440055Y-100954703D01*
X147603766Y-100762344D01*
X147609801Y-100753946D01*
X147739895Y-100537431D01*
X147744477Y-100528161D01*
X147837463Y-100293306D01*
X147840470Y-100283411D01*
X147894011Y-100035769D01*
X147895418Y-100023969D01*
X147903385Y-99698013D01*
X147902556Y-99686158D01*
X147861175Y-99436197D01*
X147858655Y-99426167D01*
X147777253Y-99187050D01*
X147773130Y-99177566D01*
X147653767Y-98954955D01*
X147648149Y-98946271D01*
X147494031Y-98746146D01*
X147487072Y-98738497D01*
X147302337Y-98566229D01*
X147294221Y-98559819D01*
X147083832Y-98420036D01*
X147074778Y-98415038D01*
X146844383Y-98311495D01*
X146834634Y-98308043D01*
X146590423Y-98243519D01*
X146580242Y-98241706D01*
X146328770Y-98217935D01*
X146318429Y-98217808D01*
X146066451Y-98235429D01*
X146056229Y-98236993D01*
X145810513Y-98295531D01*
X145800683Y-98298743D01*
X145567827Y-98396627D01*
X145558654Y-98401402D01*
X145344912Y-98536003D01*
X145336642Y-98542212D01*
X145147754Y-98709914D01*
X145140609Y-98717391D01*
X145033627Y-98849503D01*
X144954031Y-98746146D01*
X144947072Y-98738497D01*
X144762337Y-98566229D01*
X144754221Y-98559819D01*
X144543832Y-98420036D01*
X144534778Y-98415038D01*
X144304383Y-98311495D01*
X144294634Y-98308043D01*
X144050423Y-98243519D01*
X144040242Y-98241706D01*
X143788770Y-98217935D01*
X143778429Y-98217808D01*
X143526451Y-98235429D01*
X143516229Y-98236993D01*
X143447500Y-98253366D01*
X143447500Y-88215458D01*
X147438610Y-88215458D01*
X147537502Y-88487160D01*
X147542152Y-88497132D01*
X147662088Y-88704868D01*
X147668399Y-88713881D01*
X147822587Y-88897634D01*
X147830366Y-88905413D01*
X148014119Y-89059601D01*
X148023132Y-89065912D01*
X148230868Y-89185848D01*
X148240840Y-89190498D01*
X148512541Y-89289390D01*
X148620000Y-89214147D01*
X148620000Y-89214146D01*
X149067999Y-89214146D01*
X149175458Y-89289390D01*
X149447160Y-89190498D01*
X149457132Y-89185848D01*
X149664868Y-89065912D01*
X149673881Y-89059601D01*
X149857634Y-88905413D01*
X149865413Y-88897634D01*
X150019601Y-88713881D01*
X150025912Y-88704868D01*
X150145848Y-88497132D01*
X150150498Y-88487160D01*
X150249390Y-88215459D01*
X150174147Y-88108000D01*
X149141809Y-88108000D01*
X149068000Y-88181809D01*
X149067999Y-89214146D01*
X148620000Y-89214146D01*
X148620000Y-88181809D01*
X148546191Y-88108000D01*
X147513854Y-88107999D01*
X147438610Y-88215458D01*
X143447500Y-88215458D01*
X143447500Y-87552541D01*
X147438610Y-87552541D01*
X147513853Y-87660000D01*
X148546191Y-87660000D01*
X148620000Y-87586191D01*
X148620001Y-86553854D01*
X148620000Y-86553853D01*
X149068000Y-86553853D01*
X149068000Y-87586191D01*
X149141809Y-87660000D01*
X150174146Y-87660001D01*
X150249390Y-87552542D01*
X150150498Y-87280840D01*
X150145848Y-87270868D01*
X150025912Y-87063132D01*
X150019601Y-87054119D01*
X149865413Y-86870366D01*
X149857634Y-86862587D01*
X149673881Y-86708399D01*
X149664868Y-86702088D01*
X149457132Y-86582152D01*
X149447160Y-86577502D01*
X149175459Y-86478610D01*
X149068000Y-86553853D01*
X148620000Y-86553853D01*
X148512542Y-86478610D01*
X148240840Y-86577502D01*
X148230868Y-86582152D01*
X148023132Y-86702088D01*
X148014119Y-86708399D01*
X147830366Y-86862587D01*
X147822587Y-86870366D01*
X147668399Y-87054119D01*
X147662088Y-87063132D01*
X147542152Y-87270868D01*
X147537502Y-87280840D01*
X147438610Y-87552541D01*
X143447500Y-87552541D01*
X143447500Y-83268499D01*
X145878163Y-83268499D01*
X145878163Y-84882258D01*
X145880319Y-84898634D01*
X145955137Y-85177859D01*
X145967880Y-85202339D01*
X146098990Y-85358590D01*
X146115879Y-85372761D01*
X146290120Y-85473359D01*
X146310837Y-85480900D01*
X146503538Y-85514878D01*
X146514499Y-85515837D01*
X148128258Y-85515837D01*
X148144634Y-85513681D01*
X148423859Y-85438863D01*
X148448339Y-85426120D01*
X148604590Y-85295010D01*
X148618761Y-85278121D01*
X148719359Y-85103880D01*
X148726900Y-85083163D01*
X148760878Y-84890462D01*
X148761837Y-84879501D01*
X148761837Y-83265742D01*
X148759681Y-83249366D01*
X148684863Y-82970142D01*
X148672120Y-82945662D01*
X148541010Y-82789410D01*
X148524121Y-82775239D01*
X148349880Y-82674641D01*
X148329163Y-82667100D01*
X148136462Y-82633122D01*
X148125501Y-82632163D01*
X148061378Y-82632163D01*
X147372191Y-81942974D01*
X147267809Y-81942974D01*
X146578622Y-82632163D01*
X146511742Y-82632163D01*
X146495366Y-82634319D01*
X146216142Y-82709137D01*
X146191662Y-82721880D01*
X146035410Y-82852990D01*
X146021239Y-82869879D01*
X145920641Y-83044120D01*
X145913100Y-83064837D01*
X145879122Y-83257538D01*
X145878163Y-83268499D01*
X143447500Y-83268499D01*
X143447500Y-81454064D01*
X145886000Y-81454064D01*
X145886000Y-81693936D01*
X145886959Y-81704897D01*
X145928613Y-81941126D01*
X145931460Y-81951753D01*
X146013502Y-82177160D01*
X146018152Y-82187132D01*
X146103254Y-82334532D01*
X146226463Y-82350752D01*
X146951026Y-81626191D01*
X146951026Y-81521809D01*
X147688974Y-81521809D01*
X147688974Y-81626191D01*
X148413537Y-82350752D01*
X148536746Y-82334532D01*
X148621848Y-82187132D01*
X148626498Y-82177160D01*
X148708540Y-81951753D01*
X148711387Y-81941126D01*
X148753041Y-81704897D01*
X148754000Y-81693936D01*
X148754000Y-81454064D01*
X148753041Y-81443103D01*
X148711387Y-81206874D01*
X148708540Y-81196247D01*
X148626498Y-80970840D01*
X148621848Y-80960868D01*
X148536746Y-80813468D01*
X148413537Y-80797248D01*
X147688974Y-81521809D01*
X146951026Y-81521809D01*
X146226463Y-80797248D01*
X146103254Y-80813468D01*
X146018152Y-80960868D01*
X146013502Y-80970840D01*
X145931460Y-81196247D01*
X145928613Y-81206874D01*
X145886959Y-81443103D01*
X145886000Y-81454064D01*
X143447500Y-81454064D01*
X143447500Y-80480463D01*
X146543248Y-80480463D01*
X147267809Y-81205026D01*
X147372191Y-81205026D01*
X148096752Y-80480463D01*
X148080532Y-80357254D01*
X147933132Y-80272152D01*
X147923160Y-80267502D01*
X147697753Y-80185460D01*
X147687126Y-80182613D01*
X147450897Y-80140959D01*
X147439936Y-80140000D01*
X147200064Y-80140000D01*
X147189103Y-80140959D01*
X146952874Y-80182613D01*
X146942247Y-80185460D01*
X146716840Y-80267502D01*
X146706868Y-80272152D01*
X146559468Y-80357254D01*
X146543248Y-80480463D01*
X143447500Y-80480463D01*
X143447500Y-78959590D01*
X143451297Y-78942809D01*
X143452737Y-78924914D01*
X143447500Y-78840505D01*
X143447500Y-78812222D01*
X143446863Y-78803280D01*
X143443912Y-78782674D01*
X143439200Y-78706725D01*
X143435560Y-78689146D01*
X143427202Y-78665993D01*
X143423712Y-78641623D01*
X143418673Y-78624391D01*
X143387169Y-78555102D01*
X143361264Y-78483343D01*
X143352604Y-78467176D01*
X143338565Y-78448204D01*
X143328192Y-78425388D01*
X143318519Y-78410263D01*
X143261674Y-78344291D01*
X143248913Y-78327046D01*
X143242809Y-78319962D01*
X143227644Y-78304798D01*
X143175820Y-78244653D01*
X143162291Y-78232851D01*
X143143552Y-78220705D01*
X142705186Y-77782339D01*
X143073855Y-77782339D01*
X143087921Y-77871142D01*
X143090232Y-77880769D01*
X143171505Y-78130902D01*
X143175294Y-78140050D01*
X143294696Y-78374390D01*
X143299869Y-78382832D01*
X143454460Y-78595608D01*
X143460890Y-78603137D01*
X143646863Y-78789110D01*
X143654392Y-78795540D01*
X143867168Y-78950131D01*
X143875610Y-78955304D01*
X144109950Y-79074706D01*
X144119098Y-79078495D01*
X144369231Y-79159768D01*
X144378858Y-79162079D01*
X144467660Y-79176145D01*
X144556000Y-79100696D01*
X145003999Y-79100696D01*
X145092339Y-79176145D01*
X145181142Y-79162079D01*
X145190769Y-79159768D01*
X145440902Y-79078495D01*
X145450050Y-79074706D01*
X145684390Y-78955304D01*
X145692832Y-78950131D01*
X145905608Y-78795540D01*
X145913137Y-78789110D01*
X146099110Y-78603137D01*
X146105540Y-78595608D01*
X146260131Y-78382832D01*
X146265304Y-78374390D01*
X146384706Y-78140050D01*
X146388495Y-78130902D01*
X146469768Y-77880769D01*
X146472079Y-77871142D01*
X146486145Y-77782340D01*
X146410696Y-77694000D01*
X145077809Y-77693999D01*
X145004000Y-77767808D01*
X145003999Y-79100696D01*
X144556000Y-79100696D01*
X144556001Y-77767809D01*
X144482192Y-77694000D01*
X143149304Y-77693999D01*
X143073855Y-77782339D01*
X142705186Y-77782339D01*
X142431500Y-77508654D01*
X142431500Y-77487837D01*
X142513258Y-77487837D01*
X142529634Y-77485681D01*
X142808859Y-77410863D01*
X142833339Y-77398120D01*
X142989590Y-77267010D01*
X143003761Y-77250121D01*
X143080173Y-77117771D01*
X143073855Y-77157660D01*
X143149304Y-77246000D01*
X144482191Y-77246001D01*
X144556000Y-77172192D01*
X144556000Y-77172191D01*
X145003999Y-77172191D01*
X145077808Y-77246000D01*
X146410696Y-77246001D01*
X146486145Y-77157661D01*
X146472079Y-77068858D01*
X146469768Y-77059231D01*
X146388495Y-76809098D01*
X146384706Y-76799950D01*
X146265304Y-76565610D01*
X146260131Y-76557168D01*
X146105540Y-76344392D01*
X146099110Y-76336863D01*
X145913137Y-76150890D01*
X145905608Y-76144460D01*
X145692832Y-75989869D01*
X145684390Y-75984696D01*
X145450050Y-75865294D01*
X145440902Y-75861505D01*
X145190769Y-75780232D01*
X145181142Y-75777921D01*
X145092340Y-75763855D01*
X145004000Y-75839304D01*
X145003999Y-77172191D01*
X144556000Y-77172191D01*
X144556001Y-75839304D01*
X144467661Y-75763855D01*
X144378858Y-75777921D01*
X144369231Y-75780232D01*
X144119098Y-75861505D01*
X144109950Y-75865294D01*
X143875610Y-75984696D01*
X143867168Y-75989869D01*
X143654392Y-76144460D01*
X143646863Y-76150890D01*
X143460890Y-76336863D01*
X143454460Y-76344392D01*
X143299869Y-76557168D01*
X143294696Y-76565610D01*
X143175294Y-76799950D01*
X143171505Y-76809098D01*
X143136043Y-76918238D01*
X143145878Y-76862462D01*
X143146837Y-76851501D01*
X143146837Y-75037742D01*
X143144681Y-75021366D01*
X143069863Y-74742142D01*
X143057120Y-74717662D01*
X142926010Y-74561410D01*
X142909121Y-74547239D01*
X142734880Y-74446641D01*
X142714163Y-74439100D01*
X142521462Y-74405122D01*
X142510501Y-74404163D01*
X140696742Y-74404163D01*
X140680366Y-74406319D01*
X140401142Y-74481137D01*
X140376662Y-74493880D01*
X140220410Y-74624990D01*
X140206239Y-74641879D01*
X140105641Y-74816120D01*
X140104998Y-74817886D01*
X139988003Y-74714378D01*
X139979440Y-74708007D01*
X139767291Y-74576470D01*
X139757778Y-74571633D01*
X139526500Y-74477721D01*
X139516308Y-74474556D01*
X139272513Y-74420954D01*
X139261934Y-74419552D01*
X139012592Y-74407794D01*
X139001928Y-74408194D01*
X138754170Y-74438614D01*
X138743725Y-74440806D01*
X138504635Y-74512537D01*
X138494709Y-74516457D01*
X138271123Y-74627446D01*
X138262000Y-74632982D01*
X138060311Y-74780056D01*
X138052250Y-74787051D01*
X137878225Y-74966005D01*
X137871459Y-74974257D01*
X137730073Y-75179974D01*
X137724793Y-75189249D01*
X137620090Y-75415847D01*
X137616448Y-75425879D01*
X137551422Y-75666878D01*
X137549523Y-75677380D01*
X137526032Y-75925891D01*
X137525930Y-75936562D01*
X137544646Y-76185477D01*
X137546343Y-76196013D01*
X137606731Y-76438218D01*
X137610179Y-76448317D01*
X137710512Y-76676884D01*
X137715613Y-76686258D01*
X137853023Y-76894650D01*
X137859630Y-76903031D01*
X138030187Y-77085294D01*
X138038112Y-77092442D01*
X138236941Y-77243361D01*
X138245957Y-77249071D01*
X138467371Y-77364332D01*
X138477220Y-77368442D01*
X138714889Y-77444749D01*
X138725290Y-77447140D01*
X138972417Y-77482312D01*
X138983072Y-77482917D01*
X139232593Y-77475948D01*
X139243198Y-77474749D01*
X139487977Y-77425837D01*
X139498228Y-77422868D01*
X139731267Y-77333413D01*
X139740871Y-77328760D01*
X139955506Y-77201319D01*
X139964188Y-77195114D01*
X140117338Y-77064773D01*
X140140137Y-77149859D01*
X140152880Y-77174339D01*
X140283990Y-77330590D01*
X140300879Y-77344761D01*
X140475120Y-77445359D01*
X140495837Y-77452900D01*
X140688538Y-77486878D01*
X140699499Y-77487837D01*
X140778500Y-77487837D01*
X140778500Y-77758410D01*
X140774703Y-77775191D01*
X140773263Y-77793086D01*
X140778500Y-77877495D01*
X140778500Y-77905777D01*
X140779137Y-77914719D01*
X140782088Y-77935325D01*
X140786800Y-78011274D01*
X140790440Y-78028853D01*
X140798798Y-78052006D01*
X140802288Y-78076376D01*
X140807327Y-78093608D01*
X140838831Y-78162897D01*
X140864736Y-78234656D01*
X140873396Y-78250823D01*
X140887435Y-78269795D01*
X140897808Y-78292611D01*
X140907481Y-78307736D01*
X140964330Y-78373714D01*
X140977088Y-78390954D01*
X140983191Y-78398037D01*
X140998352Y-78413197D01*
X141050180Y-78473346D01*
X141063707Y-78485147D01*
X141082452Y-78497298D01*
X141794501Y-79209347D01*
X141794500Y-98325030D01*
X141764383Y-98311495D01*
X141754635Y-98308043D01*
X141546244Y-98252984D01*
X141448000Y-98328641D01*
X141448000Y-100046000D01*
X141000000Y-100046000D01*
X141000000Y-98329826D01*
X140904184Y-98254156D01*
X140730512Y-98295531D01*
X140720683Y-98298744D01*
X140487827Y-98396627D01*
X140478654Y-98401402D01*
X140264912Y-98536003D01*
X140256642Y-98542212D01*
X140219923Y-98574812D01*
X140214063Y-98552942D01*
X140201320Y-98528462D01*
X140070210Y-98372210D01*
X140053321Y-98358039D01*
X139879080Y-98257441D01*
X139858363Y-98249900D01*
X139665662Y-98215922D01*
X139654701Y-98214963D01*
X137710542Y-98214963D01*
X137694166Y-98217119D01*
X137414942Y-98291937D01*
X137390462Y-98304680D01*
X137234210Y-98435790D01*
X137220039Y-98452679D01*
X137119441Y-98626920D01*
X137111900Y-98647637D01*
X137094301Y-98747444D01*
X136973881Y-98646399D01*
X136964868Y-98640088D01*
X136757132Y-98520152D01*
X136747160Y-98515502D01*
X136521753Y-98433460D01*
X136511126Y-98430613D01*
X136274897Y-98388959D01*
X136263936Y-98388000D01*
X136024064Y-98388000D01*
X136013103Y-98388959D01*
X135776874Y-98430613D01*
X135766247Y-98433460D01*
X135540840Y-98515502D01*
X135530868Y-98520152D01*
X135323132Y-98640088D01*
X135314119Y-98646399D01*
X135130366Y-98800587D01*
X135122587Y-98808366D01*
X134968399Y-98992119D01*
X134962088Y-99001132D01*
X134842152Y-99208868D01*
X134837502Y-99218840D01*
X134755460Y-99444247D01*
X134752613Y-99454874D01*
X134710959Y-99691103D01*
X134710000Y-99702064D01*
X134710000Y-99941936D01*
X134710959Y-99952897D01*
X134752613Y-100189126D01*
X134755460Y-100199753D01*
X134837502Y-100425160D01*
X134842152Y-100435132D01*
X134962088Y-100642868D01*
X134968399Y-100651881D01*
X135122587Y-100835634D01*
X135130366Y-100843413D01*
X135276459Y-100966000D01*
X129391541Y-100966000D01*
X129537634Y-100843413D01*
X129545413Y-100835634D01*
X129699601Y-100651881D01*
X129705912Y-100642868D01*
X129825848Y-100435132D01*
X129830498Y-100425160D01*
X129912540Y-100199753D01*
X129915387Y-100189126D01*
X129957041Y-99952897D01*
X129958000Y-99941936D01*
X129958000Y-99702064D01*
X129957041Y-99691103D01*
X129915387Y-99454874D01*
X129912540Y-99444247D01*
X129830498Y-99218840D01*
X129825848Y-99208868D01*
X129705912Y-99001132D01*
X129699601Y-98992119D01*
X129545413Y-98808366D01*
X129537634Y-98800587D01*
X129353881Y-98646399D01*
X129344868Y-98640088D01*
X129137132Y-98520152D01*
X129127160Y-98515502D01*
X128901753Y-98433460D01*
X128891126Y-98430613D01*
X128654897Y-98388959D01*
X128643936Y-98388000D01*
X128404064Y-98388000D01*
X128393103Y-98388959D01*
X128279786Y-98408939D01*
X127572500Y-97701654D01*
X127572500Y-97593550D01*
X127694119Y-97695601D01*
X127703132Y-97701912D01*
X127910868Y-97821848D01*
X127920840Y-97826498D01*
X128192541Y-97925390D01*
X128300000Y-97850147D01*
X128300000Y-97850146D01*
X128747999Y-97850146D01*
X128855458Y-97925390D01*
X129127160Y-97826498D01*
X129137132Y-97821848D01*
X129344868Y-97701912D01*
X129353881Y-97695601D01*
X129537634Y-97541413D01*
X129545413Y-97533634D01*
X129699601Y-97349881D01*
X129705912Y-97340868D01*
X129825848Y-97133132D01*
X129830498Y-97123160D01*
X129929390Y-96851459D01*
X129854147Y-96744000D01*
X128821809Y-96743999D01*
X128748000Y-96817808D01*
X128747999Y-97850146D01*
X128300000Y-97850146D01*
X128300001Y-96817808D01*
X128300000Y-96817807D01*
X128300000Y-96400064D01*
X134710000Y-96400064D01*
X134710000Y-96639936D01*
X134710959Y-96650897D01*
X134752613Y-96887126D01*
X134755460Y-96897753D01*
X134837502Y-97123160D01*
X134842152Y-97133132D01*
X134962088Y-97340868D01*
X134968399Y-97349881D01*
X135122587Y-97533634D01*
X135130366Y-97541413D01*
X135314119Y-97695601D01*
X135323132Y-97701912D01*
X135530868Y-97821848D01*
X135540840Y-97826498D01*
X135766247Y-97908540D01*
X135776874Y-97911387D01*
X136013103Y-97953041D01*
X136024064Y-97954000D01*
X136263936Y-97954000D01*
X136274897Y-97953041D01*
X136511126Y-97911387D01*
X136521753Y-97908540D01*
X136747160Y-97826498D01*
X136757132Y-97821848D01*
X136964868Y-97701912D01*
X136973881Y-97695601D01*
X137157634Y-97541413D01*
X137165413Y-97533634D01*
X137319601Y-97349881D01*
X137325912Y-97340868D01*
X137445848Y-97133132D01*
X137450498Y-97123160D01*
X137532540Y-96897753D01*
X137535387Y-96887126D01*
X137577041Y-96650897D01*
X137578000Y-96639936D01*
X137578000Y-96400064D01*
X137577041Y-96389103D01*
X137535387Y-96152874D01*
X137532540Y-96142247D01*
X137450498Y-95916840D01*
X137445848Y-95906868D01*
X137325912Y-95699132D01*
X137319601Y-95690119D01*
X137165413Y-95506366D01*
X137157634Y-95498587D01*
X136973881Y-95344399D01*
X136964868Y-95338088D01*
X136757132Y-95218152D01*
X136747160Y-95213502D01*
X136521753Y-95131460D01*
X136511126Y-95128613D01*
X136274897Y-95086959D01*
X136263936Y-95086000D01*
X136024064Y-95086000D01*
X136013103Y-95086959D01*
X135776874Y-95128613D01*
X135766247Y-95131460D01*
X135540840Y-95213502D01*
X135530868Y-95218152D01*
X135323132Y-95338088D01*
X135314119Y-95344399D01*
X135130366Y-95498587D01*
X135122587Y-95506366D01*
X134968399Y-95690119D01*
X134962088Y-95699132D01*
X134842152Y-95906868D01*
X134837502Y-95916840D01*
X134755460Y-96142247D01*
X134752613Y-96152874D01*
X134710959Y-96389103D01*
X134710000Y-96400064D01*
X128300000Y-96400064D01*
X128300000Y-96222191D01*
X128747999Y-96222191D01*
X128821808Y-96296000D01*
X129854146Y-96296001D01*
X129929390Y-96188542D01*
X129830498Y-95916840D01*
X129825848Y-95906868D01*
X129705912Y-95699132D01*
X129699601Y-95690119D01*
X129545413Y-95506366D01*
X129537634Y-95498587D01*
X129353881Y-95344399D01*
X129344868Y-95338088D01*
X129137132Y-95218152D01*
X129127160Y-95213502D01*
X128855459Y-95114610D01*
X128748000Y-95189853D01*
X128747999Y-96222191D01*
X128300000Y-96222191D01*
X128300001Y-95189854D01*
X128192542Y-95114610D01*
X127920840Y-95213502D01*
X127910868Y-95218152D01*
X127703132Y-95338088D01*
X127694119Y-95344399D01*
X127572500Y-95446450D01*
X127572500Y-94291550D01*
X127694119Y-94393601D01*
X127703132Y-94399912D01*
X127910868Y-94519848D01*
X127920840Y-94524498D01*
X128146247Y-94606540D01*
X128156874Y-94609387D01*
X128393103Y-94651041D01*
X128404064Y-94652000D01*
X128643936Y-94652000D01*
X128654897Y-94651041D01*
X128891126Y-94609387D01*
X128901753Y-94606540D01*
X129127160Y-94524498D01*
X129137132Y-94519848D01*
X129344868Y-94399912D01*
X129353881Y-94393601D01*
X129537634Y-94239413D01*
X129545413Y-94231634D01*
X129699601Y-94047881D01*
X129705912Y-94038868D01*
X129825848Y-93831132D01*
X129830498Y-93821160D01*
X129912540Y-93595753D01*
X129915387Y-93585126D01*
X129957041Y-93348897D01*
X129958000Y-93337936D01*
X129958000Y-93098064D01*
X129957041Y-93087103D01*
X129915387Y-92850874D01*
X129912540Y-92840247D01*
X129830498Y-92614840D01*
X129825848Y-92604868D01*
X129705912Y-92397132D01*
X129699601Y-92388119D01*
X129545413Y-92204366D01*
X129537634Y-92196587D01*
X129353881Y-92042399D01*
X129344868Y-92036088D01*
X129137132Y-91916152D01*
X129127160Y-91911502D01*
X128901753Y-91829460D01*
X128891126Y-91826613D01*
X128654897Y-91784959D01*
X128643936Y-91784000D01*
X128404064Y-91784000D01*
X128393103Y-91784959D01*
X128156874Y-91826613D01*
X128146247Y-91829460D01*
X127920840Y-91911502D01*
X127910868Y-91916152D01*
X127703132Y-92036088D01*
X127694119Y-92042399D01*
X127572500Y-92144450D01*
X127572500Y-89796064D01*
X129710000Y-89796064D01*
X129710000Y-90035936D01*
X129710959Y-90046897D01*
X129752613Y-90283126D01*
X129755460Y-90293753D01*
X129837502Y-90519160D01*
X129842152Y-90529132D01*
X129962088Y-90736868D01*
X129968399Y-90745881D01*
X130122587Y-90929634D01*
X130130366Y-90937413D01*
X130314119Y-91091601D01*
X130323132Y-91097912D01*
X130530868Y-91217848D01*
X130540840Y-91222498D01*
X130766247Y-91304540D01*
X130776874Y-91307387D01*
X131013103Y-91349041D01*
X131024064Y-91350000D01*
X131263936Y-91350000D01*
X131274897Y-91349041D01*
X131511126Y-91307387D01*
X131521753Y-91304540D01*
X131747160Y-91222498D01*
X131757132Y-91217848D01*
X131964868Y-91097912D01*
X131973881Y-91091601D01*
X132157634Y-90937413D01*
X132165413Y-90929634D01*
X132319601Y-90745881D01*
X132325912Y-90736868D01*
X132445848Y-90529132D01*
X132450498Y-90519160D01*
X132532540Y-90293753D01*
X132535387Y-90283126D01*
X132577041Y-90046897D01*
X132578000Y-90035936D01*
X132578000Y-89796064D01*
X134710000Y-89796064D01*
X134710000Y-90035936D01*
X134710959Y-90046897D01*
X134752613Y-90283126D01*
X134755460Y-90293753D01*
X134837502Y-90519160D01*
X134842152Y-90529132D01*
X134962088Y-90736868D01*
X134968399Y-90745881D01*
X135122587Y-90929634D01*
X135130366Y-90937413D01*
X135314119Y-91091601D01*
X135317500Y-91093968D01*
X135317501Y-92040031D01*
X135314119Y-92042399D01*
X135130366Y-92196587D01*
X135122587Y-92204366D01*
X134968399Y-92388119D01*
X134962088Y-92397132D01*
X134842152Y-92604868D01*
X134837502Y-92614840D01*
X134755460Y-92840247D01*
X134752613Y-92850874D01*
X134710959Y-93087103D01*
X134710000Y-93098064D01*
X134710000Y-93337936D01*
X134710959Y-93348897D01*
X134752613Y-93585126D01*
X134755460Y-93595753D01*
X134837502Y-93821160D01*
X134842152Y-93831132D01*
X134962088Y-94038868D01*
X134968399Y-94047881D01*
X135122587Y-94231634D01*
X135130366Y-94239413D01*
X135314119Y-94393601D01*
X135323132Y-94399912D01*
X135530868Y-94519848D01*
X135540840Y-94524498D01*
X135766247Y-94606540D01*
X135776874Y-94609387D01*
X136013103Y-94651041D01*
X136024064Y-94652000D01*
X136263936Y-94652000D01*
X136274897Y-94651041D01*
X136511126Y-94609387D01*
X136521753Y-94606540D01*
X136747160Y-94524498D01*
X136757132Y-94519848D01*
X136964868Y-94399912D01*
X136973881Y-94393601D01*
X137157634Y-94239413D01*
X137165413Y-94231634D01*
X137319601Y-94047881D01*
X137325912Y-94038868D01*
X137445848Y-93831132D01*
X137450498Y-93821160D01*
X137532540Y-93595753D01*
X137535387Y-93585126D01*
X137577041Y-93348897D01*
X137578000Y-93337936D01*
X137578000Y-93098064D01*
X137577041Y-93087103D01*
X137535387Y-92850874D01*
X137532540Y-92840247D01*
X137450498Y-92614840D01*
X137445848Y-92604868D01*
X137325912Y-92397132D01*
X137319601Y-92388119D01*
X137165413Y-92204366D01*
X137157634Y-92196587D01*
X136973881Y-92042399D01*
X136970500Y-92040032D01*
X136970500Y-91093968D01*
X136973881Y-91091601D01*
X137157634Y-90937413D01*
X137165413Y-90929634D01*
X137319601Y-90745881D01*
X137325912Y-90736868D01*
X137445848Y-90529132D01*
X137450498Y-90519160D01*
X137532540Y-90293753D01*
X137535387Y-90283126D01*
X137577041Y-90046897D01*
X137578000Y-90035936D01*
X137578000Y-89796064D01*
X137577041Y-89785103D01*
X137535387Y-89548874D01*
X137532540Y-89538247D01*
X137450498Y-89312840D01*
X137445848Y-89302868D01*
X137325912Y-89095132D01*
X137319601Y-89086119D01*
X137165413Y-88902366D01*
X137157634Y-88894587D01*
X136973881Y-88740399D01*
X136964868Y-88734088D01*
X136757132Y-88614152D01*
X136747160Y-88609502D01*
X136521753Y-88527460D01*
X136511126Y-88524613D01*
X136274897Y-88482959D01*
X136263936Y-88482000D01*
X136024064Y-88482000D01*
X136013103Y-88482959D01*
X135776874Y-88524613D01*
X135766247Y-88527460D01*
X135540840Y-88609502D01*
X135530868Y-88614152D01*
X135323132Y-88734088D01*
X135314119Y-88740399D01*
X135130366Y-88894587D01*
X135122587Y-88902366D01*
X134968399Y-89086119D01*
X134962088Y-89095132D01*
X134842152Y-89302868D01*
X134837502Y-89312840D01*
X134755460Y-89538247D01*
X134752613Y-89548874D01*
X134710959Y-89785103D01*
X134710000Y-89796064D01*
X132578000Y-89796064D01*
X132577041Y-89785103D01*
X132535387Y-89548874D01*
X132532540Y-89538247D01*
X132450498Y-89312840D01*
X132445848Y-89302868D01*
X132325912Y-89095132D01*
X132319601Y-89086119D01*
X132165413Y-88902366D01*
X132157634Y-88894587D01*
X131973881Y-88740399D01*
X131964868Y-88734088D01*
X131757132Y-88614152D01*
X131747160Y-88609502D01*
X131521753Y-88527460D01*
X131511126Y-88524613D01*
X131274897Y-88482959D01*
X131263936Y-88482000D01*
X131024064Y-88482000D01*
X131013103Y-88482959D01*
X130776874Y-88524613D01*
X130766247Y-88527460D01*
X130540840Y-88609502D01*
X130530868Y-88614152D01*
X130323132Y-88734088D01*
X130314119Y-88740399D01*
X130130366Y-88894587D01*
X130122587Y-88902366D01*
X129968399Y-89086119D01*
X129962088Y-89095132D01*
X129842152Y-89302868D01*
X129837502Y-89312840D01*
X129755460Y-89538247D01*
X129752613Y-89548874D01*
X129710959Y-89785103D01*
X129710000Y-89796064D01*
X127572500Y-89796064D01*
X127572500Y-87941550D01*
X127694119Y-88043601D01*
X127703132Y-88049912D01*
X127910868Y-88169848D01*
X127920840Y-88174498D01*
X128146247Y-88256540D01*
X128156874Y-88259387D01*
X128393103Y-88301041D01*
X128404064Y-88302000D01*
X128643936Y-88302000D01*
X128654897Y-88301041D01*
X128891126Y-88259387D01*
X128901753Y-88256540D01*
X129127160Y-88174498D01*
X129137132Y-88169848D01*
X129344868Y-88049912D01*
X129353881Y-88043601D01*
X129537634Y-87889413D01*
X129545413Y-87881634D01*
X129699601Y-87697881D01*
X129705912Y-87688868D01*
X129825848Y-87481132D01*
X129830498Y-87471160D01*
X129912540Y-87245753D01*
X129915387Y-87235126D01*
X129957041Y-86998897D01*
X129958000Y-86987936D01*
X129958000Y-86748064D01*
X134710000Y-86748064D01*
X134710000Y-86987936D01*
X134710959Y-86998897D01*
X134752613Y-87235126D01*
X134755460Y-87245753D01*
X134837502Y-87471160D01*
X134842152Y-87481132D01*
X134962088Y-87688868D01*
X134968399Y-87697881D01*
X135122587Y-87881634D01*
X135130366Y-87889413D01*
X135314119Y-88043601D01*
X135323132Y-88049912D01*
X135530868Y-88169848D01*
X135540840Y-88174498D01*
X135766247Y-88256540D01*
X135776874Y-88259387D01*
X136013103Y-88301041D01*
X136024064Y-88302000D01*
X136263936Y-88302000D01*
X136274897Y-88301041D01*
X136511126Y-88259387D01*
X136521753Y-88256540D01*
X136747160Y-88174498D01*
X136757132Y-88169848D01*
X136964868Y-88049912D01*
X136973881Y-88043601D01*
X137157634Y-87889413D01*
X137165413Y-87881634D01*
X137319601Y-87697881D01*
X137325912Y-87688868D01*
X137445848Y-87481132D01*
X137450498Y-87471160D01*
X137532540Y-87245753D01*
X137535387Y-87235126D01*
X137577041Y-86998897D01*
X137578000Y-86987936D01*
X137578000Y-86748064D01*
X137577041Y-86737103D01*
X137535387Y-86500874D01*
X137532540Y-86490247D01*
X137450498Y-86264840D01*
X137445848Y-86254868D01*
X137325912Y-86047132D01*
X137319601Y-86038119D01*
X137165413Y-85854366D01*
X137157634Y-85846587D01*
X136973881Y-85692399D01*
X136964868Y-85686088D01*
X136757132Y-85566152D01*
X136747160Y-85561502D01*
X136521753Y-85479460D01*
X136511126Y-85476613D01*
X136274897Y-85434959D01*
X136263936Y-85434000D01*
X136024064Y-85434000D01*
X136013103Y-85434959D01*
X135776874Y-85476613D01*
X135766247Y-85479460D01*
X135540840Y-85561502D01*
X135530868Y-85566152D01*
X135323132Y-85686088D01*
X135314119Y-85692399D01*
X135130366Y-85846587D01*
X135122587Y-85854366D01*
X134968399Y-86038119D01*
X134962088Y-86047132D01*
X134842152Y-86254868D01*
X134837502Y-86264840D01*
X134755460Y-86490247D01*
X134752613Y-86500874D01*
X134710959Y-86737103D01*
X134710000Y-86748064D01*
X129958000Y-86748064D01*
X129957041Y-86737103D01*
X129915387Y-86500874D01*
X129912540Y-86490247D01*
X129830498Y-86264840D01*
X129825848Y-86254868D01*
X129705912Y-86047132D01*
X129699601Y-86038119D01*
X129545413Y-85854366D01*
X129537634Y-85846587D01*
X129353881Y-85692399D01*
X129344868Y-85686088D01*
X129137132Y-85566152D01*
X129127160Y-85561502D01*
X128901753Y-85479460D01*
X128891126Y-85476613D01*
X128654897Y-85434959D01*
X128643936Y-85434000D01*
X128404064Y-85434000D01*
X128393103Y-85434959D01*
X128156874Y-85476613D01*
X128146247Y-85479460D01*
X127920840Y-85561502D01*
X127910868Y-85566152D01*
X127703132Y-85686088D01*
X127694119Y-85692399D01*
X127572500Y-85794450D01*
X127572500Y-84670345D01*
X128628064Y-83614782D01*
X128614959Y-83689103D01*
X128614000Y-83700064D01*
X128614000Y-83939936D01*
X128614959Y-83950897D01*
X128656613Y-84187126D01*
X128659460Y-84197753D01*
X128741502Y-84423160D01*
X128746152Y-84433132D01*
X128866088Y-84640868D01*
X128872399Y-84649881D01*
X129026587Y-84833634D01*
X129034366Y-84841413D01*
X129218119Y-84995601D01*
X129227132Y-85001912D01*
X129434868Y-85121848D01*
X129444840Y-85126498D01*
X129670247Y-85208540D01*
X129680874Y-85211387D01*
X129917103Y-85253041D01*
X129928064Y-85254000D01*
X130167936Y-85254000D01*
X130178897Y-85253041D01*
X130415126Y-85211387D01*
X130425753Y-85208540D01*
X130651160Y-85126498D01*
X130661132Y-85121848D01*
X130868868Y-85001912D01*
X130877881Y-84995601D01*
X131061634Y-84841413D01*
X131069413Y-84833634D01*
X131223601Y-84649881D01*
X131229912Y-84640868D01*
X131349848Y-84433132D01*
X131354498Y-84423160D01*
X131436540Y-84197753D01*
X131439387Y-84187126D01*
X131481041Y-83950897D01*
X131482000Y-83939936D01*
X131482000Y-83700064D01*
X133614000Y-83700064D01*
X133614000Y-83939936D01*
X133614959Y-83950897D01*
X133656613Y-84187126D01*
X133659460Y-84197753D01*
X133741502Y-84423160D01*
X133746152Y-84433132D01*
X133866088Y-84640868D01*
X133872399Y-84649881D01*
X134026587Y-84833634D01*
X134034366Y-84841413D01*
X134218119Y-84995601D01*
X134227132Y-85001912D01*
X134434868Y-85121848D01*
X134444840Y-85126498D01*
X134670247Y-85208540D01*
X134680874Y-85211387D01*
X134917103Y-85253041D01*
X134928064Y-85254000D01*
X135167936Y-85254000D01*
X135178897Y-85253041D01*
X135415126Y-85211387D01*
X135425753Y-85208540D01*
X135651160Y-85126498D01*
X135661132Y-85121848D01*
X135868868Y-85001912D01*
X135877881Y-84995601D01*
X136061634Y-84841413D01*
X136069413Y-84833634D01*
X136223601Y-84649881D01*
X136229912Y-84640868D01*
X136349848Y-84433132D01*
X136354498Y-84423160D01*
X136436540Y-84197753D01*
X136439387Y-84187126D01*
X136481041Y-83950897D01*
X136482000Y-83939936D01*
X136482000Y-83700064D01*
X136481041Y-83689103D01*
X136439387Y-83452874D01*
X136436540Y-83442247D01*
X136373301Y-83268499D01*
X138766163Y-83268499D01*
X138766163Y-84882258D01*
X138768319Y-84898634D01*
X138843137Y-85177859D01*
X138855880Y-85202339D01*
X138986990Y-85358590D01*
X139003879Y-85372761D01*
X139178120Y-85473359D01*
X139198837Y-85480900D01*
X139391538Y-85514878D01*
X139402499Y-85515837D01*
X141016258Y-85515837D01*
X141032634Y-85513681D01*
X141311859Y-85438863D01*
X141336339Y-85426120D01*
X141492590Y-85295010D01*
X141506761Y-85278121D01*
X141607359Y-85103880D01*
X141614900Y-85083163D01*
X141648878Y-84890462D01*
X141649837Y-84879501D01*
X141649837Y-83265742D01*
X141647681Y-83249366D01*
X141572863Y-82970142D01*
X141560120Y-82945662D01*
X141429010Y-82789410D01*
X141412121Y-82775239D01*
X141237880Y-82674641D01*
X141217163Y-82667100D01*
X141150260Y-82655303D01*
X141221634Y-82595413D01*
X141229413Y-82587634D01*
X141383601Y-82403881D01*
X141389912Y-82394868D01*
X141509848Y-82187132D01*
X141514498Y-82177160D01*
X141596540Y-81951753D01*
X141599387Y-81941126D01*
X141641041Y-81704897D01*
X141642000Y-81693936D01*
X141642000Y-81454064D01*
X141641041Y-81443103D01*
X141599387Y-81206874D01*
X141596540Y-81196247D01*
X141514498Y-80970840D01*
X141509848Y-80960868D01*
X141389912Y-80753132D01*
X141383601Y-80744119D01*
X141229413Y-80560366D01*
X141221634Y-80552587D01*
X141037881Y-80398399D01*
X141028868Y-80392088D01*
X140821132Y-80272152D01*
X140811160Y-80267502D01*
X140585753Y-80185460D01*
X140575126Y-80182613D01*
X140338897Y-80140959D01*
X140327936Y-80140000D01*
X140088064Y-80140000D01*
X140077103Y-80140959D01*
X139840874Y-80182613D01*
X139830247Y-80185460D01*
X139604840Y-80267502D01*
X139594868Y-80272152D01*
X139387132Y-80392088D01*
X139378119Y-80398399D01*
X139194366Y-80552587D01*
X139186587Y-80560366D01*
X139032399Y-80744119D01*
X139026088Y-80753132D01*
X138906152Y-80960868D01*
X138901502Y-80970840D01*
X138819460Y-81196247D01*
X138816613Y-81206874D01*
X138774959Y-81443103D01*
X138774000Y-81454064D01*
X138774000Y-81693936D01*
X138774959Y-81704897D01*
X138816613Y-81941126D01*
X138819460Y-81951753D01*
X138901502Y-82177160D01*
X138906152Y-82187132D01*
X139026088Y-82394868D01*
X139032399Y-82403881D01*
X139186587Y-82587634D01*
X139194366Y-82595413D01*
X139275255Y-82663287D01*
X139104142Y-82709137D01*
X139079662Y-82721880D01*
X138923410Y-82852990D01*
X138909239Y-82869879D01*
X138808641Y-83044120D01*
X138801100Y-83064837D01*
X138767122Y-83257538D01*
X138766163Y-83268499D01*
X136373301Y-83268499D01*
X136354498Y-83216840D01*
X136349848Y-83206868D01*
X136229912Y-82999132D01*
X136223601Y-82990119D01*
X136069413Y-82806366D01*
X136061634Y-82798587D01*
X135877881Y-82644399D01*
X135868868Y-82638088D01*
X135661132Y-82518152D01*
X135651160Y-82513502D01*
X135425753Y-82431460D01*
X135415126Y-82428613D01*
X135178897Y-82386959D01*
X135167936Y-82386000D01*
X134928064Y-82386000D01*
X134917103Y-82386959D01*
X134680874Y-82428613D01*
X134670247Y-82431460D01*
X134444840Y-82513502D01*
X134434868Y-82518152D01*
X134227132Y-82638088D01*
X134218119Y-82644399D01*
X134034366Y-82798587D01*
X134026587Y-82806366D01*
X133872399Y-82990119D01*
X133866088Y-82999132D01*
X133746152Y-83206868D01*
X133741502Y-83216840D01*
X133659460Y-83442247D01*
X133656613Y-83452874D01*
X133614959Y-83689103D01*
X133614000Y-83700064D01*
X131482000Y-83700064D01*
X131481041Y-83689103D01*
X131439387Y-83452874D01*
X131436540Y-83442247D01*
X131354498Y-83216840D01*
X131349848Y-83206868D01*
X131229912Y-82999132D01*
X131223601Y-82990119D01*
X131069413Y-82806366D01*
X131061634Y-82798587D01*
X130877881Y-82644399D01*
X130868868Y-82638088D01*
X130661132Y-82518152D01*
X130651160Y-82513502D01*
X130425753Y-82431460D01*
X130415126Y-82428613D01*
X130178897Y-82386959D01*
X130167936Y-82386000D01*
X129928064Y-82386000D01*
X129917103Y-82386959D01*
X129842784Y-82400064D01*
X130311787Y-81931061D01*
X130425103Y-81951041D01*
X130436064Y-81952000D01*
X130675936Y-81952000D01*
X130686897Y-81951041D01*
X130923126Y-81909387D01*
X130933753Y-81906540D01*
X131159160Y-81824498D01*
X131169132Y-81819848D01*
X131376868Y-81699912D01*
X131385881Y-81693601D01*
X131569634Y-81539413D01*
X131577413Y-81531634D01*
X131731601Y-81347881D01*
X131737912Y-81338868D01*
X131857848Y-81131132D01*
X131862498Y-81121160D01*
X131944540Y-80895753D01*
X131947387Y-80885126D01*
X131989041Y-80648897D01*
X131990000Y-80637936D01*
X131990000Y-80398064D01*
X134122000Y-80398064D01*
X134122000Y-80637936D01*
X134122959Y-80648897D01*
X134164613Y-80885126D01*
X134167460Y-80895753D01*
X134249502Y-81121160D01*
X134254152Y-81131132D01*
X134374088Y-81338868D01*
X134380399Y-81347881D01*
X134534587Y-81531634D01*
X134542366Y-81539413D01*
X134726119Y-81693601D01*
X134735132Y-81699912D01*
X134942868Y-81819848D01*
X134952840Y-81824498D01*
X135178247Y-81906540D01*
X135188874Y-81909387D01*
X135425103Y-81951041D01*
X135436064Y-81952000D01*
X135675936Y-81952000D01*
X135686897Y-81951041D01*
X135923126Y-81909387D01*
X135933753Y-81906540D01*
X136159160Y-81824498D01*
X136169132Y-81819848D01*
X136376868Y-81699912D01*
X136385881Y-81693601D01*
X136569634Y-81539413D01*
X136577413Y-81531634D01*
X136731601Y-81347881D01*
X136737912Y-81338868D01*
X136857848Y-81131132D01*
X136862498Y-81121160D01*
X136944540Y-80895753D01*
X136947387Y-80885126D01*
X136989041Y-80648897D01*
X136990000Y-80637936D01*
X136990000Y-80398064D01*
X136989041Y-80387103D01*
X136947387Y-80150874D01*
X136944540Y-80140247D01*
X136862498Y-79914840D01*
X136857848Y-79904868D01*
X136737912Y-79697132D01*
X136731601Y-79688119D01*
X136577413Y-79504366D01*
X136569634Y-79496587D01*
X136385881Y-79342399D01*
X136376868Y-79336088D01*
X136169132Y-79216152D01*
X136159160Y-79211502D01*
X135933753Y-79129460D01*
X135923126Y-79126613D01*
X135686897Y-79084959D01*
X135675936Y-79084000D01*
X135436064Y-79084000D01*
X135425103Y-79084959D01*
X135188874Y-79126613D01*
X135178247Y-79129460D01*
X134952840Y-79211502D01*
X134942868Y-79216152D01*
X134735132Y-79336088D01*
X134726119Y-79342399D01*
X134542366Y-79496587D01*
X134534587Y-79504366D01*
X134380399Y-79688119D01*
X134374088Y-79697132D01*
X134254152Y-79904868D01*
X134249502Y-79914840D01*
X134167460Y-80140247D01*
X134164613Y-80150874D01*
X134122959Y-80387103D01*
X134122000Y-80398064D01*
X131990000Y-80398064D01*
X131989041Y-80387103D01*
X131947387Y-80150874D01*
X131944540Y-80140247D01*
X131862498Y-79914840D01*
X131857848Y-79904868D01*
X131737912Y-79697132D01*
X131731601Y-79688119D01*
X131577413Y-79504366D01*
X131569634Y-79496587D01*
X131385881Y-79342399D01*
X131376868Y-79336088D01*
X131169132Y-79216152D01*
X131159160Y-79211502D01*
X130933753Y-79129460D01*
X130923126Y-79126613D01*
X130686897Y-79084959D01*
X130675936Y-79084000D01*
X130436064Y-79084000D01*
X130425103Y-79084959D01*
X130188874Y-79126613D01*
X130178247Y-79129460D01*
X129952840Y-79211502D01*
X129942868Y-79216152D01*
X129735132Y-79336088D01*
X129726119Y-79342399D01*
X129542366Y-79496587D01*
X129534587Y-79504366D01*
X129380399Y-79688119D01*
X129374088Y-79697132D01*
X129254152Y-79904868D01*
X129249502Y-79914840D01*
X129167460Y-80140247D01*
X129164613Y-80150874D01*
X129122959Y-80387103D01*
X129122000Y-80398064D01*
X129122000Y-80637936D01*
X129122959Y-80648897D01*
X129142940Y-80762214D01*
X126227056Y-83678099D01*
X126212497Y-83687285D01*
X126198825Y-83698921D01*
X126142819Y-83762336D01*
X126122844Y-83782311D01*
X126116972Y-83789083D01*
X126104498Y-83805726D01*
X126054113Y-83862777D01*
X126044257Y-83877782D01*
X126033795Y-83900065D01*
X126019032Y-83919763D01*
X126010410Y-83935510D01*
X125983695Y-84006774D01*
X125951268Y-84075841D01*
X125945959Y-84093396D01*
X125942471Y-84116740D01*
X125933673Y-84140208D01*
X125929818Y-84157743D01*
X125923364Y-84244586D01*
X125920193Y-84265805D01*
X125919500Y-84275129D01*
X125919500Y-84296588D01*
X125913618Y-84375748D01*
X125914839Y-84393659D01*
X125919500Y-84415494D01*
X125919501Y-97951405D01*
X125915703Y-97968190D01*
X125914263Y-97986086D01*
X125919501Y-98070511D01*
X125919501Y-98098779D01*
X125920138Y-98107723D01*
X125923088Y-98128313D01*
X125927800Y-98204272D01*
X125931440Y-98221852D01*
X125939799Y-98245006D01*
X125943289Y-98269379D01*
X125948328Y-98286609D01*
X125979827Y-98355885D01*
X126005736Y-98427655D01*
X126014395Y-98443822D01*
X126028436Y-98462797D01*
X126038810Y-98485613D01*
X126048482Y-98500737D01*
X126105327Y-98566709D01*
X126118088Y-98583954D01*
X126124191Y-98591037D01*
X126139357Y-98606202D01*
X126191181Y-98666347D01*
X126204710Y-98678149D01*
X126223449Y-98690295D01*
X127110939Y-99577786D01*
X127090959Y-99691103D01*
X127090000Y-99702064D01*
X127090000Y-99941936D01*
X127090959Y-99952897D01*
X127132613Y-100189126D01*
X127135460Y-100199753D01*
X127217502Y-100425160D01*
X127222152Y-100435132D01*
X127342088Y-100642868D01*
X127348399Y-100651881D01*
X127502587Y-100835634D01*
X127510366Y-100843413D01*
X127656459Y-100966000D01*
X125856000Y-100966000D01*
X125856000Y-80323172D01*
X125932148Y-80376492D01*
X125941077Y-80381710D01*
X126168874Y-80490851D01*
X126178535Y-80494540D01*
X126421306Y-80565072D01*
X126522000Y-80489469D01*
X126522000Y-80485895D01*
X126969999Y-80485895D01*
X127063410Y-80561538D01*
X127202044Y-80532071D01*
X127211950Y-80529099D01*
X127447128Y-80436933D01*
X127456415Y-80432384D01*
X127673382Y-80303046D01*
X127681801Y-80297041D01*
X127874730Y-80134003D01*
X127882055Y-80126703D01*
X128045766Y-79934344D01*
X128051801Y-79925946D01*
X128181895Y-79709431D01*
X128186477Y-79700161D01*
X128279463Y-79465306D01*
X128282470Y-79455411D01*
X128313529Y-79311753D01*
X128237880Y-79218000D01*
X127043809Y-79217999D01*
X126970000Y-79291808D01*
X126969999Y-80485895D01*
X126522000Y-80485895D01*
X126522001Y-79291808D01*
X126522000Y-79291807D01*
X126522001Y-78770000D01*
X128239741Y-78770001D01*
X128315226Y-78680992D01*
X128303175Y-78608197D01*
X128300655Y-78598167D01*
X128219253Y-78359050D01*
X128215130Y-78349566D01*
X128095767Y-78126955D01*
X128090149Y-78118271D01*
X127991629Y-77990341D01*
X128015059Y-77984063D01*
X128039539Y-77971320D01*
X128195790Y-77840210D01*
X128209961Y-77823321D01*
X128310559Y-77649080D01*
X128318100Y-77628363D01*
X128352078Y-77435662D01*
X128353037Y-77424701D01*
X128353037Y-77096064D01*
X129202000Y-77096064D01*
X129202000Y-77335936D01*
X129202959Y-77346897D01*
X129244613Y-77583126D01*
X129247460Y-77593753D01*
X129329502Y-77819160D01*
X129334152Y-77829132D01*
X129454088Y-78036868D01*
X129460399Y-78045881D01*
X129614587Y-78229634D01*
X129622366Y-78237413D01*
X129806119Y-78391601D01*
X129815132Y-78397912D01*
X130022868Y-78517848D01*
X130032840Y-78522498D01*
X130258247Y-78604540D01*
X130268874Y-78607387D01*
X130505103Y-78649041D01*
X130516064Y-78650000D01*
X130755936Y-78650000D01*
X130766897Y-78649041D01*
X131003126Y-78607387D01*
X131013753Y-78604540D01*
X131239160Y-78522498D01*
X131249132Y-78517848D01*
X131456868Y-78397912D01*
X131465881Y-78391601D01*
X131649634Y-78237413D01*
X131657413Y-78229634D01*
X131811601Y-78045881D01*
X131817912Y-78036868D01*
X131937848Y-77829132D01*
X131942498Y-77819160D01*
X132024540Y-77593753D01*
X132027387Y-77583126D01*
X132069041Y-77346897D01*
X132070000Y-77335936D01*
X132070000Y-77096064D01*
X134202000Y-77096064D01*
X134202000Y-77335936D01*
X134202959Y-77346897D01*
X134244613Y-77583126D01*
X134247460Y-77593753D01*
X134329502Y-77819160D01*
X134334152Y-77829132D01*
X134454088Y-78036868D01*
X134460399Y-78045881D01*
X134614587Y-78229634D01*
X134622366Y-78237413D01*
X134806119Y-78391601D01*
X134815132Y-78397912D01*
X135022868Y-78517848D01*
X135032840Y-78522498D01*
X135258247Y-78604540D01*
X135268874Y-78607387D01*
X135505103Y-78649041D01*
X135516064Y-78650000D01*
X135755936Y-78650000D01*
X135766897Y-78649041D01*
X136003126Y-78607387D01*
X136013753Y-78604540D01*
X136239160Y-78522498D01*
X136249132Y-78517848D01*
X136456868Y-78397912D01*
X136465881Y-78391601D01*
X136649634Y-78237413D01*
X136657413Y-78229634D01*
X136811601Y-78045881D01*
X136817912Y-78036868D01*
X136937848Y-77829132D01*
X136942498Y-77819160D01*
X137024540Y-77593753D01*
X137027387Y-77583126D01*
X137069041Y-77346897D01*
X137070000Y-77335936D01*
X137070000Y-77096064D01*
X137069041Y-77085103D01*
X137027387Y-76848874D01*
X137024540Y-76838247D01*
X136942498Y-76612840D01*
X136937848Y-76602868D01*
X136817912Y-76395132D01*
X136811601Y-76386119D01*
X136657413Y-76202366D01*
X136649634Y-76194587D01*
X136465881Y-76040399D01*
X136456868Y-76034088D01*
X136249132Y-75914152D01*
X136239160Y-75909502D01*
X136013753Y-75827460D01*
X136003126Y-75824613D01*
X135766897Y-75782959D01*
X135755936Y-75782000D01*
X135516064Y-75782000D01*
X135505103Y-75782959D01*
X135268874Y-75824613D01*
X135258247Y-75827460D01*
X135032840Y-75909502D01*
X135022868Y-75914152D01*
X134815132Y-76034088D01*
X134806119Y-76040399D01*
X134622366Y-76194587D01*
X134614587Y-76202366D01*
X134460399Y-76386119D01*
X134454088Y-76395132D01*
X134334152Y-76602868D01*
X134329502Y-76612840D01*
X134247460Y-76838247D01*
X134244613Y-76848874D01*
X134202959Y-77085103D01*
X134202000Y-77096064D01*
X132070000Y-77096064D01*
X132069041Y-77085103D01*
X132027387Y-76848874D01*
X132024540Y-76838247D01*
X131942498Y-76612840D01*
X131937848Y-76602868D01*
X131817912Y-76395132D01*
X131811601Y-76386119D01*
X131657413Y-76202366D01*
X131649634Y-76194587D01*
X131465881Y-76040399D01*
X131456868Y-76034088D01*
X131249132Y-75914152D01*
X131239160Y-75909502D01*
X131013753Y-75827460D01*
X131003126Y-75824613D01*
X130766897Y-75782959D01*
X130755936Y-75782000D01*
X130516064Y-75782000D01*
X130505103Y-75782959D01*
X130268874Y-75824613D01*
X130258247Y-75827460D01*
X130032840Y-75909502D01*
X130022868Y-75914152D01*
X129815132Y-76034088D01*
X129806119Y-76040399D01*
X129622366Y-76194587D01*
X129614587Y-76202366D01*
X129460399Y-76386119D01*
X129454088Y-76395132D01*
X129334152Y-76602868D01*
X129329502Y-76612840D01*
X129247460Y-76838247D01*
X129244613Y-76848874D01*
X129202959Y-77085103D01*
X129202000Y-77096064D01*
X128353037Y-77096064D01*
X128353037Y-75480542D01*
X128350881Y-75464166D01*
X128276063Y-75184942D01*
X128263320Y-75160462D01*
X128132210Y-75004210D01*
X128115321Y-74990039D01*
X127941080Y-74889441D01*
X127920363Y-74881900D01*
X127727662Y-74847922D01*
X127716701Y-74846963D01*
X125856000Y-74846963D01*
X125856000Y-74001185D01*
X127938114Y-74001185D01*
X127938710Y-74011509D01*
X127973864Y-74261643D01*
X127976137Y-74271732D01*
X128051673Y-74512766D01*
X128055564Y-74522348D01*
X128169452Y-74747808D01*
X128174855Y-74756626D01*
X128324038Y-74960458D01*
X128330809Y-74968275D01*
X128511280Y-75145004D01*
X128519237Y-75151610D01*
X128726148Y-75296492D01*
X128735077Y-75301710D01*
X128962873Y-75410851D01*
X128972535Y-75414540D01*
X129215098Y-75485012D01*
X129225232Y-75487073D01*
X129476048Y-75516981D01*
X129486382Y-75517360D01*
X129738714Y-75505902D01*
X129748972Y-75504588D01*
X129996045Y-75452070D01*
X130005950Y-75449099D01*
X130241128Y-75356933D01*
X130250415Y-75352384D01*
X130467382Y-75223046D01*
X130475801Y-75217041D01*
X130668730Y-75054003D01*
X130676055Y-75046703D01*
X130811060Y-74888073D01*
X130864038Y-74960458D01*
X130870809Y-74968275D01*
X131051280Y-75145004D01*
X131059237Y-75151610D01*
X131266148Y-75296492D01*
X131275077Y-75301710D01*
X131502873Y-75410851D01*
X131512535Y-75414540D01*
X131755098Y-75485012D01*
X131765232Y-75487073D01*
X132016048Y-75516981D01*
X132026382Y-75517360D01*
X132278714Y-75505902D01*
X132288972Y-75504588D01*
X132536045Y-75452070D01*
X132545950Y-75449099D01*
X132781128Y-75356933D01*
X132790415Y-75352384D01*
X133007382Y-75223046D01*
X133015801Y-75217041D01*
X133083674Y-75159684D01*
X133089937Y-75183059D01*
X133102680Y-75207539D01*
X133233790Y-75363790D01*
X133250679Y-75377961D01*
X133424920Y-75478559D01*
X133445637Y-75486100D01*
X133638338Y-75520078D01*
X133649299Y-75521037D01*
X135593458Y-75521037D01*
X135609834Y-75518881D01*
X135889059Y-75444063D01*
X135913539Y-75431320D01*
X136069790Y-75300210D01*
X136083961Y-75283321D01*
X136184559Y-75109080D01*
X136192100Y-75088363D01*
X136226078Y-74895662D01*
X136227037Y-74884701D01*
X136227037Y-74001185D01*
X144194114Y-74001185D01*
X144194710Y-74011509D01*
X144229864Y-74261643D01*
X144232137Y-74271732D01*
X144307673Y-74512766D01*
X144311564Y-74522348D01*
X144425452Y-74747808D01*
X144430855Y-74756626D01*
X144580038Y-74960458D01*
X144586809Y-74968275D01*
X144767280Y-75145004D01*
X144775237Y-75151610D01*
X144982148Y-75296492D01*
X144991077Y-75301710D01*
X145218873Y-75410851D01*
X145228535Y-75414540D01*
X145471098Y-75485012D01*
X145481232Y-75487073D01*
X145732048Y-75516981D01*
X145742382Y-75517360D01*
X145994714Y-75505902D01*
X146004972Y-75504588D01*
X146252045Y-75452070D01*
X146261950Y-75449099D01*
X146497128Y-75356933D01*
X146506415Y-75352384D01*
X146723382Y-75223046D01*
X146731801Y-75217041D01*
X146924730Y-75054003D01*
X146932055Y-75046703D01*
X147067060Y-74888073D01*
X147120038Y-74960458D01*
X147126809Y-74968275D01*
X147307280Y-75145004D01*
X147315237Y-75151610D01*
X147509501Y-75287636D01*
X147509500Y-77377410D01*
X147505703Y-77394191D01*
X147504263Y-77412086D01*
X147509500Y-77496495D01*
X147509500Y-77524777D01*
X147510137Y-77533719D01*
X147513088Y-77554325D01*
X147517800Y-77630274D01*
X147521440Y-77647853D01*
X147529798Y-77671006D01*
X147533288Y-77695376D01*
X147538327Y-77712608D01*
X147569831Y-77781897D01*
X147595736Y-77853656D01*
X147604396Y-77869823D01*
X147618435Y-77888795D01*
X147628808Y-77911611D01*
X147638481Y-77926736D01*
X147695330Y-77992714D01*
X147708088Y-78009954D01*
X147714191Y-78017037D01*
X147729352Y-78032197D01*
X147781180Y-78092347D01*
X147794709Y-78104149D01*
X147813454Y-78116299D01*
X151065501Y-81368347D01*
X151065500Y-92113654D01*
X149088214Y-94090940D01*
X148974897Y-94070959D01*
X148963936Y-94070000D01*
X148724064Y-94070000D01*
X148713103Y-94070959D01*
X148476874Y-94112613D01*
X148466247Y-94115460D01*
X148240840Y-94197502D01*
X148230868Y-94202152D01*
X148023132Y-94322088D01*
X148014119Y-94328399D01*
X147830366Y-94482587D01*
X147822587Y-94490366D01*
X147668399Y-94674119D01*
X147662088Y-94683132D01*
X147542152Y-94890868D01*
X147537502Y-94900840D01*
X147455460Y-95126247D01*
X147452613Y-95136874D01*
X147410959Y-95373103D01*
X147410000Y-95384064D01*
X147410000Y-95623936D01*
X147410959Y-95634897D01*
X147452613Y-95871126D01*
X147455460Y-95881753D01*
X147537502Y-96107160D01*
X147542152Y-96117132D01*
X147662088Y-96324868D01*
X147668399Y-96333881D01*
X147822587Y-96517634D01*
X147830366Y-96525413D01*
X148014119Y-96679601D01*
X148023132Y-96685912D01*
X148230868Y-96805848D01*
X148240840Y-96810498D01*
X148466247Y-96892540D01*
X148476874Y-96895387D01*
X148713103Y-96937041D01*
X148724064Y-96938000D01*
X148963936Y-96938000D01*
X148974897Y-96937041D01*
X149211126Y-96895387D01*
X149221753Y-96892540D01*
X149447160Y-96810498D01*
X149457132Y-96805848D01*
X149664868Y-96685912D01*
X149673881Y-96679601D01*
X149857634Y-96525413D01*
X149865413Y-96517634D01*
X150019601Y-96333881D01*
X150025912Y-96324868D01*
X150145848Y-96117132D01*
X150150498Y-96107160D01*
X150232540Y-95881753D01*
X150235387Y-95871126D01*
X150277041Y-95634897D01*
X150278000Y-95623936D01*
X150278000Y-95384064D01*
X150277041Y-95373103D01*
X150257060Y-95259786D01*
X152410948Y-93105898D01*
X152425502Y-93096715D01*
X152439174Y-93085079D01*
X152495169Y-93021677D01*
X152515157Y-93001690D01*
X152521030Y-92994916D01*
X152533506Y-92978269D01*
X152583886Y-92921225D01*
X152593743Y-92906220D01*
X152604205Y-92883936D01*
X152618968Y-92864238D01*
X152627590Y-92848491D01*
X152654305Y-92777227D01*
X152686732Y-92708160D01*
X152692041Y-92690605D01*
X152695529Y-92667261D01*
X152704327Y-92643793D01*
X152708182Y-92626259D01*
X152714636Y-92539414D01*
X152717807Y-92518195D01*
X152718500Y-92508872D01*
X152718500Y-92487412D01*
X152724382Y-92408252D01*
X152723161Y-92390341D01*
X152718500Y-92368506D01*
X152718500Y-81118586D01*
X152722296Y-81101810D01*
X152723736Y-81083915D01*
X152718500Y-80999515D01*
X152718500Y-80971221D01*
X152717863Y-80962279D01*
X152714912Y-80941673D01*
X152710200Y-80865726D01*
X152706560Y-80848146D01*
X152698202Y-80824994D01*
X152694712Y-80800622D01*
X152689673Y-80783391D01*
X152658171Y-80714106D01*
X152632264Y-80642343D01*
X152623604Y-80626176D01*
X152609565Y-80607202D01*
X152599191Y-80584387D01*
X152589519Y-80569262D01*
X152532675Y-80503292D01*
X152519913Y-80486045D01*
X152513809Y-80478962D01*
X152498639Y-80463792D01*
X152446820Y-80403653D01*
X152433291Y-80391851D01*
X152414553Y-80379706D01*
X151237629Y-79202783D01*
X151283538Y-79210878D01*
X151294499Y-79211837D01*
X153508258Y-79211837D01*
X153524634Y-79209681D01*
X153803859Y-79134863D01*
X153828339Y-79122120D01*
X153984590Y-78991010D01*
X153998761Y-78974121D01*
X154099359Y-78799880D01*
X154106900Y-78779163D01*
X154140878Y-78586462D01*
X154141837Y-78575501D01*
X154141837Y-76361742D01*
X154139681Y-76345366D01*
X154064863Y-76066142D01*
X154052120Y-76041662D01*
X153921010Y-75885410D01*
X153904121Y-75871239D01*
X153729880Y-75770641D01*
X153709163Y-75763100D01*
X153516462Y-75729122D01*
X153505501Y-75728163D01*
X151291742Y-75728163D01*
X151275366Y-75730319D01*
X150996142Y-75805137D01*
X150971662Y-75817880D01*
X150815410Y-75948990D01*
X150801239Y-75965879D01*
X150700641Y-76140120D01*
X150693100Y-76160837D01*
X150659122Y-76353538D01*
X150658163Y-76364499D01*
X150658163Y-78578258D01*
X150660319Y-78594634D01*
X150671607Y-78636761D01*
X149162500Y-77127655D01*
X149162500Y-75283183D01*
X149263382Y-75223046D01*
X149271801Y-75217041D01*
X149339674Y-75159684D01*
X149345937Y-75183059D01*
X149358680Y-75207539D01*
X149489790Y-75363790D01*
X149506679Y-75377961D01*
X149680920Y-75478559D01*
X149701637Y-75486100D01*
X149894338Y-75520078D01*
X149905299Y-75521037D01*
X150578191Y-75521037D01*
X150652000Y-75447228D01*
X150652000Y-74211809D01*
X151100000Y-74211809D01*
X151100000Y-75447228D01*
X151173809Y-75521037D01*
X151849458Y-75521037D01*
X151865834Y-75518881D01*
X152145059Y-75444063D01*
X152169539Y-75431320D01*
X152325790Y-75300210D01*
X152339961Y-75283321D01*
X152440559Y-75109080D01*
X152448100Y-75088363D01*
X152482078Y-74895662D01*
X152483037Y-74884701D01*
X152483037Y-74211809D01*
X152409228Y-74138000D01*
X151173809Y-74138000D01*
X151100000Y-74211809D01*
X150652000Y-74211809D01*
X150652000Y-72380772D01*
X151100000Y-72380772D01*
X151100000Y-73616191D01*
X151173809Y-73690000D01*
X152409228Y-73690000D01*
X152483037Y-73616191D01*
X152483037Y-72940542D01*
X152480881Y-72924166D01*
X152406063Y-72644942D01*
X152393320Y-72620462D01*
X152262210Y-72464210D01*
X152245321Y-72450039D01*
X152071080Y-72349441D01*
X152050363Y-72341900D01*
X151857662Y-72307922D01*
X151846701Y-72306963D01*
X151173809Y-72306963D01*
X151100000Y-72380772D01*
X150652000Y-72380772D01*
X150578191Y-72306963D01*
X149902542Y-72306963D01*
X149886166Y-72309119D01*
X149606942Y-72383937D01*
X149582462Y-72396680D01*
X149426210Y-72527790D01*
X149412039Y-72544679D01*
X149342231Y-72665590D01*
X149334337Y-72658229D01*
X149326221Y-72651819D01*
X149115832Y-72512036D01*
X149106778Y-72507038D01*
X148876383Y-72403495D01*
X148866634Y-72400043D01*
X148622423Y-72335519D01*
X148612242Y-72333706D01*
X148360770Y-72309935D01*
X148350429Y-72309808D01*
X148098451Y-72327429D01*
X148088229Y-72328993D01*
X147842513Y-72387531D01*
X147832683Y-72390743D01*
X147599827Y-72488627D01*
X147590654Y-72493402D01*
X147376912Y-72628003D01*
X147368642Y-72634212D01*
X147179754Y-72801914D01*
X147172609Y-72809391D01*
X147065627Y-72941503D01*
X146986031Y-72838146D01*
X146979072Y-72830497D01*
X146794337Y-72658229D01*
X146786221Y-72651819D01*
X146575832Y-72512036D01*
X146566778Y-72507038D01*
X146336383Y-72403495D01*
X146326634Y-72400043D01*
X146082423Y-72335519D01*
X146072242Y-72333706D01*
X145820770Y-72309935D01*
X145810429Y-72309808D01*
X145558451Y-72327429D01*
X145548229Y-72328993D01*
X145302513Y-72387531D01*
X145292683Y-72390743D01*
X145059827Y-72488627D01*
X145050654Y-72493402D01*
X144836912Y-72628003D01*
X144828642Y-72634212D01*
X144639754Y-72801914D01*
X144632609Y-72809391D01*
X144473647Y-73005693D01*
X144467820Y-73014236D01*
X144343054Y-73233864D01*
X144338699Y-73243244D01*
X144251479Y-73480300D01*
X144248716Y-73490266D01*
X144201385Y-73738384D01*
X144200286Y-73748667D01*
X144194114Y-74001185D01*
X136227037Y-74001185D01*
X136227037Y-72940542D01*
X136224881Y-72924166D01*
X136150063Y-72644942D01*
X136137320Y-72620462D01*
X136006210Y-72464210D01*
X135989321Y-72450039D01*
X135815080Y-72349441D01*
X135794363Y-72341900D01*
X135601662Y-72307922D01*
X135590701Y-72306963D01*
X133646542Y-72306963D01*
X133630166Y-72309119D01*
X133350942Y-72383937D01*
X133326462Y-72396680D01*
X133170210Y-72527790D01*
X133156039Y-72544679D01*
X133086231Y-72665590D01*
X133078337Y-72658229D01*
X133070221Y-72651819D01*
X132859832Y-72512036D01*
X132850778Y-72507038D01*
X132620383Y-72403495D01*
X132610634Y-72400043D01*
X132366423Y-72335519D01*
X132356242Y-72333706D01*
X132104770Y-72309935D01*
X132094429Y-72309808D01*
X131842451Y-72327429D01*
X131832229Y-72328993D01*
X131586513Y-72387531D01*
X131576683Y-72390743D01*
X131343827Y-72488627D01*
X131334654Y-72493402D01*
X131120912Y-72628003D01*
X131112642Y-72634212D01*
X130923754Y-72801914D01*
X130916609Y-72809391D01*
X130809627Y-72941503D01*
X130730031Y-72838146D01*
X130723072Y-72830497D01*
X130538337Y-72658229D01*
X130530221Y-72651819D01*
X130319832Y-72512036D01*
X130310778Y-72507038D01*
X130080383Y-72403495D01*
X130070634Y-72400043D01*
X129826423Y-72335519D01*
X129816242Y-72333706D01*
X129564770Y-72309935D01*
X129554429Y-72309808D01*
X129302451Y-72327429D01*
X129292229Y-72328993D01*
X129046513Y-72387531D01*
X129036683Y-72390743D01*
X128803827Y-72488627D01*
X128794654Y-72493402D01*
X128580912Y-72628003D01*
X128572642Y-72634212D01*
X128383754Y-72801914D01*
X128376609Y-72809391D01*
X128217647Y-73005693D01*
X128211820Y-73014236D01*
X128087054Y-73233864D01*
X128082699Y-73243244D01*
X127995479Y-73480300D01*
X127992716Y-73490266D01*
X127945385Y-73738384D01*
X127944286Y-73748667D01*
X127938114Y-74001185D01*
X125856000Y-74001185D01*
X125856000Y-70238064D01*
X126836000Y-70238064D01*
X126836000Y-70477936D01*
X126836959Y-70488897D01*
X126878613Y-70725126D01*
X126881460Y-70735753D01*
X126963502Y-70961160D01*
X126968152Y-70971132D01*
X127088088Y-71178868D01*
X127094399Y-71187881D01*
X127248587Y-71371634D01*
X127256366Y-71379413D01*
X127440119Y-71533601D01*
X127449132Y-71539912D01*
X127656868Y-71659848D01*
X127666840Y-71664498D01*
X127892247Y-71746540D01*
X127902874Y-71749387D01*
X128139103Y-71791041D01*
X128150064Y-71792000D01*
X128389936Y-71792000D01*
X128400897Y-71791041D01*
X128637126Y-71749387D01*
X128647753Y-71746540D01*
X128873160Y-71664498D01*
X128883132Y-71659848D01*
X129090868Y-71539912D01*
X129099881Y-71533601D01*
X129283634Y-71379413D01*
X129291413Y-71371634D01*
X129445601Y-71187881D01*
X129451912Y-71178868D01*
X129571848Y-70971132D01*
X129576498Y-70961160D01*
X129658540Y-70735753D01*
X129661387Y-70725126D01*
X129703041Y-70488897D01*
X129704000Y-70477936D01*
X129704000Y-70238064D01*
X134456000Y-70238064D01*
X134456000Y-70477936D01*
X134456959Y-70488897D01*
X134498613Y-70725126D01*
X134501460Y-70735753D01*
X134583502Y-70961160D01*
X134588152Y-70971132D01*
X134708088Y-71178868D01*
X134714399Y-71187881D01*
X134868587Y-71371634D01*
X134876366Y-71379413D01*
X135060119Y-71533601D01*
X135069132Y-71539912D01*
X135276868Y-71659848D01*
X135286840Y-71664498D01*
X135512247Y-71746540D01*
X135522874Y-71749387D01*
X135759103Y-71791041D01*
X135770064Y-71792000D01*
X136009936Y-71792000D01*
X136020897Y-71791041D01*
X136257126Y-71749387D01*
X136267753Y-71746540D01*
X136493160Y-71664498D01*
X136503132Y-71659848D01*
X136710868Y-71539912D01*
X136719881Y-71533601D01*
X136903634Y-71379413D01*
X136911413Y-71371634D01*
X137065601Y-71187881D01*
X137071912Y-71178868D01*
X137191848Y-70971132D01*
X137196498Y-70961160D01*
X137278540Y-70735753D01*
X137281387Y-70725126D01*
X137323041Y-70488897D01*
X137324000Y-70477936D01*
X137324000Y-70238064D01*
X143092000Y-70238064D01*
X143092000Y-70477936D01*
X143092959Y-70488897D01*
X143134613Y-70725126D01*
X143137460Y-70735753D01*
X143219502Y-70961160D01*
X143224152Y-70971132D01*
X143344088Y-71178868D01*
X143350399Y-71187881D01*
X143504587Y-71371634D01*
X143512366Y-71379413D01*
X143696119Y-71533601D01*
X143705132Y-71539912D01*
X143912868Y-71659848D01*
X143922840Y-71664498D01*
X144148247Y-71746540D01*
X144158874Y-71749387D01*
X144395103Y-71791041D01*
X144406064Y-71792000D01*
X144645936Y-71792000D01*
X144656897Y-71791041D01*
X144893126Y-71749387D01*
X144903753Y-71746540D01*
X145129160Y-71664498D01*
X145139132Y-71659848D01*
X145346868Y-71539912D01*
X145355881Y-71533601D01*
X145539634Y-71379413D01*
X145547413Y-71371634D01*
X145701601Y-71187881D01*
X145707912Y-71178868D01*
X145827848Y-70971132D01*
X145832498Y-70961160D01*
X145914540Y-70735753D01*
X145917387Y-70725126D01*
X145959041Y-70488897D01*
X145960000Y-70477936D01*
X145960000Y-70238064D01*
X150712000Y-70238064D01*
X150712000Y-70477936D01*
X150712959Y-70488897D01*
X150754613Y-70725126D01*
X150757460Y-70735753D01*
X150839502Y-70961160D01*
X150844152Y-70971132D01*
X150964088Y-71178868D01*
X150970399Y-71187881D01*
X151124587Y-71371634D01*
X151132366Y-71379413D01*
X151316119Y-71533601D01*
X151325132Y-71539912D01*
X151532868Y-71659848D01*
X151542840Y-71664498D01*
X151768247Y-71746540D01*
X151778874Y-71749387D01*
X152015103Y-71791041D01*
X152026064Y-71792000D01*
X152265936Y-71792000D01*
X152276897Y-71791041D01*
X152513126Y-71749387D01*
X152523753Y-71746540D01*
X152749160Y-71664498D01*
X152759132Y-71659848D01*
X152966868Y-71539912D01*
X152975881Y-71533601D01*
X153159634Y-71379413D01*
X153167413Y-71371634D01*
X153321601Y-71187881D01*
X153327912Y-71178868D01*
X153447848Y-70971132D01*
X153452498Y-70961160D01*
X153534540Y-70735753D01*
X153537387Y-70725126D01*
X153579041Y-70488897D01*
X153580000Y-70477936D01*
X153580000Y-70238064D01*
X153579041Y-70227103D01*
X153537387Y-69990874D01*
X153534540Y-69980247D01*
X153452498Y-69754840D01*
X153447848Y-69744868D01*
X153327912Y-69537132D01*
X153321601Y-69528119D01*
X153167413Y-69344366D01*
X153159634Y-69336587D01*
X152975881Y-69182399D01*
X152966868Y-69176088D01*
X152759132Y-69056152D01*
X152749160Y-69051502D01*
X152523753Y-68969460D01*
X152513126Y-68966613D01*
X152276897Y-68924959D01*
X152265936Y-68924000D01*
X152026064Y-68924000D01*
X152015103Y-68924959D01*
X151778874Y-68966613D01*
X151768247Y-68969460D01*
X151542840Y-69051502D01*
X151532868Y-69056152D01*
X151325132Y-69176088D01*
X151316119Y-69182399D01*
X151132366Y-69336587D01*
X151124587Y-69344366D01*
X150970399Y-69528119D01*
X150964088Y-69537132D01*
X150844152Y-69744868D01*
X150839502Y-69754840D01*
X150757460Y-69980247D01*
X150754613Y-69990874D01*
X150712959Y-70227103D01*
X150712000Y-70238064D01*
X145960000Y-70238064D01*
X145959041Y-70227103D01*
X145917387Y-69990874D01*
X145914540Y-69980247D01*
X145832498Y-69754840D01*
X145827848Y-69744868D01*
X145707912Y-69537132D01*
X145701601Y-69528119D01*
X145547413Y-69344366D01*
X145539634Y-69336587D01*
X145355881Y-69182399D01*
X145346868Y-69176088D01*
X145139132Y-69056152D01*
X145129160Y-69051502D01*
X144903753Y-68969460D01*
X144893126Y-68966613D01*
X144656897Y-68924959D01*
X144645936Y-68924000D01*
X144406064Y-68924000D01*
X144395103Y-68924959D01*
X144158874Y-68966613D01*
X144148247Y-68969460D01*
X143922840Y-69051502D01*
X143912868Y-69056152D01*
X143705132Y-69176088D01*
X143696119Y-69182399D01*
X143512366Y-69336587D01*
X143504587Y-69344366D01*
X143350399Y-69528119D01*
X143344088Y-69537132D01*
X143224152Y-69744868D01*
X143219502Y-69754840D01*
X143137460Y-69980247D01*
X143134613Y-69990874D01*
X143092959Y-70227103D01*
X143092000Y-70238064D01*
X137324000Y-70238064D01*
X137323041Y-70227103D01*
X137281387Y-69990874D01*
X137278540Y-69980247D01*
X137196498Y-69754840D01*
X137191848Y-69744868D01*
X137071912Y-69537132D01*
X137065601Y-69528119D01*
X136911413Y-69344366D01*
X136903634Y-69336587D01*
X136719881Y-69182399D01*
X136710868Y-69176088D01*
X136503132Y-69056152D01*
X136493160Y-69051502D01*
X136267753Y-68969460D01*
X136257126Y-68966613D01*
X136020897Y-68924959D01*
X136009936Y-68924000D01*
X135770064Y-68924000D01*
X135759103Y-68924959D01*
X135522874Y-68966613D01*
X135512247Y-68969460D01*
X135286840Y-69051502D01*
X135276868Y-69056152D01*
X135069132Y-69176088D01*
X135060119Y-69182399D01*
X134876366Y-69336587D01*
X134868587Y-69344366D01*
X134714399Y-69528119D01*
X134708088Y-69537132D01*
X134588152Y-69744868D01*
X134583502Y-69754840D01*
X134501460Y-69980247D01*
X134498613Y-69990874D01*
X134456959Y-70227103D01*
X134456000Y-70238064D01*
X129704000Y-70238064D01*
X129703041Y-70227103D01*
X129661387Y-69990874D01*
X129658540Y-69980247D01*
X129576498Y-69754840D01*
X129571848Y-69744868D01*
X129451912Y-69537132D01*
X129445601Y-69528119D01*
X129291413Y-69344366D01*
X129283634Y-69336587D01*
X129099881Y-69182399D01*
X129090868Y-69176088D01*
X128883132Y-69056152D01*
X128873160Y-69051502D01*
X128647753Y-68969460D01*
X128637126Y-68966613D01*
X128400897Y-68924959D01*
X128389936Y-68924000D01*
X128150064Y-68924000D01*
X128139103Y-68924959D01*
X127902874Y-68966613D01*
X127892247Y-68969460D01*
X127666840Y-69051502D01*
X127656868Y-69056152D01*
X127449132Y-69176088D01*
X127440119Y-69182399D01*
X127256366Y-69336587D01*
X127248587Y-69344366D01*
X127094399Y-69528119D01*
X127088088Y-69537132D01*
X126968152Y-69744868D01*
X126963502Y-69754840D01*
X126881460Y-69980247D01*
X126878613Y-69990874D01*
X126836959Y-70227103D01*
X126836000Y-70238064D01*
X125856000Y-70238064D01*
X125856000Y-68177601D01*
X125930577Y-68252178D01*
X125938106Y-68258608D01*
X126154066Y-68415512D01*
X126162508Y-68420685D01*
X126400354Y-68541874D01*
X126409501Y-68545663D01*
X126663377Y-68628153D01*
X126673005Y-68630464D01*
X126936659Y-68672222D01*
X126946530Y-68672999D01*
X127213470Y-68672999D01*
X127223341Y-68672222D01*
X127486995Y-68630464D01*
X127496623Y-68628153D01*
X127750499Y-68545663D01*
X127759646Y-68541874D01*
X127997492Y-68420685D01*
X128005934Y-68415512D01*
X128221894Y-68258608D01*
X128229423Y-68252178D01*
X128418178Y-68063423D01*
X128424608Y-68055894D01*
X128581512Y-67839934D01*
X128586685Y-67831492D01*
X128707874Y-67593646D01*
X128711663Y-67584499D01*
X128794153Y-67330623D01*
X128796464Y-67320995D01*
X128838222Y-67057341D01*
X128838999Y-67047470D01*
X128838999Y-66780530D01*
X135321001Y-66780530D01*
X135321001Y-67047470D01*
X135321778Y-67057341D01*
X135363536Y-67320995D01*
X135365847Y-67330623D01*
X135448337Y-67584499D01*
X135452126Y-67593646D01*
X135573315Y-67831492D01*
X135578488Y-67839934D01*
X135735392Y-68055894D01*
X135741822Y-68063423D01*
X135930577Y-68252178D01*
X135938106Y-68258608D01*
X136154066Y-68415512D01*
X136162508Y-68420685D01*
X136400354Y-68541874D01*
X136409501Y-68545663D01*
X136663377Y-68628153D01*
X136673005Y-68630464D01*
X136936659Y-68672222D01*
X136946530Y-68672999D01*
X137213470Y-68672999D01*
X137223341Y-68672222D01*
X137486995Y-68630464D01*
X137496623Y-68628153D01*
X137750499Y-68545663D01*
X137759646Y-68541874D01*
X137997492Y-68420685D01*
X138005934Y-68415512D01*
X138221894Y-68258608D01*
X138229423Y-68252178D01*
X138418178Y-68063423D01*
X138424608Y-68055894D01*
X138581512Y-67839934D01*
X138586685Y-67831492D01*
X138707874Y-67593646D01*
X138711663Y-67584499D01*
X138794153Y-67330623D01*
X138796464Y-67320995D01*
X138838222Y-67057341D01*
X138838999Y-67047470D01*
X138838999Y-66780530D01*
X141577001Y-66780530D01*
X141577001Y-67047470D01*
X141577778Y-67057341D01*
X141619536Y-67320995D01*
X141621847Y-67330623D01*
X141704337Y-67584499D01*
X141708126Y-67593646D01*
X141829315Y-67831492D01*
X141834488Y-67839934D01*
X141991392Y-68055894D01*
X141997822Y-68063423D01*
X142186577Y-68252178D01*
X142194106Y-68258608D01*
X142410066Y-68415512D01*
X142418508Y-68420685D01*
X142656354Y-68541874D01*
X142665501Y-68545663D01*
X142919377Y-68628153D01*
X142929005Y-68630464D01*
X143192659Y-68672222D01*
X143202530Y-68672999D01*
X143469470Y-68672999D01*
X143479341Y-68672222D01*
X143742995Y-68630464D01*
X143752623Y-68628153D01*
X144006499Y-68545663D01*
X144015646Y-68541874D01*
X144253492Y-68420685D01*
X144261934Y-68415512D01*
X144477894Y-68258608D01*
X144485423Y-68252178D01*
X144674178Y-68063423D01*
X144680608Y-68055894D01*
X144837512Y-67839934D01*
X144842685Y-67831492D01*
X144963874Y-67593646D01*
X144967663Y-67584499D01*
X145050153Y-67330623D01*
X145052464Y-67320995D01*
X145094222Y-67057341D01*
X145094999Y-67047470D01*
X145094999Y-66780530D01*
X145094222Y-66770659D01*
X145052464Y-66507005D01*
X145050153Y-66497377D01*
X144967663Y-66243501D01*
X144963874Y-66234354D01*
X144842685Y-65996508D01*
X144837512Y-65988066D01*
X144680608Y-65772106D01*
X144674178Y-65764577D01*
X144485423Y-65575822D01*
X144477894Y-65569392D01*
X144261934Y-65412488D01*
X144253492Y-65407315D01*
X144015646Y-65286126D01*
X144006499Y-65282337D01*
X143752623Y-65199847D01*
X143742995Y-65197536D01*
X143479341Y-65155778D01*
X143469470Y-65155001D01*
X143202530Y-65155001D01*
X143192659Y-65155778D01*
X142929005Y-65197536D01*
X142919377Y-65199847D01*
X142665501Y-65282337D01*
X142656354Y-65286126D01*
X142418508Y-65407315D01*
X142410066Y-65412488D01*
X142194106Y-65569392D01*
X142186577Y-65575822D01*
X141997822Y-65764577D01*
X141991392Y-65772106D01*
X141834488Y-65988066D01*
X141829315Y-65996508D01*
X141708126Y-66234354D01*
X141704337Y-66243501D01*
X141621847Y-66497377D01*
X141619536Y-66507005D01*
X141577778Y-66770659D01*
X141577001Y-66780530D01*
X138838999Y-66780530D01*
X138838222Y-66770659D01*
X138796464Y-66507005D01*
X138794153Y-66497377D01*
X138711663Y-66243501D01*
X138707874Y-66234354D01*
X138586685Y-65996508D01*
X138581512Y-65988066D01*
X138424608Y-65772106D01*
X138418178Y-65764577D01*
X138229423Y-65575822D01*
X138221894Y-65569392D01*
X138005934Y-65412488D01*
X137997492Y-65407315D01*
X137759646Y-65286126D01*
X137750499Y-65282337D01*
X137496623Y-65199847D01*
X137486995Y-65197536D01*
X137223341Y-65155778D01*
X137213470Y-65155001D01*
X136946530Y-65155001D01*
X136936659Y-65155778D01*
X136673005Y-65197536D01*
X136663377Y-65199847D01*
X136409501Y-65282337D01*
X136400354Y-65286126D01*
X136162508Y-65407315D01*
X136154066Y-65412488D01*
X135938106Y-65569392D01*
X135930577Y-65575822D01*
X135741822Y-65764577D01*
X135735392Y-65772106D01*
X135578488Y-65988066D01*
X135573315Y-65996508D01*
X135452126Y-66234354D01*
X135448337Y-66243501D01*
X135365847Y-66497377D01*
X135363536Y-66507005D01*
X135321778Y-66770659D01*
X135321001Y-66780530D01*
X128838999Y-66780530D01*
X128838222Y-66770659D01*
X128796464Y-66507005D01*
X128794153Y-66497377D01*
X128711663Y-66243501D01*
X128707874Y-66234354D01*
X128586685Y-65996508D01*
X128581512Y-65988066D01*
X128424608Y-65772106D01*
X128418178Y-65764577D01*
X128229423Y-65575822D01*
X128221894Y-65569392D01*
X128005934Y-65412488D01*
X127997492Y-65407315D01*
X127759646Y-65286126D01*
X127750499Y-65282337D01*
X127496623Y-65199847D01*
X127486995Y-65197536D01*
X127223341Y-65155778D01*
X127213470Y-65155001D01*
X126946530Y-65155001D01*
X126936659Y-65155778D01*
X126673005Y-65197536D01*
X126663377Y-65199847D01*
X126409501Y-65282337D01*
X126400354Y-65286126D01*
X126162508Y-65407315D01*
X126154066Y-65412488D01*
X125938106Y-65569392D01*
X125930577Y-65575822D01*
X125856000Y-65650399D01*
X125856000Y-62102000D01*
X137330963Y-62102000D01*
X137330963Y-63838458D01*
M02*
